<svg version="1.1" viewBox="0.0 0.0 386.0839895013123 386.13123359580055" fill="none" stroke="none" stroke-linecap="square" stroke-miterlimit="10" xmlns:xlink="http://www.w3.org/1999/xlink" xmlns="http://www.w3.org/2000/svg"><clipPath id="p.0"><path d="m0 0l386.08398 0l0 386.13123l-386.08398 0l0 -386.13123z" clip-rule="nonzero"/></clipPath><g clip-path="url(#p.0)"><path fill="#000000" fill-opacity="0.0" d="m0 0l386.08398 0l0 386.13123l-386.08398 0z" fill-rule="evenodd"/><path fill="#ea9999" d="m16.86355 192.88087l0 0c0 -97.30648 78.88249 -176.18896 176.18896 -176.18896l0 0c46.728226 0 91.54257 18.562714 124.58441 51.604553c33.04187 33.041847 51.604584 77.85621 51.604584 124.58442l0 0c0 97.3065 -78.88251 176.18898 -176.189 176.18898l0 0c-97.30648 0 -176.18896 -78.88248 -176.18896 -176.18898z" fill-rule="evenodd"/><g filter="url(#shadowFilter-p.1)"><use xlink:href="#p.1" transform="matrix(1.0 0.0 0.0 1.0 0.0 2.0)"/></g><defs><filter id="shadowFilter-p.1" filterUnits="userSpaceOnUse"><feGaussianBlur in="SourceAlpha" stdDeviation="2.0" result="blur"/><feComponentTransfer in="blur" color-interpolation-filters="sRGB"><feFuncR type="linear" slope="0" intercept="0.0"/><feFuncG type="linear" slope="0" intercept="0.0"/><feFuncB type="linear" slope="0" intercept="0.0"/><feFuncA type="linear" slope="0.5" intercept="0"/></feComponentTransfer></filter></defs><g id="p.1"><path fill="#000000" fill-opacity="0.0" d="m17.019812 185.23885l0 0c0 -97.30649 78.88249 -176.18898 176.18898 -176.18898l0 0c46.728226 0 91.54259 18.562714 124.58443 51.604557c33.04184 33.04184 51.604553 77.85619 51.604553 124.58442l0 0c0 97.30647 -78.88251 176.18898 -176.18898 176.18898l0 0c-97.30648 0 -176.18898 -78.88251 -176.18898 -176.18898z" fill-rule="evenodd"/><path stroke="#666666" stroke-width="16.0" stroke-linejoin="round" stroke-linecap="butt" d="m17.019812 185.23885l0 0c0 -97.30649 78.88249 -176.18898 176.18898 -176.18898l0 0c46.728226 0 91.54259 18.562714 124.58443 51.604557c33.04184 33.04184 51.604553 77.85619 51.604553 124.58442l0 0c0 97.30647 -78.88251 176.18898 -176.18898 176.18898l0 0c-97.30648 0 -176.18898 -78.88251 -176.18898 -176.18898z" fill-rule="evenodd"/></g><path fill="#000000" fill-opacity="0.0" d="m31.396326 185.23622l0 0c0 -89.36576 72.44527 -161.81102 161.81102 -161.81102l0 0c42.914948 0 84.07222 17.047897 114.41768 47.393353c30.345459 30.345451 47.39334 71.50272 47.39334 114.41767l0 0c0 89.36577 -72.44525 161.81102 -161.81102 161.81102l0 0c-89.36576 0 -161.81102 -72.44525 -161.81102 -161.81102z" fill-rule="evenodd"/><path stroke="#ffffff" stroke-width="4.0" stroke-linejoin="round" stroke-linecap="butt" stroke-dasharray="4.0,12.0" d="m31.396326 185.23622l0 0c0 -89.36576 72.44527 -161.81102 161.81102 -161.81102l0 0c42.914948 0 84.07222 17.047897 114.41768 47.393353c30.345459 30.345451 47.39334 71.50272 47.39334 114.41767l0 0c0 89.36577 -72.44525 161.81102 -161.81102 161.81102l0 0c-89.36576 0 -161.81102 -72.44525 -161.81102 -161.81102z" fill-rule="evenodd"/><g filter="url(#shadowFilter-p.2)"><use xlink:href="#p.2" transform="matrix(1.0 0.0 0.0 1.0 0.0 2.0)"/></g><defs><filter id="shadowFilter-p.2" filterUnits="userSpaceOnUse"><feGaussianBlur in="SourceAlpha" stdDeviation="2.0" result="blur"/><feComponentTransfer in="blur" color-interpolation-filters="sRGB"><feFuncR type="linear" slope="0" intercept="0.0"/><feFuncG type="linear" slope="0" intercept="0.0"/><feFuncB type="linear" slope="0" intercept="0.0"/><feFuncA type="linear" slope="0.5" intercept="0"/></feComponentTransfer></filter></defs><g id="p.2"><path fill="#000000" fill-opacity="0.0" d="m193.36769 178.84758l-1.6062927 -158.36221" fill-rule="evenodd"/><path stroke="#134f5c" stroke-width="16.0" stroke-linejoin="round" stroke-linecap="butt" d="m193.36769 178.84758l-1.6062927 -158.36221" fill-rule="evenodd"/></g><g filter="url(#shadowFilter-p.3)"><use xlink:href="#p.3" transform="matrix(1.0 0.0 0.0 1.0 0.0 2.0)"/></g><defs><filter id="shadowFilter-p.3" filterUnits="userSpaceOnUse"><feGaussianBlur in="SourceAlpha" stdDeviation="2.0" result="blur"/><feComponentTransfer in="blur" color-interpolation-filters="sRGB"><feFuncR type="linear" slope="0" intercept="0.0"/><feFuncG type="linear" slope="0" intercept="0.0"/><feFuncB type="linear" slope="0" intercept="0.0"/><feFuncA type="linear" slope="0.5" intercept="0"/></feComponentTransfer></filter></defs><g id="p.3"><path fill="#000000" fill-opacity="0.0" d="m201.30646 183.62303l86.4252 -68.37795" fill-rule="evenodd"/><path stroke="#134f5c" stroke-width="16.0" stroke-linejoin="round" stroke-linecap="butt" d="m201.30646 183.62303l86.4252 -68.37795" fill-rule="evenodd"/></g><g filter="url(#shadowFilter-p.4)"><use xlink:href="#p.4" transform="matrix(1.0 0.0 0.0 1.0 0.0 2.0)"/></g><defs><filter id="shadowFilter-p.4" filterUnits="userSpaceOnUse"><feGaussianBlur in="SourceAlpha" stdDeviation="2.0" result="blur"/><feComponentTransfer in="blur" color-interpolation-filters="sRGB"><feFuncR type="linear" slope="0" intercept="0.0"/><feFuncG type="linear" slope="0" intercept="0.0"/><feFuncB type="linear" slope="0" intercept="0.0"/><feFuncA type="linear" slope="0.5" intercept="0"/></feComponentTransfer></filter></defs><g id="p.4"><path fill="#134f5c" d="m159.37273 192.87029l0 0c0 -18.595032 15.074265 -33.66928 33.669296 -33.66928l0 0c8.929657 0 17.49356 3.547287 23.807785 9.861496c6.3142242 6.3142242 9.861511 14.878143 9.861511 23.807785l0 0c0 18.595047 -15.074265 33.669296 -33.669296 33.669296l0 0c-18.595032 0 -33.669296 -15.074249 -33.669296 -33.669296z" fill-rule="evenodd"/></g></g></svg>