<svg version="1.1" viewBox="0.0 0.0 386.0839895013123 386.13123359580055" fill="none" stroke="none" stroke-linecap="square" stroke-miterlimit="10" xmlns:xlink="http://www.w3.org/1999/xlink" xmlns="http://www.w3.org/2000/svg"><clipPath id="p.0"><path d="m0 0l386.08398 0l0 386.13123l-386.08398 0l0 -386.13123z" clip-rule="nonzero"/></clipPath><g clip-path="url(#p.0)"><path fill="#000000" fill-opacity="0.0" d="m0 0l386.08398 0l0 386.13123l-386.08398 0z" fill-rule="evenodd"/><path fill="#ea9999" d="m16.86355 192.88087l0 0c0 -97.30648 78.88249 -176.18896 176.18896 -176.18896l0 0c46.728226 0 91.54257 18.562714 124.58441 51.604553c33.04187 33.041847 51.604584 77.85621 51.604584 124.58442l0 0c0 97.3065 -78.88251 176.18898 -176.189 176.18898l0 0c-97.30648 0 -176.18896 -78.88248 -176.18896 -176.18898z" fill-rule="evenodd"/><g filter="url(#shadowFilter-p.1)"><use xlink:href="#p.1" transform="matrix(1.0 0.0 0.0 1.0 0.0 2.0)"/></g><defs><filter id="shadowFilter-p.1" filterUnits="userSpaceOnUse"><feGaussianBlur in="SourceAlpha" stdDeviation="2.0" result="blur"/><feComponentTransfer in="blur" color-interpolation-filters="sRGB"><feFuncR type="linear" slope="0" intercept="0.0"/><feFuncG type="linear" slope="0" intercept="0.0"/><feFuncB type="linear" slope="0" intercept="0.0"/><feFuncA type="linear" slope="0.5" intercept="0"/></feComponentTransfer></filter></defs><g id="p.1"><path fill="#000000" fill-opacity="0.0" d="m17.019812 185.23885l0 0c0 -97.30649 78.88249 -176.18898 176.18898 -176.18898l0 0c46.728226 0 91.54259 18.562714 124.58443 51.604557c33.04184 33.04184 51.604553 77.85619 51.604553 124.58442l0 0c0 97.30647 -78.88251 176.18898 -176.18898 176.18898l0 0c-97.30648 0 -176.18898 -78.88251 -176.18898 -176.18898z" fill-rule="evenodd"/><path stroke="#615454" stroke-width="16.0" stroke-linejoin="round" stroke-linecap="butt" d="m17.019812 185.23885l0 0c0 -97.30649 78.88249 -176.18898 176.18898 -176.18898l0 0c46.728226 0 91.54259 18.562714 124.58443 51.604557c33.04184 33.04184 51.604553 77.85619 51.604553 124.58442l0 0c0 97.30647 -78.88251 176.18898 -176.18898 176.18898l0 0c-97.30648 0 -176.18898 -78.88251 -176.18898 -176.18898z" fill-rule="evenodd"/></g><path fill="#000000" fill-opacity="0.0" d="m199.61705 22.797913l0 0c89.00658 3.6068592 158.53505 78.16931 155.92162 167.21062c-2.6134644 89.041306 -76.39545 159.39745 -165.46036 157.77773c-89.06491 -1.6197205 -160.23997 -74.61203 -159.6142 -163.68948c0.6257839 -89.077446 72.819336 -161.06256 161.89822 -161.43079l0.67204285 162.57288z" fill-rule="evenodd"/><path fill="#000000" fill-opacity="0.0" d="m199.61705 22.797913l0 0c89.00658 3.6068592 158.53505 78.16931 155.92162 167.21062c-2.6134644 89.041306 -76.39545 159.39745 -165.46036 157.77773c-89.06491 -1.6197205 -160.23997 -74.61203 -159.6142 -163.68948c0.6257839 -89.077446 72.819336 -161.06256 161.89822 -161.43079" fill-rule="evenodd"/><path stroke="#ffffff" stroke-width="4.0" stroke-linejoin="round" stroke-linecap="butt" stroke-dasharray="4.0,12.0" d="m199.61705 22.797913l0 0c89.00658 3.6068592 158.53505 78.16931 155.92162 167.21062c-2.6134644 89.041306 -76.39545 159.39745 -165.46036 157.77773c-89.06491 -1.6197205 -160.23997 -74.61203 -159.6142 -163.68948c0.6257839 -89.077446 72.819336 -161.06256 161.89822 -161.43079" fill-rule="evenodd"/><path fill="#ffffff" d="m192.6201 44.655674l-71.27559 3.90551l70.078735 -13.543308z" fill-rule="evenodd"/><g filter="url(#shadowFilter-p.2)"><use xlink:href="#p.2" transform="matrix(1.0 0.0 0.0 1.0 0.0 2.0)"/></g><defs><filter id="shadowFilter-p.2" filterUnits="userSpaceOnUse"><feGaussianBlur in="SourceAlpha" stdDeviation="2.0" result="blur"/><feComponentTransfer in="blur" color-interpolation-filters="sRGB"><feFuncR type="linear" slope="0" intercept="0.0"/><feFuncG type="linear" slope="0" intercept="0.0"/><feFuncB type="linear" slope="0" intercept="0.0"/><feFuncA type="linear" slope="0.5" intercept="0"/></feComponentTransfer></filter></defs><g id="p.2"><path fill="#000000" fill-opacity="0.0" d="m193.93805 178.84758l-1.6062927 -158.36221" fill-rule="evenodd"/><path stroke="#134f5c" stroke-width="16.0" stroke-linejoin="round" stroke-linecap="butt" d="m193.93805 178.84758l-1.6062927 -158.36221" fill-rule="evenodd"/></g><path fill="#ffffff" d="m188.88754 88.6613l-45.102356 1.2283478l44.031494 -9.795273z" fill-rule="evenodd"/><path fill="#ffffff" d="m190.9264 129.52754l-32.834656 0.07873535l31.858276 -7.9212646z" fill-rule="evenodd"/><path fill="#000000" fill-opacity="0.0" d="m189.02625 179.13387l-1.102356 -158.64568" fill-rule="evenodd"/><path stroke="#3b6b75" stroke-width="8.0" stroke-linejoin="round" stroke-linecap="butt" d="m189.02625 179.13387l-1.102356 -158.64568" fill-rule="evenodd"/><g filter="url(#shadowFilter-p.3)"><use xlink:href="#p.3" transform="matrix(1.0 0.0 0.0 1.0 0.0 2.0)"/></g><defs><filter id="shadowFilter-p.3" filterUnits="userSpaceOnUse"><feGaussianBlur in="SourceAlpha" stdDeviation="2.0" result="blur"/><feComponentTransfer in="blur" color-interpolation-filters="sRGB"><feFuncR type="linear" slope="0" intercept="0.0"/><feFuncG type="linear" slope="0" intercept="0.0"/><feFuncB type="linear" slope="0" intercept="0.0"/><feFuncA type="linear" slope="0.5" intercept="0"/></feComponentTransfer></filter></defs><g id="p.3"><path fill="#000000" fill-opacity="0.0" d="m202.46095 184.8869l84.157486 -71.21259" fill-rule="evenodd"/><path stroke="#134f5c" stroke-width="16.0" stroke-linejoin="round" stroke-linecap="butt" d="m202.46095 184.8869l84.157486 -71.21259" fill-rule="evenodd"/></g><path fill="#000000" fill-opacity="0.0" d="m197.54381 183.4103l86.110245 -72.50394" fill-rule="evenodd"/><path stroke="#3b6b75" stroke-width="8.0" stroke-linejoin="round" stroke-linecap="butt" d="m197.54381 183.4103l86.110245 -72.50394" fill-rule="evenodd"/><g filter="url(#shadowFilter-p.4)"><use xlink:href="#p.4" transform="matrix(1.0 0.0 0.0 1.0 0.0 2.0)"/></g><defs><filter id="shadowFilter-p.4" filterUnits="userSpaceOnUse"><feGaussianBlur in="SourceAlpha" stdDeviation="2.0" result="blur"/><feComponentTransfer in="blur" color-interpolation-filters="sRGB"><feFuncR type="linear" slope="0" intercept="0.0"/><feFuncG type="linear" slope="0" intercept="0.0"/><feFuncB type="linear" slope="0" intercept="0.0"/><feFuncA type="linear" slope="0.5" intercept="0"/></feComponentTransfer></filter></defs><g id="p.4"><path fill="#134f5c" d="m165.31758 192.86351l0 0c0 -15.307419 12.409119 -27.716537 27.716537 -27.716537l0 0c7.350891 0 14.400696 2.9201202 19.598557 8.117981c5.1978607 5.1978607 8.117981 12.247665 8.117981 19.598557l0 0c0 15.307419 -12.409119 27.716537 -27.716537 27.716537l0 0c-15.307419 0 -27.716537 -12.409119 -27.716537 -27.716537z" fill-rule="evenodd"/></g><path fill="#000000" fill-opacity="0.0" d="m177.63293 295.46414l0 0c-39.21936 -5.9292603 -71.71436 -33.97757 -83.61186 -72.170166c-11.897507 -38.192596 -1.0953674 -79.78139 27.794624 -107.010796l70.638054 76.227516z" fill-rule="evenodd"/><path fill="#000000" fill-opacity="0.0" d="m177.63293 295.46414l0 0c-39.21936 -5.9292603 -71.71436 -33.97757 -83.61186 -72.170166c-11.897507 -38.192596 -1.0953674 -79.78139 27.794624 -107.010796" fill-rule="evenodd"/><path stroke="#615454" stroke-width="8.0" stroke-linejoin="round" stroke-linecap="butt" d="m177.63293 295.46414l0 0c-39.21936 -5.9292603 -71.71436 -33.97757 -83.61186 -72.170166c-11.897507 -38.192596 -1.0953674 -79.78139 27.794624 -107.010796" fill-rule="evenodd"/><path fill="#615454" d="m110.19795 111.18275l22.97258 -3.6306076l-8.232117 21.870667z" fill-rule="evenodd"/><path stroke="#615454" stroke-width="1.0" stroke-linejoin="round" stroke-linecap="butt" d="m110.19795 111.18275l22.97258 -3.6306076l-8.232117 21.870667z" fill-rule="evenodd"/></g></svg>