<svg version="1.1" viewBox="0.0 0.0 960.0 720.0" fill="none" stroke="none" stroke-linecap="square" stroke-miterlimit="10" xmlns:xlink="http://www.w3.org/1999/xlink" xmlns="http://www.w3.org/2000/svg"><clipPath id="p.0"><path d="m0 0l960.0 0l0 720.0l-960.0 0l0 -720.0z" clip-rule="nonzero"/></clipPath><g clip-path="url(#p.0)"><path fill="#000000" fill-opacity="0.0" d="m0 0l960.0 0l0 720.0l-960.0 0z" fill-rule="evenodd"/><path fill="#6aa84f" d="m136.47244 359.98425l0 0c0 -189.71634 153.79547 -343.5118 343.5118 -343.5118l0 0c91.10498 0 178.47858 36.191322 242.89954 100.61228c64.42096 64.42095 100.61224 151.79453 100.61224 242.89954l0 0c0 189.71631 -153.79547 343.51178 -343.51178 343.51178l0 0c-189.71634 0 -343.5118 -153.79547 -343.5118 -343.51178z" fill-rule="evenodd"/><g filter="url(#shadowFilter-p.1)"><use xlink:href="#p.1" transform="matrix(1.0 0.0 0.0 1.0 2.060152230971142 3.428669291338593)"/></g><defs><filter id="shadowFilter-p.1" filterUnits="userSpaceOnUse"><feGaussianBlur in="SourceAlpha" stdDeviation="2.0" result="blur"/><feComponentTransfer in="blur" color-interpolation-filters="sRGB"><feFuncR type="linear" slope="0" intercept="0.0"/><feFuncG type="linear" slope="0" intercept="0.0"/><feFuncB type="linear" slope="0" intercept="0.0"/><feFuncA type="linear" slope="0.5" intercept="0"/></feComponentTransfer></filter></defs><g id="p.1"><path fill="#b6d7a8" d="m297.7532 360.0209l0 0c0 -100.663666 81.604034 -182.26772 182.2677 -182.26772l0 0c48.340424 0 94.7009 19.203156 128.88272 53.38498c34.181824 34.18184 53.38501 80.54234 53.38501 128.88274l0 0c0 100.6637 -81.604065 182.26773 -182.26773 182.26773l0 0c-100.663666 0 -182.2677 -81.604034 -182.2677 -182.26773z" fill-rule="evenodd"/></g></g></svg>