<svg version="1.1" viewBox="0.0 0.0 100.0 100.0" fill="none" stroke="none" stroke-linecap="square" stroke-miterlimit="10" xmlns:xlink="http://www.w3.org/1999/xlink" xmlns="http://www.w3.org/2000/svg"><clipPath id="p.0"><path d="m0 0l100.0 0l0 100.0l-100.0 0l0 -100.0z" clip-rule="nonzero"/></clipPath><g clip-path="url(#p.0)"><path fill="#000000" fill-opacity="0.0" d="m0 0l100.0 0l0 100.0l-100.0 0z" fill-rule="evenodd"/><path fill="#666666" d="m28.496172 97.49835l-1.8923988 -19.568535l0 0c-21.116238 -10.4923935 -29.620626 -33.23305 -19.64724 -52.536545c9.973387 -19.303493 35.160572 -28.852392 58.18862 -22.060316c23.028053 6.792076 36.36061 27.702293 30.801506 48.30777c-5.559105 20.605473 -28.190552 34.162685 -52.284237 31.320507z" fill-rule="evenodd"/><path fill="#d9ead3" d="m41.19545 47.04672l0 -1.328125l1.328125 0l0 1.328125l-1.328125 0zm4.4375 0l0 -1.328125l1.328125 0l0 1.328125l-1.328125 0zm4.4375 0l0 -1.328125l1.34375 0l0 1.328125l-1.34375 0zm4.09375 0l0 -1.328125l1.34375 0l0 1.328125l-1.34375 0zm3.7029877 0l0 -1.328125l1.34375 0l0 1.328125l-1.34375 0z" fill-rule="nonzero"/></g></svg>