<svg version="1.1" viewBox="0.0 0.0 200.0 200.0" fill="none" stroke="none" stroke-linecap="square" stroke-miterlimit="10" xmlns:xlink="http://www.w3.org/1999/xlink" xmlns="http://www.w3.org/2000/svg"><clipPath id="p.0"><path d="m0 0l200.0 0l0 200.0l-200.0 0l0 -200.0z" clip-rule="nonzero"/></clipPath><g clip-path="url(#p.0)"><path fill="#000000" fill-opacity="0.0" d="m0 0l200.0 0l0 200.0l-200.0 0z" fill-rule="evenodd"/><path fill="#d9ead3" d="m1.1802452 100.118996l0 0c0 -54.61966 44.27798 -98.897644 98.89764 -98.897644l0 0c26.229286 0 51.384293 10.419542 69.9312 28.966448c18.546906 18.546906 28.966446 43.70191 28.966446 69.9312l0 0c0 54.61965 -44.277985 98.89764 -98.897644 98.89764l0 0c-54.619656 0 -98.89764 -44.277985 -98.89764 -98.89764z" fill-rule="evenodd"/><g filter="url(#shadowFilter-p.1)"><use xlink:href="#p.1" transform="matrix(1.0 0.0 0.0 1.0 0.0 2.0)"/></g><defs><filter id="shadowFilter-p.1" filterUnits="userSpaceOnUse"><feGaussianBlur in="SourceAlpha" stdDeviation="2.0" result="blur"/><feComponentTransfer in="blur" color-interpolation-filters="sRGB"><feFuncR type="linear" slope="0" intercept="0.0"/><feFuncG type="linear" slope="0" intercept="0.0"/><feFuncB type="linear" slope="0" intercept="0.0"/><feFuncA type="linear" slope="0.5" intercept="0"/></feComponentTransfer></filter></defs><g id="p.1"><path fill="#6aa84f" d="m57.9313 51.358047l0 0c0 -7.7609787 6.2915154 -14.052494 14.052494 -14.052494l0 0l0 0l21.078735 0l35.13124 0l0 0c3.726944 0 7.3012543 1.480526 9.936615 4.115879c2.6353455 2.635353 4.1158752 6.2096596 4.1158752 9.936615l0 35.700783l0 0l0 21.322838l0 0.16272736c0 7.7609787 -6.291519 14.052498 -14.05249 14.052498l-35.13124 0l-21.078735 0l0 0l0 0c-7.7609787 0 -14.052494 -6.291519 -14.052494 -14.052498l0 -0.16272736l-27.068476 0.3059082l27.068476 -21.628746z" fill-rule="evenodd"/><path fill="#efefef" d="m99.04777 87.241844l-1.078125 -15.171875l0 -6.359375l4.359375 0l0 6.359375l-1.015625 15.171875l-2.265625 0zm-0.921875 7.109375l0 -4.0l4.046875 0l0 4.0l-4.046875 0z" fill-rule="nonzero"/></g><path fill="#000000" fill-opacity="0.0" d="m-17.349087 136.5429l235.52756 0l0 18.960632l-235.52756 0z" fill-rule="evenodd"/><path fill="#666666" d="m57.473278 151.56165q0 1.375 -0.9375 2.109375q-0.9375 0.734375 -2.65625 0.734375l-1.46875 0l0 3.9375l-0.671875 0l0 -9.515625l2.328125 0q3.40625 0 3.40625 2.734375zm-5.0625 2.28125l1.296875 0q1.609375 0 2.328125 -0.53125q0.71875 -0.53125 0.71875 -1.71875q0 -1.109375 -0.6875 -1.640625q-0.671875 -0.53125 -2.09375 -0.53125l-1.5625 0l0 4.421875zm9.8276825 4.625q-1.546875 0 -2.40625 -0.9375q-0.859375 -0.953125 -0.859375 -2.671875q0 -1.6875 0.828125 -2.703125q0.828125 -1.015625 2.25 -1.015625q1.25 0 1.9687538 0.875q0.71875 0.859375 0.71875 2.359375l0 0.515625l-5.093754 0q0.015625 1.46875 0.671875 2.234375q0.671875 0.765625 1.921875 0.765625q0.59375 0 1.046875 -0.078125q0.46875 -0.09375 1.1718788 -0.375l0 0.59375q-0.5937538 0.25 -1.1093788 0.34375q-0.5 0.09375 -1.109375 0.09375zm-0.1875 -6.765625q-1.03125 0 -1.65625 0.671875q-0.609375 0.671875 -0.71875 1.953125l4.375004 0q0 -1.234375 -0.5312538 -1.921875q-0.53125 -0.703125 -1.46875 -0.703125zm7.4242287 -0.5625q0.453125 0 0.96875 0.078125l-0.125 0.625q-0.453125 -0.109375 -0.921875 -0.109375q-0.90625 0 -1.484375 0.765625q-0.578125 0.765625 -0.578125 1.9375l0 3.90625l-0.640625 0l0 -7.078125l0.546875 0l0.0625 1.28125l0.046875 0q0.4375 -0.78125 0.921875 -1.09375q0.5 -0.3125 1.203125 -0.3125zm6.796158 5.359375q0 0.953125 -0.734375 1.46875q-0.71875 0.5 -2.046875 0.5q-1.421875 0 -2.25 -0.4375l0 -0.6875q1.0625 0.53125 2.25 0.53125q1.046875 0 1.59375 -0.34375q0.546875 -0.359375 0.546875 -0.9375q0 -0.53125 -0.4375 -0.890625q-0.4375 -0.359375 -1.421875 -0.71875q-1.0625 -0.375 -1.5 -0.65625q-0.421875 -0.28125 -0.640625 -0.625q-0.21875 -0.34375 -0.21875 -0.859375q0 -0.78125 0.671875 -1.234375q0.671875 -0.46875 1.859375 -0.46875q1.15625 0 2.171875 0.421875l-0.234375 0.578125q-1.046875 -0.421875 -1.9375 -0.421875q-0.859375 0 -1.375 0.296875q-0.5 0.28125 -0.5 0.78125q0 0.5625 0.390625 0.890625q0.390625 0.328125 1.546875 0.734375q0.953125 0.34375 1.390625 0.625q0.4375 0.28125 0.65625 0.640625q0.21875 0.34375 0.21875 0.8125zm7.6616364 -1.703125q0 1.734375 -0.84375 2.703125q-0.828125 0.96875 -2.3125 0.96875q-0.921875 0 -1.640625 -0.4375q-0.703125 -0.453125 -1.078125 -1.296875q-0.375 -0.84375 -0.375 -1.9375q0 -1.734375 0.828125 -2.6875q0.84375 -0.96875 2.3125 -0.96875q1.453125 0 2.28125 0.984375q0.828125 0.96875 0.828125 2.671875zm-5.578125 0q0 1.453125 0.640625 2.28125q0.640625 0.8125 1.8125 0.8125q1.171875 0 1.8125 -0.8125q0.640625 -0.828125 0.640625 -2.28125q0 -1.46875 -0.65625 -2.265625q-0.640625 -0.8125 -1.8125 -0.8125q-1.171875 0 -1.8125 0.8125q-0.625 0.796875 -0.625 2.265625zm12.481323 3.546875l0 -4.59375q0 -1.0625 -0.453125 -1.546875q-0.453125 -0.484375 -1.390625 -0.484375q-1.28125 0 -1.875 0.640625q-0.578125 0.640625 -0.578125 2.078125l0 3.90625l-0.640625 0l0 -7.078125l0.546875 0l0.125 0.96875l0.03125 0q0.6875 -1.09375 2.453125 -1.09375q2.40625 0 2.40625 2.578125l0 4.625l-0.625 0zm7.220886 0l-0.171875 -1.125l-0.046875 0q-0.53125 0.6875 -1.09375 0.96875q-0.5625 0.28125 -1.328125 0.28125q-1.046875 0 -1.625 -0.53125q-0.578125 -0.53125 -0.578125 -1.46875q0 -1.046875 0.859375 -1.609375q0.859375 -0.578125 2.5 -0.609375l1.34375 -0.03125l0 -0.46875q0 -1.015625 -0.421875 -1.53125q-0.40625 -0.515625 -1.3125 -0.515625q-0.984375 0 -2.03125 0.546875l-0.25 -0.5625q1.171875 -0.546875 2.3125 -0.546875q1.15625 0 1.734375 0.609375q0.578125 0.609375 0.578125 1.890625l0 4.703125l-0.46875 0zm-2.609375 -0.453125q1.140625 0 1.78125 -0.640625q0.65625 -0.65625 0.65625 -1.8125l0 -0.6875l-1.234375 0.046875q-1.484375 0.078125 -2.125 0.46875q-0.625 0.390625 -0.625 1.21875q0 0.671875 0.40625 1.046875q0.40625 0.359375 1.140625 0.359375zm6.0141754 0.453125l-0.640625 0l0 -10.125l0.640625 0l0 10.125zm8.662842 0.125q-1.515625 0 -2.375 -0.953125q-0.859375 -0.953125 -0.859375 -2.671875q0 -1.75 0.890625 -2.71875q0.890625 -0.984375 2.4375 -0.984375q0.9218674 0 1.7499924 0.3125l-0.171875 0.578125q-0.921875 -0.3125 -1.5937424 -0.3125q-1.296875 0 -1.96875 0.8125q-0.671875 0.796875 -0.671875 2.3125q0 1.421875 0.671875 2.234375q0.671875 0.8125 1.875 0.8125q0.9531174 0 1.7812424 -0.34375l0 0.59375q-0.671875 0.328125 -1.7656174 0.328125zm9.347801 -3.671875q0 1.734375 -0.84375 2.703125q-0.828125 0.96875 -2.3125 0.96875q-0.921875 0 -1.640625 -0.4375q-0.703125 -0.453125 -1.078125 -1.296875q-0.375 -0.84375 -0.375 -1.9375q0 -1.734375 0.828125 -2.6875q0.84375 -0.96875 2.3125 -0.96875q1.453125 0 2.28125 0.984375q0.828125 0.96875 0.828125 2.671875zm-5.578125 0q0 1.453125 0.640625 2.28125q0.640625 0.8125 1.8125 0.8125q1.171875 0 1.8125 -0.8125q0.640625 -0.828125 0.640625 -2.28125q0 -1.46875 -0.65625 -2.265625q-0.640625 -0.8125 -1.8125 -0.8125q-1.171875 0 -1.8125 0.8125q-0.625 0.796875 -0.625 2.265625zm12.481323 3.546875l0 -4.59375q0 -1.0625 -0.453125 -1.546875q-0.453125 -0.484375 -1.390625 -0.484375q-1.28125 0 -1.875 0.640625q-0.578125 0.640625 -0.578125 2.078125l0 3.90625l-0.640625 0l0 -7.078125l0.546875 0l0.125 0.96875l0.03125 0q0.6875 -1.09375 2.453125 -1.09375q2.40625 0 2.40625 2.578125l0 4.625l-0.625 0zm4.7833786 -0.4375q0.609375 0 1.078125 -0.109375l0 0.515625q-0.46875 0.15625 -1.078125 0.15625q-0.9375 0 -1.390625 -0.5q-0.453125 -0.5 -0.453125 -1.578125l0 -4.5625l-1.046875 0l0 -0.375l1.046875 -0.296875l0.328125 -1.59375l0.34375 0l0 1.703125l2.0625 0l0 0.5625l-2.0625 0l0 4.484375q0 0.8125 0.28125 1.203125q0.28125 0.390625 0.890625 0.390625zm6.901886 0.4375l-0.171875 -1.125l-0.046875 0q-0.53125 0.6875 -1.09375 0.96875q-0.5625 0.28125 -1.328125 0.28125q-1.046875 0 -1.625 -0.53125q-0.578125 -0.53125 -0.578125 -1.46875q0 -1.046875 0.859375 -1.609375q0.859375 -0.578125 2.5 -0.609375l1.34375 -0.03125l0 -0.46875q0 -1.015625 -0.421875 -1.53125q-0.40625 -0.515625 -1.3125 -0.515625q-0.984375 0 -2.03125 0.546875l-0.25 -0.5625q1.171875 -0.546875 2.3125 -0.546875q1.15625 0 1.734375 0.609375q0.578125 0.609375 0.578125 1.890625l0 4.703125l-0.46875 0zm-2.609375 -0.453125q1.140625 0 1.78125 -0.640625q0.65625 -0.65625 0.65625 -1.8125l0 -0.6875l-1.234375 0.046875q-1.484375 0.078125 -2.125 0.46875q-0.625 0.390625 -0.625 1.21875q0 0.671875 0.40625 1.046875q0.40625 0.359375 1.140625 0.359375zm8.201691 0.578125q-1.515625 0 -2.375 -0.953125q-0.859375 -0.953125 -0.859375 -2.671875q0 -1.75 0.890625 -2.71875q0.890625 -0.984375 2.4375 -0.984375q0.921875 0 1.75 0.3125l-0.171875 0.578125q-0.921875 -0.3125 -1.59375 -0.3125q-1.296875 0 -1.96875 0.8125q-0.671875 0.796875 -0.671875 2.3125q0 1.421875 0.671875 2.234375q0.671875 0.8125 1.875 0.8125q0.953125 0 1.78125 -0.34375l0 0.59375q-0.671875 0.328125 -1.765625 0.328125zm5.3634033 -0.5625q0.609375 0 1.078125 -0.109375l0 0.515625q-0.46875 0.15625 -1.078125 0.15625q-0.9375 0 -1.390625 -0.5q-0.453125 -0.5 -0.453125 -1.578125l0 -4.5625l-1.046875 0l0 -0.375l1.046875 -0.296875l0.328125 -1.59375l0.34375 0l0 1.703125l2.0625 0l0 0.5625l-2.0625 0l0 4.484375q0 0.8125 0.28125 1.203125q0.28125 0.390625 0.890625 0.390625z" fill-rule="nonzero"/></g></svg>