<svg version="1.1" viewBox="0.0 0.0 146.8005249343832 112.71128608923884" fill="none" stroke="none" stroke-linecap="square" stroke-miterlimit="10" xmlns:xlink="http://www.w3.org/1999/xlink" xmlns="http://www.w3.org/2000/svg"><clipPath id="p.0"><path d="m0 0l146.80052 0l0 112.71129l-146.80052 0l0 -112.71129z" clip-rule="nonzero"/></clipPath><g clip-path="url(#p.0)"><path fill="#000000" fill-opacity="0.0" d="m0 0l146.80052 0l0 112.71129l-146.80052 0z" fill-rule="evenodd"/><path fill="#d9ead3" d="m36.884514 21.48819l0 0c0 -9.439576 7.6522903 -17.091864 17.091866 -17.091864l0 0l0 0l25.637794 0l42.72966 0l0 0c4.533043 0 8.8804245 1.8007445 12.085777 5.0060906c3.2053375 3.205346 5.0060883 7.5527287 5.0060883 12.085773l0 43.519684l0 0l0 25.97638l0 0.22572327c0 9.439575 -7.652298 17.091858 -17.091866 17.091858l-42.72966 0l-25.637794 0l0 0l0 0c-9.439575 0 -17.091866 -7.6522827 -17.091866 -17.091858l0 -0.22572327l-32.92303 0.37267303l32.92303 -26.349052z" fill-rule="evenodd"/><path fill="#efefef" d="m86.07807 70.93032l-2.15625 -30.359371l0 -12.687502l8.71875 0l0 12.687502l-2.03125 30.359371l-4.53125 0zm-1.84375 14.21875l0 -8.015625l8.09375 0l0 8.015625l-8.09375 0z" fill-rule="nonzero"/></g></svg>