<svg version="1.1" viewBox="0.0 0.0 450.0 200.0" fill="none" stroke="none" stroke-linecap="square" stroke-miterlimit="10" xmlns:xlink="http://www.w3.org/1999/xlink" xmlns="http://www.w3.org/2000/svg"><clipPath id="p.0"><path d="m0 0l450.0 0l0 200.0l-450.0 0l0 -200.0z" clip-rule="nonzero"/></clipPath><g clip-path="url(#p.0)"><path fill="#000000" fill-opacity="0.0" d="m0 0l450.0 0l0 200.0l-450.0 0z" fill-rule="evenodd"/><path fill="#edf4eb" d="m0.94908214 98.8399l0 0c0 -54.306553 44.02416 -98.33071 98.33071 -98.33071l251.43307 0l0 0c26.078918 0 51.08972 10.359813 69.530304 28.800398c18.440582 18.440584 28.800415 43.451385 28.800415 69.53031l0 0l0 0c0 54.30654 -44.02417 98.33071 -98.33072 98.33071l-251.43307 0c-54.306553 0 -98.33071 -44.02417 -98.33071 -98.33071z" fill-rule="evenodd"/><path fill="#000000" fill-opacity="0.0" d="m211.92389 61.653675l215.87402 0l0 76.69292l-215.87402 0z" fill-rule="evenodd"/><path fill="#000000" d="m218.90826 75.173676l-3.203125 -7.90625l-0.046875 0q0.046875 0.71875 0.046875 1.484375l0 6.421875l-0.5625 0l0 -8.5625l0.921875 0l3.03125 7.53125l0.03125 0l3.046875 -7.53125l0.890625 0l0 8.5625l-0.59375 0l0 -6.5q0 -0.671875 0.0625 -1.40625l-0.046875 0l-3.203125 7.90625l-0.375 0zm5.3691406 -6.375l0.59375 0l1.359375 3.578125q0.609375 1.640625 0.765625 2.21875l0.046875 0q0.234375 -0.75 0.796875 -2.25l1.34375 -3.546875l0.609375 0l-2.859375 7.40625q-0.34375 0.90625 -0.578125 1.21875q-0.234375 0.3125 -0.546875 0.46875q-0.3125 0.171875 -0.765625 0.171875q-0.328125 0 -0.734375 -0.125l0 -0.515625q0.328125 0.09375 0.71875 0.09375q0.3125 0 0.53125 -0.140625q0.234375 -0.140625 0.40625 -0.4375q0.1875 -0.28125 0.4375 -0.9375q0.25 -0.640625 0.3125 -0.828125l-2.4375 -6.375zm12.234375 6.5q-1.359375 0 -2.140625 -0.859375q-0.765625 -0.875 -0.765625 -2.40625q0 -1.59375 0.796875 -2.46875q0.796875 -0.890625 2.203125 -0.890625q0.828125 0 1.578125 0.296875l-0.15625 0.515625q-0.828125 -0.28125 -1.4375 -0.28125q-1.171875 0 -1.78125 0.734375q-0.59375 0.71875 -0.59375 2.078125q0 1.28125 0.59375 2.015625q0.609375 0.734375 1.6875 0.734375q0.875 0 1.609375 -0.3125l0 0.53125q-0.609375 0.3125 -1.59375 0.3125zm8.419922 -3.3125q0 1.546875 -0.75 2.4375q-0.75 0.875 -2.078125 0.875q-0.84375 0 -1.484375 -0.40625q-0.640625 -0.40625 -0.984375 -1.15625q-0.328125 -0.765625 -0.328125 -1.75q0 -1.5625 0.75 -2.4375q0.75 -0.875 2.078125 -0.875q1.3125 0 2.046875 0.890625q0.75 0.875 0.75 2.421875zm-5.015625 0q0 1.3125 0.578125 2.046875q0.578125 0.734375 1.625 0.734375q1.0625 0 1.625 -0.734375q0.578125 -0.734375 0.578125 -2.046875q0 -1.328125 -0.578125 -2.046875q-0.578125 -0.734375 -1.640625 -0.734375q-1.046875 0 -1.625 0.734375q-0.5625 0.71875 -0.5625 2.046875zm9.125 -3.3125q0.6875 0 1.1875 0.265625q0.5 0.25 0.90625 0.859375l0.03125 0q-0.03125 -0.75 -0.03125 -1.453125l0 -2.296875l0.578125 0l0 9.125l-0.390625 0l-0.140625 -0.96875l-0.046875 0q-0.734375 1.09375 -2.09375 1.09375q-1.3125 0 -2.015625 -0.828125q-0.6875 -0.828125 -0.6875 -2.390625q0 -1.65625 0.6875 -2.53125q0.6875 -0.875 2.015625 -0.875zm0 0.53125q-1.046875 0 -1.578125 0.734375q-0.515625 0.734375 -0.515625 2.125q0 2.703125 2.09375 2.703125q1.078125 0 1.578125 -0.625q0.515625 -0.625 0.515625 -2.0625l0 -0.09375q0 -1.484375 -0.5 -2.125q-0.5 -0.65625 -1.59375 -0.65625zm7.376953 6.09375q-1.390625 0 -2.171875 -0.859375q-0.765625 -0.859375 -0.765625 -2.40625q0 -1.515625 0.75 -2.4375q0.75 -0.921875 2.015625 -0.921875q1.125 0 1.765625 0.796875q0.65625 0.78125 0.65625 2.125l0 0.46875l-4.578125 0q0 1.3125 0.59375 2.015625q0.609375 0.6875 1.734375 0.6875q0.546875 0 0.953125 -0.078125q0.421875 -0.078125 1.046875 -0.328125l0 0.53125q-0.53125 0.234375 -1.0 0.3125q-0.453125 0.09375 -1.0 0.09375zm-0.171875 -6.109375q-0.921875 0 -1.484375 0.609375q-0.546875 0.609375 -0.640625 1.75l3.9375 0q0 -1.109375 -0.484375 -1.734375q-0.484375 -0.625 -1.328125 -0.625zm9.84375 6.109375q-1.359375 0 -2.140625 -0.859375q-0.765625 -0.875 -0.765625 -2.40625q0 -1.59375 0.796875 -2.46875q0.796875 -0.890625 2.203125 -0.890625q0.828125 0 1.578125 0.296875l-0.15625 0.515625q-0.828125 -0.28125 -1.4375 -0.28125q-1.171875 0 -1.78125 0.734375q-0.59375 0.71875 -0.59375 2.078125q0 1.28125 0.59375 2.015625q0.609375 0.734375 1.6875 0.734375q0.875 0 1.609375 -0.3125l0 0.53125q-0.609375 0.3125 -1.59375 0.3125zm8.419922 -3.3125q0 1.546875 -0.75 2.4375q-0.75 0.875 -2.078125 0.875q-0.84375 0 -1.484375 -0.40625q-0.640625 -0.40625 -0.984375 -1.15625q-0.328125 -0.765625 -0.328125 -1.75q0 -1.5625 0.75 -2.4375q0.75 -0.875 2.078125 -0.875q1.3125 0 2.046875 0.890625q0.75 0.875 0.75 2.421875zm-5.015625 0q0 1.3125 0.578125 2.046875q0.578125 0.734375 1.625 0.734375q1.0625 0 1.625 -0.734375q0.578125 -0.734375 0.578125 -2.046875q0 -1.328125 -0.578125 -2.046875q-0.578125 -0.734375 -1.640625 -0.734375q-1.046875 0 -1.625 0.734375q-0.5625 0.71875 -0.5625 2.046875zm14.75 3.1875l0 -4.171875q0 -0.9375 -0.375 -1.359375q-0.359375 -0.4375 -1.109375 -0.4375q-0.984375 0 -1.453125 0.546875q-0.46875 0.53125 -0.46875 1.6875l0 3.734375l-0.578125 0l0 -4.359375q0 -1.609375 -1.484375 -1.609375q-1.0 0 -1.46875 0.59375q-0.453125 0.578125 -0.453125 1.859375l0 3.515625l-0.578125 0l0 -6.375l0.484375 0l0.125 0.875l0.03125 0q0.265625 -0.46875 0.75 -0.734375q0.484375 -0.265625 1.078125 -0.265625q1.5 0 1.9375 1.140625l0.015625 0q0.3125 -0.546875 0.828125 -0.84375q0.53125 -0.296875 1.203125 -0.296875q1.046875 0 1.5625 0.5625q0.515625 0.5625 0.515625 1.765625l0 4.171875l-0.5625 0zm5.203125 0.125q-1.390625 0 -2.171875 -0.859375q-0.765625 -0.859375 -0.765625 -2.40625q0 -1.515625 0.75 -2.4375q0.75 -0.921875 2.015625 -0.921875q1.125 0 1.765625 0.796875q0.65625 0.78125 0.65625 2.125l0 0.46875l-4.578125 0q0 1.3125 0.59375 2.015625q0.609375 0.6875 1.734375 0.6875q0.546875 0 0.953125 -0.078125q0.421875 -0.078125 1.046875 -0.328125l0 0.53125q-0.53125 0.234375 -1.0 0.3125q-0.453125 0.09375 -1.0 0.09375zm-0.171875 -6.109375q-0.921875 0 -1.484375 0.609375q-0.546875 0.609375 -0.640625 1.75l3.9375 0q0 -1.109375 -0.484375 -1.734375q-0.484375 -0.625 -1.328125 -0.625zm8.1328125 4.328125q0 0.859375 -0.65625 1.328125q-0.640625 0.453125 -1.84375 0.453125q-1.265625 0 -2.015625 -0.40625l0 -0.625q0.953125 0.484375 2.015625 0.484375q0.953125 0 1.4375 -0.3125q0.484375 -0.3125 0.484375 -0.84375q0 -0.46875 -0.390625 -0.796875q-0.390625 -0.328125 -1.28125 -0.65625q-0.953125 -0.34375 -1.34375 -0.59375q-0.375 -0.25 -0.578125 -0.5625q-0.1875 -0.3125 -0.1875 -0.765625q0 -0.703125 0.59375 -1.125q0.609375 -0.421875 1.6875 -0.421875q1.03125 0 1.953125 0.390625l-0.21875 0.53125q-0.9375 -0.390625 -1.734375 -0.390625q-0.78125 0 -1.25 0.265625q-0.453125 0.25 -0.453125 0.703125q0 0.5 0.359375 0.8125q0.359375 0.296875 1.390625 0.65625q0.859375 0.3125 1.25 0.5625q0.390625 0.25 0.578125 0.5625q0.203125 0.3125 0.203125 0.75zm9.847656 1.65625l-1.390625 -4.265625q-0.140625 -0.421875 -0.34375 -1.265625l-0.03125 0l-0.125 0.4375l-0.265625 0.84375l-1.421875 4.25l-0.578125 0l-1.8125 -6.375l0.609375 0l1.03125 3.703125q0.359375 1.359375 0.46875 2.015625l0.03125 0q0.34375 -1.375 0.5 -1.828125l1.3125 -3.890625l0.53125 0l1.25 3.875q0.421875 1.375 0.515625 1.828125l0.03125 0q0.046875 -0.390625 0.46875 -2.046875l0.96875 -3.65625l0.59375 0l-1.734375 6.375l-0.609375 0zm4.1621094 0l-0.578125 0l0 -6.375l0.578125 0l0 6.375zm-0.65625 -8.140625q0 -0.5625 0.375 -0.5625q0.171875 0 0.265625 0.15625q0.109375 0.140625 0.109375 0.40625q0 0.265625 -0.109375 0.421875q-0.09375 0.140625 -0.265625 0.140625q-0.375 0 -0.375 -0.5625zm4.4785156 7.734375q0.546875 0 0.953125 -0.09375l0 0.46875q-0.421875 0.15625 -0.96875 0.15625q-0.84375 0 -1.25 -0.453125q-0.390625 -0.453125 -0.390625 -1.421875l0 -4.109375l-0.953125 0l0 -0.34375l0.953125 -0.265625l0.296875 -1.4375l0.296875 0l0 1.53125l1.859375 0l0 0.515625l-1.859375 0l0 4.03125q0 0.71875 0.25 1.078125q0.265625 0.34375 0.8125 0.34375zm6.7851562 0.40625l0 -4.125q0 -0.96875 -0.40625 -1.40625q-0.40625 -0.4375 -1.265625 -0.4375q-1.140625 0 -1.671875 0.578125q-0.53125 0.578125 -0.53125 1.875l0 3.515625l-0.578125 0l0 -9.125l0.578125 0l0 2.90625l-0.015625 0.8125l0.03125 0q0.359375 -0.578125 0.90625 -0.828125q0.546875 -0.265625 1.359375 -0.265625q2.15625 0 2.15625 2.328125l0 4.171875l-0.5625 0zm6.3203125 0l-0.578125 0l0 -9.125l0.578125 0l0 9.125zm2.7128906 0l-0.578125 0l0 -6.375l0.578125 0l0 6.375zm-0.65625 -8.140625q0 -0.5625 0.375 -0.5625q0.171875 0 0.265625 0.15625q0.109375 0.140625 0.109375 0.40625q0 0.265625 -0.109375 0.421875q-0.09375 0.140625 -0.265625 0.140625q-0.375 0 -0.375 -0.5625zm5.1660156 2.28125l-1.5 0l0 5.859375l-0.578125 0l0 -5.859375l-1.1875 0l0 -0.34375l1.1875 -0.21875l0 -0.5q0 -1.171875 0.421875 -1.71875q0.4375 -0.546875 1.40625 -0.546875q0.53125 0 1.0625 0.15625l-0.140625 0.515625q-0.46875 -0.15625 -0.921875 -0.15625q-0.6875 0 -0.96875 0.40625q-0.28125 0.40625 -0.28125 1.296875l0 0.59375l1.5 0l0 0.515625zm3.8007812 5.984375q-1.390625 0 -2.171875 -0.859375q-0.765625 -0.859375 -0.765625 -2.40625q0 -1.515625 0.75 -2.4375q0.75 -0.921875 2.015625 -0.921875q1.125 0 1.765625 0.796875q0.65625 0.78125 0.65625 2.125l0 0.46875l-4.578125 0q0 1.3125 0.59375 2.015625q0.609375 0.6875 1.734375 0.6875q0.546875 0 0.953125 -0.078125q0.421875 -0.078125 1.046875 -0.328125l0 0.53125q-0.53125 0.234375 -1.0 0.3125q-0.453125 0.09375 -1.0 0.09375zm-0.171875 -6.109375q-0.921875 0 -1.484375 0.609375q-0.546875 0.609375 -0.640625 1.75l3.9375 0q0 -1.109375 -0.484375 -1.734375q-0.484375 -0.625 -1.328125 -0.625zm5.8671875 5.578125q0.546875 0 0.953125 -0.09375l0 0.46875q-0.421875 0.15625 -0.96875 0.15625q-0.84375 0 -1.25 -0.453125q-0.390625 -0.453125 -0.390625 -1.421875l0 -4.109375l-0.953125 0l0 -0.34375l0.953125 -0.265625l0.296875 -1.4375l0.296875 0l0 1.53125l1.859375 0l0 0.515625l-1.859375 0l0 4.03125q0 0.71875 0.25 1.078125q0.265625 0.34375 0.8125 0.34375zm2.9101562 0.40625l-0.578125 0l0 -6.375l0.578125 0l0 6.375zm-0.65625 -8.140625q0 -0.5625 0.375 -0.5625q0.171875 0 0.265625 0.15625q0.109375 0.140625 0.109375 0.40625q0 0.265625 -0.109375 0.421875q-0.09375 0.140625 -0.265625 0.140625q-0.375 0 -0.375 -0.5625zm10.759766 8.140625l0 -4.171875q0 -0.9375 -0.375 -1.359375q-0.359375 -0.4375 -1.109375 -0.4375q-0.984375 0 -1.453125 0.546875q-0.46875 0.53125 -0.46875 1.6875l0 3.734375l-0.578125 0l0 -4.359375q0 -1.609375 -1.484375 -1.609375q-1.0 0 -1.46875 0.59375q-0.453125 0.578125 -0.453125 1.859375l0 3.515625l-0.578125 0l0 -6.375l0.484375 0l0.125 0.875l0.03125 0q0.265625 -0.46875 0.75 -0.734375q0.484375 -0.265625 1.078125 -0.265625q1.5 0 1.9375 1.140625l0.015625 0q0.3125 -0.546875 0.828125 -0.84375q0.53125 -0.296875 1.203125 -0.296875q1.046875 0 1.5625 0.5625q0.515625 0.5625 0.515625 1.765625l0 4.171875l-0.5625 0zm5.203125 0.125q-1.390625 0 -2.171875 -0.859375q-0.765625 -0.859375 -0.765625 -2.40625q0 -1.515625 0.75 -2.4375q0.75 -0.921875 2.015625 -0.921875q1.125 0 1.765625 0.796875q0.65625 0.78125 0.65625 2.125l0 0.46875l-4.578125 0q0 1.3125 0.59375 2.015625q0.609375 0.6875 1.734375 0.6875q0.546875 0 0.953125 -0.078125q0.421875 -0.078125 1.046875 -0.328125l0 0.53125q-0.53125 0.234375 -1.0 0.3125q-0.453125 0.09375 -1.0 0.09375zm-0.171875 -6.109375q-0.921875 0 -1.484375 0.609375q-0.546875 0.609375 -0.640625 1.75l3.9375 0q0 -1.109375 -0.484375 -1.734375q-0.484375 -0.625 -1.328125 -0.625zm12.390625 5.984375l-1.390625 -4.265625q-0.140625 -0.421875 -0.34375 -1.265625l-0.03125 0l-0.125 0.4375l-0.265625 0.84375l-1.421875 4.25l-0.578125 0l-1.8125 -6.375l0.609375 0l1.03125 3.703125q0.359375 1.359375 0.46875 2.015625l0.03125 0q0.34375 -1.375 0.5 -1.828125l1.3125 -3.890625l0.53125 0l1.25 3.875q0.421875 1.375 0.515625 1.828125l0.03125 0q0.046875 -0.390625 0.46875 -2.046875l0.96875 -3.65625l0.59375 0l-1.734375 6.375l-0.609375 0zm7.4589844 0l-0.15625 -1.015625l-0.046875 0q-0.46875 0.625 -0.984375 0.890625q-0.5 0.25 -1.1875 0.25q-0.9375 0 -1.46875 -0.484375q-0.515625 -0.484375 -0.515625 -1.328125q0 -0.9375 0.765625 -1.453125q0.78125 -0.515625 2.25 -0.546875l1.21875 -0.03125l0 -0.421875q0 -0.90625 -0.375 -1.375q-0.359375 -0.46875 -1.1875 -0.46875q-0.875 0 -1.828125 0.5l-0.21875 -0.5q1.046875 -0.5 2.078125 -0.5q1.046875 0 1.5625 0.546875q0.515625 0.546875 0.515625 1.703125l0 4.234375l-0.421875 0zm-2.34375 -0.40625q1.015625 0 1.59375 -0.578125q0.59375 -0.59375 0.59375 -1.625l0 -0.625l-1.109375 0.046875q-1.34375 0.0625 -1.921875 0.421875q-0.5625 0.34375 -0.5625 1.09375q0 0.59375 0.359375 0.9375q0.375 0.328125 1.046875 0.328125zm7.341797 -6.09375q0.40625 0 0.859375 0.09375l-0.109375 0.546875q-0.390625 -0.09375 -0.828125 -0.09375q-0.8125 0 -1.34375 0.6875q-0.515625 0.6875 -0.515625 1.75l0 3.515625l-0.578125 0l0 -6.375l0.5 0l0.0625 1.15625l0.03125 0q0.390625 -0.703125 0.828125 -0.984375q0.453125 -0.296875 1.09375 -0.296875zm4.669922 0q0.40625 0 0.859375 0.09375l-0.109375 0.546875q-0.390625 -0.09375 -0.828125 -0.09375q-0.8125 0 -1.34375 0.6875q-0.515625 0.6875 -0.515625 1.75l0 3.515625l-0.578125 0l0 -6.375l0.5 0l0.0625 1.15625l0.03125 0q0.390625 -0.703125 0.828125 -0.984375q0.453125 -0.296875 1.09375 -0.296875zm6.029297 6.5l-0.15625 -1.015625l-0.046875 0q-0.46875 0.625 -0.984375 0.890625q-0.5 0.25 -1.1875 0.25q-0.9375 0 -1.46875 -0.484375q-0.515625 -0.484375 -0.515625 -1.328125q0 -0.9375 0.765625 -1.453125q0.78125 -0.515625 2.25 -0.546875l1.21875 -0.03125l0 -0.421875q0 -0.90625 -0.375 -1.375q-0.359375 -0.46875 -1.1875 -0.46875q-0.875 0 -1.828125 0.5l-0.21875 -0.5q1.046875 -0.5 2.078125 -0.5q1.046875 0 1.5625 0.546875q0.515625 0.546875 0.515625 1.703125l0 4.234375l-0.421875 0zm-2.34375 -0.40625q1.015625 0 1.59375 -0.578125q0.59375 -0.59375 0.59375 -1.625l0 -0.625l-1.109375 0.046875q-1.34375 0.0625 -1.921875 0.421875q-0.5625 0.34375 -0.5625 1.09375q0 0.59375 0.359375 0.9375q0.375 0.328125 1.046875 0.328125zm9.279297 0.40625l0 -4.125q0 -0.96875 -0.40625 -1.40625q-0.40625 -0.4375 -1.265625 -0.4375q-1.140625 0 -1.671875 0.578125q-0.53125 0.578125 -0.53125 1.875l0 3.515625l-0.578125 0l0 -6.375l0.5 0l0.109375 0.875l0.03125 0q0.625 -1.0 2.21875 -1.0q2.15625 0 2.15625 2.328125l0 4.171875l-0.5625 0zm4.3125 -0.40625q0.546875 0 0.953125 -0.09375l0 0.46875q-0.421875 0.15625 -0.96875 0.15625q-0.84375 0 -1.25 -0.453125q-0.390625 -0.453125 -0.390625 -1.421875l0 -4.109375l-0.953125 0l0 -0.34375l0.953125 -0.265625l0.296875 -1.4375l0.296875 0l0 1.53125l1.859375 0l0 0.515625l-1.859375 0l0 4.03125q0 0.71875 0.25 1.078125q0.265625 0.34375 0.8125 0.34375zm1.2695312 -5.96875l0.59375 0l1.359375 3.578125q0.609375 1.640625 0.765625 2.21875l0.046875 0q0.234375 -0.75 0.796875 -2.25l1.34375 -3.546875l0.609375 0l-2.859375 7.40625q-0.34375 0.90625 -0.578125 1.21875q-0.234375 0.3125 -0.546875 0.46875q-0.3125 0.171875 -0.765625 0.171875q-0.328125 0 -0.734375 -0.125l0 -0.515625q0.328125 0.09375 0.71875 0.09375q0.3125 0 0.53125 -0.140625q0.234375 -0.140625 0.40625 -0.4375q0.1875 -0.28125 0.4375 -0.9375q0.25 -0.640625 0.3125 -0.828125l-2.4375 -6.375zm6.4609375 5.921875q0 -0.578125 0.46875 -0.578125q0.484375 0 0.484375 0.578125q0 0.578125 -0.484375 0.578125q-0.46875 0 -0.46875 -0.578125z" fill-rule="nonzero"/><path fill="#000000" d="m215.14264 103.173676l0 -8.5625l0.59375 0l0 8.5625l-0.59375 0zm9.859375 0l-0.15625 -1.015625l-0.046875 0q-0.46875 0.625 -0.984375 0.890625q-0.5 0.25 -1.1875 0.25q-0.9375 0 -1.46875 -0.484375q-0.515625 -0.484375 -0.515625 -1.328125q0 -0.9375 0.765625 -1.453125q0.78125 -0.515625 2.25 -0.546875l1.21875 -0.03125l0 -0.421875q0 -0.90625 -0.375 -1.375q-0.359375 -0.46875 -1.1875 -0.46875q-0.875 0 -1.828125 0.5l-0.21875 -0.5q1.046875 -0.5 2.078125 -0.5q1.046875 0 1.5625 0.546875q0.515625 0.546875 0.515625 1.703125l0 4.234375l-0.421875 0zm-2.34375 -0.40625q1.015625 0 1.59375 -0.578125q0.59375 -0.59375 0.59375 -1.625l0 -0.625l-1.109375 0.046875q-1.34375 0.0625 -1.921875 0.421875q-0.5625 0.34375 -0.5625 1.09375q0 0.59375 0.359375 0.9375q0.375 0.328125 1.046875 0.328125zm12.794922 0.40625l0 -4.171875q0 -0.9375 -0.375 -1.359375q-0.359375 -0.4375 -1.109375 -0.4375q-0.984375 0 -1.453125 0.546875q-0.46875 0.53125 -0.46875 1.6875l0 3.734375l-0.578125 0l0 -4.359375q0 -1.609375 -1.484375 -1.609375q-1.0 0 -1.46875 0.59375q-0.453125 0.578125 -0.453125 1.859375l0 3.515625l-0.578125 0l0 -6.375l0.484375 0l0.125 0.875l0.03125 0q0.265625 -0.46875 0.75 -0.734375q0.484375 -0.265625 1.078125 -0.265625q1.5 0 1.9375 1.140625l0.015625 0q0.3125 -0.546875 0.828125 -0.84375q0.53125 -0.296875 1.203125 -0.296875q1.046875 0 1.5625 0.5625q0.515625 0.5625 0.515625 1.765625l0 4.171875l-0.5625 0zm8.2578125 -6.5q0.40625 0 0.859375 0.09375l-0.109375 0.546875q-0.390625 -0.09375 -0.828125 -0.09375q-0.8125 0 -1.34375 0.6875q-0.515625 0.6875 -0.515625 1.75l0 3.515625l-0.578125 0l0 -6.375l0.5 0l0.0625 1.15625l0.03125 0q0.390625 -0.703125 0.828125 -0.984375q0.453125 -0.296875 1.09375 -0.296875zm4.732422 6.625q-1.390625 0 -2.171875 -0.859375q-0.765625 -0.859375 -0.765625 -2.40625q0 -1.515625 0.75 -2.4375q0.75 -0.921875 2.015625 -0.921875q1.125 0 1.765625 0.796875q0.65625 0.78125 0.65625 2.125l0 0.46875l-4.578125 0q0 1.3125 0.59375 2.015625q0.609375 0.6875 1.734375 0.6875q0.546875 0 0.953125 -0.078125q0.421875 -0.078125 1.046875 -0.328125l0 0.53125q-0.53125 0.234375 -1.0 0.3125q-0.453125 0.09375 -1.0 0.09375zm-0.171875 -6.109375q-0.921875 0 -1.484375 0.609375q-0.546875 0.609375 -0.640625 1.75l3.9375 0q0 -1.109375 -0.484375 -1.734375q-0.484375 -0.625 -1.328125 -0.625zm8.0546875 5.984375l-0.15625 -1.015625l-0.046875 0q-0.46875 0.625 -0.984375 0.890625q-0.5 0.25 -1.1875 0.25q-0.9375 0 -1.46875 -0.484375q-0.515625 -0.484375 -0.515625 -1.328125q0 -0.9375 0.765625 -1.453125q0.78125 -0.515625 2.25 -0.546875l1.21875 -0.03125l0 -0.421875q0 -0.90625 -0.375 -1.375q-0.359375 -0.46875 -1.1875 -0.46875q-0.875 0 -1.828125 0.5l-0.21875 -0.5q1.046875 -0.5 2.078125 -0.5q1.046875 0 1.5625 0.546875q0.515625 0.546875 0.515625 1.703125l0 4.234375l-0.421875 0zm-2.34375 -0.40625q1.015625 0 1.59375 -0.578125q0.59375 -0.59375 0.59375 -1.625l0 -0.625l-1.109375 0.046875q-1.34375 0.0625 -1.921875 0.421875q-0.5625 0.34375 -0.5625 1.09375q0 0.59375 0.359375 0.9375q0.375 0.328125 1.046875 0.328125zm7.169922 -6.09375q0.6875 0 1.1875 0.265625q0.5 0.25 0.90625 0.859375l0.03125 0q-0.03125 -0.75 -0.03125 -1.453125l0 -2.296875l0.578125 0l0 9.125l-0.390625 0l-0.140625 -0.96875l-0.046875 0q-0.734375 1.09375 -2.09375 1.09375q-1.3125 0 -2.015625 -0.828125q-0.6875 -0.828125 -0.6875 -2.390625q0 -1.65625 0.6875 -2.53125q0.6875 -0.875 2.015625 -0.875zm0 0.53125q-1.046875 0 -1.578125 0.734375q-0.515625 0.734375 -0.515625 2.125q0 2.703125 2.09375 2.703125q1.078125 0 1.578125 -0.625q0.515625 -0.625 0.515625 -2.0625l0 -0.09375q0 -1.484375 -0.5 -2.125q-0.5 -0.65625 -1.59375 -0.65625zm3.7363281 -0.40625l0.59375 0l1.359375 3.578125q0.609375 1.640625 0.765625 2.21875l0.046875 0q0.234375 -0.75 0.796875 -2.25l1.34375 -3.546875l0.609375 0l-2.859375 7.40625q-0.34375 0.90625 -0.578125 1.21875q-0.234375 0.3125 -0.546875 0.46875q-0.3125 0.171875 -0.765625 0.171875q-0.328125 0 -0.734375 -0.125l0 -0.515625q0.328125 0.09375 0.71875 0.09375q0.3125 0 0.53125 -0.140625q0.234375 -0.140625 0.40625 -0.4375q0.1875 -0.28125 0.4375 -0.9375q0.25 -0.640625 0.3125 -0.828125l-2.4375 -6.375zm11.375 5.96875q0.546875 0 0.953125 -0.09375l0 0.46875q-0.421875 0.15625 -0.96875 0.15625q-0.84375 0 -1.25 -0.453125q-0.390625 -0.453125 -0.390625 -1.421875l0 -4.109375l-0.953125 0l0 -0.34375l0.953125 -0.265625l0.296875 -1.4375l0.296875 0l0 1.53125l1.859375 0l0 0.515625l-1.859375 0l0 4.03125q0 0.71875 0.25 1.078125q0.265625 0.34375 0.8125 0.34375zm7.5976562 -2.78125q0 1.546875 -0.75 2.4375q-0.75 0.875 -2.078125 0.875q-0.84375 0 -1.484375 -0.40625q-0.640625 -0.40625 -0.984375 -1.15625q-0.328125 -0.765625 -0.328125 -1.75q0 -1.5625 0.75 -2.4375q0.75 -0.875 2.078125 -0.875q1.3125 0 2.046875 0.890625q0.75 0.875 0.75 2.421875zm-5.015625 0q0 1.3125 0.578125 2.046875q0.578125 0.734375 1.625 0.734375q1.0625 0 1.625 -0.734375q0.578125 -0.734375 0.578125 -2.046875q0 -1.328125 -0.578125 -2.046875q-0.578125 -0.734375 -1.640625 -0.734375q-1.046875 0 -1.625 0.734375q-0.5625 0.71875 -0.5625 2.046875zm13.7734375 3.1875l-0.15625 -1.015625l-0.046875 0q-0.46875 0.625 -0.984375 0.890625q-0.5 0.25 -1.1875 0.25q-0.9375 0 -1.46875 -0.484375q-0.515625 -0.484375 -0.515625 -1.328125q0 -0.9375 0.765625 -1.453125q0.78125 -0.515625 2.25 -0.546875l1.21875 -0.03125l0 -0.421875q0 -0.90625 -0.375 -1.375q-0.359375 -0.46875 -1.1875 -0.46875q-0.875 0 -1.828125 0.5l-0.21875 -0.5q1.046875 -0.5 2.078125 -0.5q1.046875 0 1.5625 0.546875q0.515625 0.546875 0.515625 1.703125l0 4.234375l-0.421875 0zm-2.34375 -0.40625q1.015625 0 1.59375 -0.578125q0.59375 -0.59375 0.59375 -1.625l0 -0.625l-1.109375 0.046875q-1.34375 0.0625 -1.921875 0.421875q-0.5625 0.34375 -0.5625 1.09375q0 0.59375 0.359375 0.9375q0.375 0.328125 1.046875 0.328125zm7.169922 -6.09375q0.6875 0 1.1875 0.265625q0.5 0.25 0.90625 0.859375l0.03125 0q-0.03125 -0.75 -0.03125 -1.453125l0 -2.296875l0.578125 0l0 9.125l-0.390625 0l-0.140625 -0.96875l-0.046875 0q-0.734375 1.09375 -2.09375 1.09375q-1.3125 0 -2.015625 -0.828125q-0.6875 -0.828125 -0.6875 -2.390625q0 -1.65625 0.6875 -2.53125q0.6875 -0.875 2.015625 -0.875zm0 0.53125q-1.046875 0 -1.578125 0.734375q-0.515625 0.734375 -0.515625 2.125q0 2.703125 2.09375 2.703125q1.078125 0 1.578125 -0.625q0.515625 -0.625 0.515625 -2.0625l0 -0.09375q0 -1.484375 -0.5 -2.125q-0.5 -0.65625 -1.59375 -0.65625zm8.673828 5.96875l-0.15625 -1.015625l-0.046875 0q-0.46875 0.625 -0.984375 0.890625q-0.5 0.25 -1.1875 0.25q-0.9375 0 -1.46875 -0.484375q-0.515625 -0.484375 -0.515625 -1.328125q0 -0.9375 0.765625 -1.453125q0.78125 -0.515625 2.25 -0.546875l1.21875 -0.03125l0 -0.421875q0 -0.90625 -0.375 -1.375q-0.359375 -0.46875 -1.1875 -0.46875q-0.875 0 -1.828125 0.5l-0.21875 -0.5q1.046875 -0.5 2.078125 -0.5q1.046875 0 1.5625 0.546875q0.515625 0.546875 0.515625 1.703125l0 4.234375l-0.421875 0zm-2.34375 -0.40625q1.015625 0 1.59375 -0.578125q0.59375 -0.59375 0.59375 -1.625l0 -0.625l-1.109375 0.046875q-1.34375 0.0625 -1.921875 0.421875q-0.5625 0.34375 -0.5625 1.09375q0 0.59375 0.359375 0.9375q0.375 0.328125 1.046875 0.328125zm7.560547 0.53125q-1.46875 0 -2.15625 -1.109375l-0.03125 0l0.015625 0.484375q0.015625 0.4375 0.015625 0.953125l0 2.4375l-0.578125 0l0 -9.265625l0.5 0l0.109375 0.90625l0.03125 0q0.65625 -1.03125 2.09375 -1.03125q1.296875 0 1.96875 0.859375q0.6875 0.84375 0.6875 2.453125q0 1.578125 -0.71875 2.453125q-0.71875 0.859375 -1.9375 0.859375zm-0.015625 -0.53125q0.984375 0 1.515625 -0.71875q0.53125 -0.734375 0.53125 -2.03125q0 -2.8125 -2.03125 -2.8125q-1.109375 0 -1.640625 0.625q-0.515625 0.609375 -0.515625 1.984375l0 0.1875q0 1.5 0.5 2.140625q0.515625 0.625 1.640625 0.625zm6.111328 0q0.546875 0 0.953125 -0.09375l0 0.46875q-0.421875 0.15625 -0.96875 0.15625q-0.84375 0 -1.25 -0.453125q-0.390625 -0.453125 -0.390625 -1.421875l0 -4.109375l-0.953125 0l0 -0.34375l0.953125 -0.265625l0.296875 -1.4375l0.296875 0l0 1.53125l1.859375 0l0 0.515625l-1.859375 0l0 4.03125q0 0.71875 0.25 1.078125q0.265625 0.34375 0.8125 0.34375zm10.417969 0.40625l-5.375 0l0 -0.515625l2.28125 -2.375q0.96875 -1.0 1.34375 -1.53125q0.390625 -0.53125 0.578125 -1.0q0.1875 -0.484375 0.1875 -1.015625q0 -0.765625 -0.515625 -1.234375q-0.5 -0.484375 -1.296875 -0.484375q-1.078125 0 -2.0625 0.765625l-0.3125 -0.390625q1.078125 -0.90625 2.375 -0.90625q1.125 0 1.765625 0.59375q0.640625 0.59375 0.640625 1.640625q0 0.859375 -0.4375 1.65625q-0.421875 0.78125 -1.5625 1.953125l-2.203125 2.25l0 0.03125l4.59375 0l0 0.5625zm7.5058594 -2.1875l-1.484375 0l0 2.1875l-0.546875 0l0 -2.1875l-4.40625 0l0 -0.390625l4.25 -6.03125l0.703125 0l0 5.921875l1.484375 0l0 0.5zm-2.03125 -0.5l0 -2.453125q0 -1.765625 0.078125 -2.96875l-0.046875 0q-0.109375 0.21875 -0.71875 1.09375l-3.015625 4.328125l3.703125 0zm6.1464844 -5.875l-3.203125 8.5625l-0.609375 0l3.1875 -8.5625l0.625 0zm2.0898438 8.5625l3.53125 -8.0l-4.84375 0l0 -0.5625l5.546875 0l0 0.421875l-3.546875 8.140625l-0.6875 0zm12.951172 0l-0.15625 -1.015625l-0.046875 0q-0.46875 0.625 -0.984375 0.890625q-0.5 0.25 -1.1875 0.25q-0.9375 0 -1.46875 -0.484375q-0.515625 -0.484375 -0.515625 -1.328125q0 -0.9375 0.765625 -1.453125q0.78125 -0.515625 2.25 -0.546875l1.21875 -0.03125l0 -0.421875q0 -0.90625 -0.375 -1.375q-0.359375 -0.46875 -1.1875 -0.46875q-0.875 0 -1.828125 0.5l-0.21875 -0.5q1.046875 -0.5 2.078125 -0.5q1.046875 0 1.5625 0.546875q0.515625 0.546875 0.515625 1.703125l0 4.234375l-0.421875 0zm-2.34375 -0.40625q1.015625 0 1.59375 -0.578125q0.59375 -0.59375 0.59375 -1.625l0 -0.625l-1.109375 0.046875q-1.34375 0.0625 -1.921875 0.421875q-0.5625 0.34375 -0.5625 1.09375q0 0.59375 0.359375 0.9375q0.375 0.328125 1.046875 0.328125zm9.279297 0.40625l0 -4.125q0 -0.96875 -0.40625 -1.40625q-0.40625 -0.4375 -1.265625 -0.4375q-1.140625 0 -1.671875 0.578125q-0.53125 0.578125 -0.53125 1.875l0 3.515625l-0.578125 0l0 -6.375l0.5 0l0.109375 0.875l0.03125 0q0.625 -1.0 2.21875 -1.0q2.15625 0 2.15625 2.328125l0 4.171875l-0.5625 0zm4.96875 -6.5q0.6875 0 1.1875 0.265625q0.5 0.25 0.90625 0.859375l0.03125 0q-0.03125 -0.75 -0.03125 -1.453125l0 -2.296875l0.578125 0l0 9.125l-0.390625 0l-0.140625 -0.96875l-0.046875 0q-0.734375 1.09375 -2.09375 1.09375q-1.3125 0 -2.015625 -0.828125q-0.6875 -0.828125 -0.6875 -2.390625q0 -1.65625 0.6875 -2.53125q0.6875 -0.875 2.015625 -0.875zm0 0.53125q-1.046875 0 -1.578125 0.734375q-0.515625 0.734375 -0.515625 2.125q0 2.703125 2.09375 2.703125q1.078125 0 1.578125 -0.625q0.515625 -0.625 0.515625 -2.0625l0 -0.09375q0 -1.484375 -0.5 -2.125q-0.5 -0.65625 -1.59375 -0.65625zm8.494141 3.171875l3.25 -3.578125l0.703125 0l-2.515625 2.71875l2.734375 3.65625l-0.703125 0l-2.421875 -3.21875l-1.046875 0.953125l0 2.265625l-0.578125 0l0 -9.125l0.578125 0l0 4.578125l-0.03125 1.75l0.03125 0zm9.681641 2.796875l0 -4.125q0 -0.96875 -0.40625 -1.40625q-0.40625 -0.4375 -1.265625 -0.4375q-1.140625 0 -1.671875 0.578125q-0.53125 0.578125 -0.53125 1.875l0 3.515625l-0.578125 0l0 -6.375l0.5 0l0.109375 0.875l0.03125 0q0.625 -1.0 2.21875 -1.0q2.15625 0 2.15625 2.328125l0 4.171875l-0.5625 0zm7.890625 -3.1875q0 1.546875 -0.75 2.4375q-0.75 0.875 -2.078125 0.875q-0.84375 0 -1.484375 -0.40625q-0.640625 -0.40625 -0.984375 -1.15625q-0.328125 -0.765625 -0.328125 -1.75q0 -1.5625 0.75 -2.4375q0.75 -0.875 2.078125 -0.875q1.3125 0 2.046875 0.890625q0.75 0.875 0.75 2.421875zm-5.015625 0q0 1.3125 0.578125 2.046875q0.578125 0.734375 1.625 0.734375q1.0625 0 1.625 -0.734375q0.578125 -0.734375 0.578125 -2.046875q0 -1.328125 -0.578125 -2.046875q-0.578125 -0.734375 -1.640625 -0.734375q-1.046875 0 -1.625 0.734375q-0.5625 0.71875 -0.5625 2.046875zm11.875 3.1875l-1.390625 -4.265625q-0.140625 -0.421875 -0.34375 -1.265625l-0.03125 0l-0.125 0.4375l-0.265625 0.84375l-1.421875 4.25l-0.578125 0l-1.8125 -6.375l0.609375 0l1.03125 3.703125q0.359375 1.359375 0.46875 2.015625l0.03125 0q0.34375 -1.375 0.5 -1.828125l1.3125 -3.890625l0.53125 0l1.25 3.875q0.421875 1.375 0.515625 1.828125l0.03125 0q0.046875 -0.390625 0.46875 -2.046875l0.96875 -3.65625l0.59375 0l-1.734375 6.375l-0.609375 0z" fill-rule="nonzero"/><path fill="#000000" d="m217.56451 117.298676q-1.390625 0 -2.171875 -0.859375q-0.765625 -0.859375 -0.765625 -2.40625q0 -1.515625 0.75 -2.4375q0.75 -0.921875 2.015625 -0.921875q1.125 0 1.765625 0.796875q0.65625 0.78125 0.65625 2.125l0 0.46875l-4.578125 0q0 1.3125 0.59375 2.015625q0.609375 0.6875 1.734375 0.6875q0.546875 0 0.953125 -0.078125q0.421875 -0.078125 1.046875 -0.328125l0 0.53125q-0.53125 0.234375 -1.0 0.3125q-0.453125 0.09375 -1.0 0.09375zm-0.171875 -6.109375q-0.921875 0 -1.484375 0.609375q-0.546875 0.609375 -0.640625 1.75l3.9375 0q0 -1.109375 -0.484375 -1.734375q-0.484375 -0.625 -1.328125 -0.625zm5.7421875 2.703125l-2.21875 -3.09375l0.671875 0l1.90625 2.6875l1.875 -2.6875l0.640625 0l-2.1875 3.09375l2.34375 3.28125l-0.671875 0l-2.0 -2.84375l-2.015625 2.84375l-0.640625 0l2.296875 -3.28125zm8.2890625 3.28125l-0.15625 -1.015625l-0.046875 0q-0.46875 0.625 -0.984375 0.890625q-0.5 0.25 -1.1875 0.25q-0.9375 0 -1.46875 -0.484375q-0.515625 -0.484375 -0.515625 -1.328125q0 -0.9375 0.765625 -1.453125q0.78125 -0.515625 2.25 -0.546875l1.21875 -0.03125l0 -0.421875q0 -0.90625 -0.375 -1.375q-0.359375 -0.46875 -1.1875 -0.46875q-0.875 0 -1.828125 0.5l-0.21875 -0.5q1.046875 -0.5 2.078125 -0.5q1.046875 0 1.5625 0.546875q0.515625 0.546875 0.515625 1.703125l0 4.234375l-0.421875 0zm-2.34375 -0.40625q1.015625 0 1.59375 -0.578125q0.59375 -0.59375 0.59375 -1.625l0 -0.625l-1.109375 0.046875q-1.34375 0.0625 -1.921875 0.421875q-0.5625 0.34375 -0.5625 1.09375q0 0.59375 0.359375 0.9375q0.375 0.328125 1.046875 0.328125zm7.373047 0.53125q-1.359375 0 -2.140625 -0.859375q-0.765625 -0.875 -0.765625 -2.40625q0 -1.59375 0.796875 -2.46875q0.796875 -0.890625 2.203125 -0.890625q0.828125 0 1.578125 0.296875l-0.15625 0.515625q-0.828125 -0.28125 -1.4375 -0.28125q-1.171875 0 -1.78125 0.734375q-0.59375 0.71875 -0.59375 2.078125q0 1.28125 0.59375 2.015625q0.609375 0.734375 1.6875 0.734375q0.875 0 1.609375 -0.3125l0 0.53125q-0.609375 0.3125 -1.59375 0.3125zm4.841797 -0.53125q0.546875 0 0.953125 -0.09375l0 0.46875q-0.421875 0.15625 -0.96875 0.15625q-0.84375 0 -1.25 -0.453125q-0.390625 -0.453125 -0.390625 -1.421875l0 -4.109375l-0.953125 0l0 -0.34375l0.953125 -0.265625l0.296875 -1.4375l0.296875 0l0 1.53125l1.859375 0l0 0.515625l-1.859375 0l0 4.03125q0 0.71875 0.25 1.078125q0.265625 0.34375 0.8125 0.34375zm2.9101562 0.40625l-0.578125 0l0 -9.125l0.578125 0l0 9.125zm1.0722656 -6.375l0.59375 0l1.359375 3.578125q0.609375 1.640625 0.765625 2.21875l0.046875 0q0.234375 -0.75 0.796875 -2.25l1.34375 -3.546875l0.609375 0l-2.859375 7.40625q-0.34375 0.90625 -0.578125 1.21875q-0.234375 0.3125 -0.546875 0.46875q-0.3125 0.171875 -0.765625 0.171875q-0.328125 0 -0.734375 -0.125l0 -0.515625q0.328125 0.09375 0.71875 0.09375q0.3125 0 0.53125 -0.140625q0.234375 -0.140625 0.40625 -0.4375q0.1875 -0.28125 0.4375 -0.9375q0.25 -0.640625 0.3125 -0.828125l-2.4375 -6.375zm14.78125 6.375l-1.390625 -4.265625q-0.140625 -0.421875 -0.34375 -1.265625l-0.03125 0l-0.125 0.4375l-0.265625 0.84375l-1.421875 4.25l-0.578125 0l-1.8125 -6.375l0.609375 0l1.03125 3.703125q0.359375 1.359375 0.46875 2.015625l0.03125 0q0.34375 -1.375 0.5 -1.828125l1.3125 -3.890625l0.53125 0l1.25 3.875q0.421875 1.375 0.515625 1.828125l0.03125 0q0.046875 -0.390625 0.46875 -2.046875l0.96875 -3.65625l0.59375 0l-1.734375 6.375l-0.609375 0zm8.037109 0l0 -4.125q0 -0.96875 -0.40625 -1.40625q-0.40625 -0.4375 -1.265625 -0.4375q-1.140625 0 -1.671875 0.578125q-0.53125 0.578125 -0.53125 1.875l0 3.515625l-0.578125 0l0 -9.125l0.578125 0l0 2.90625l-0.015625 0.8125l0.03125 0q0.359375 -0.578125 0.90625 -0.828125q0.546875 -0.265625 1.359375 -0.265625q2.15625 0 2.15625 2.328125l0 4.171875l-0.5625 0zm6.5 0l-0.15625 -1.015625l-0.046875 0q-0.46875 0.625 -0.984375 0.890625q-0.5 0.25 -1.1875 0.25q-0.9375 0 -1.46875 -0.484375q-0.515625 -0.484375 -0.515625 -1.328125q0 -0.9375 0.765625 -1.453125q0.78125 -0.515625 2.25 -0.546875l1.21875 -0.03125l0 -0.421875q0 -0.90625 -0.375 -1.375q-0.359375 -0.46875 -1.1875 -0.46875q-0.875 0 -1.828125 0.5l-0.21875 -0.5q1.046875 -0.5 2.078125 -0.5q1.046875 0 1.5625 0.546875q0.515625 0.546875 0.515625 1.703125l0 4.234375l-0.421875 0zm-2.34375 -0.40625q1.015625 0 1.59375 -0.578125q0.59375 -0.59375 0.59375 -1.625l0 -0.625l-1.109375 0.046875q-1.34375 0.0625 -1.921875 0.421875q-0.5625 0.34375 -0.5625 1.09375q0 0.59375 0.359375 0.9375q0.375 0.328125 1.046875 0.328125zm6.513672 0q0.546875 0 0.953125 -0.09375l0 0.46875q-0.421875 0.15625 -0.96875 0.15625q-0.84375 0 -1.25 -0.453125q-0.390625 -0.453125 -0.390625 -1.421875l0 -4.109375l-0.953125 0l0 -0.34375l0.953125 -0.265625l0.296875 -1.4375l0.296875 0l0 1.53125l1.859375 0l0 0.515625l-1.859375 0l0 4.03125q0 0.71875 0.25 1.078125q0.265625 0.34375 0.8125 0.34375zm4.3867188 -5.96875l0.59375 0l1.359375 3.578125q0.609375 1.640625 0.765625 2.21875l0.046875 0q0.234375 -0.75 0.796875 -2.25l1.34375 -3.546875l0.609375 0l-2.859375 7.40625q-0.34375 0.90625 -0.578125 1.21875q-0.234375 0.3125 -0.546875 0.46875q-0.3125 0.171875 -0.765625 0.171875q-0.328125 0 -0.734375 -0.125l0 -0.515625q0.328125 0.09375 0.71875 0.09375q0.3125 0 0.53125 -0.140625q0.234375 -0.140625 0.40625 -0.4375q0.1875 -0.28125 0.4375 -0.9375q0.25 -0.640625 0.3125 -0.828125l-2.4375 -6.375zm11.8359375 3.1875q0 1.546875 -0.75 2.4375q-0.75 0.875 -2.078125 0.875q-0.84375 0 -1.484375 -0.40625q-0.640625 -0.40625 -0.984375 -1.15625q-0.328125 -0.765625 -0.328125 -1.75q0 -1.5625 0.75 -2.4375q0.75 -0.875 2.078125 -0.875q1.3125 0 2.046875 0.890625q0.75 0.875 0.75 2.421875zm-5.015625 0q0 1.3125 0.578125 2.046875q0.578125 0.734375 1.625 0.734375q1.0625 0 1.625 -0.734375q0.578125 -0.734375 0.578125 -2.046875q0 -1.328125 -0.578125 -2.046875q-0.578125 -0.734375 -1.640625 -0.734375q-1.046875 0 -1.625 0.734375q-0.5625 0.71875 -0.5625 2.046875zm7.296875 -3.1875l0 4.125q0 0.96875 0.390625 1.40625q0.40625 0.4375 1.265625 0.4375q1.125 0 1.65625 -0.578125q0.546875 -0.578125 0.546875 -1.875l0 -3.515625l0.578125 0l0 6.375l-0.5 0l-0.09375 -0.875l-0.046875 0q-0.609375 1.0 -2.203125 1.0q-2.171875 0 -2.171875 -2.328125l0 -4.171875l0.578125 0zm14.1328125 6.375l0 -4.125q0 -0.96875 -0.40625 -1.40625q-0.40625 -0.4375 -1.265625 -0.4375q-1.140625 0 -1.671875 0.578125q-0.53125 0.578125 -0.53125 1.875l0 3.515625l-0.578125 0l0 -6.375l0.5 0l0.109375 0.875l0.03125 0q0.625 -1.0 2.21875 -1.0q2.15625 0 2.15625 2.328125l0 4.171875l-0.5625 0zm5.203125 0.125q-1.390625 0 -2.171875 -0.859375q-0.765625 -0.859375 -0.765625 -2.40625q0 -1.515625 0.75 -2.4375q0.75 -0.921875 2.015625 -0.921875q1.125 0 1.765625 0.796875q0.65625 0.78125 0.65625 2.125l0 0.46875l-4.578125 0q0 1.3125 0.59375 2.015625q0.609375 0.6875 1.734375 0.6875q0.546875 0 0.953125 -0.078125q0.421875 -0.078125 1.046875 -0.328125l0 0.53125q-0.53125 0.234375 -1.0 0.3125q-0.453125 0.09375 -1.0 0.09375zm-0.171875 -6.109375q-0.921875 0 -1.484375 0.609375q-0.546875 0.609375 -0.640625 1.75l3.9375 0q0 -1.109375 -0.484375 -1.734375q-0.484375 -0.625 -1.328125 -0.625zm6.7578125 6.109375q-1.390625 0 -2.171875 -0.859375q-0.765625 -0.859375 -0.765625 -2.40625q0 -1.515625 0.75 -2.4375q0.75 -0.921875 2.015625 -0.921875q1.125 0 1.765625 0.796875q0.65625 0.78125 0.65625 2.125l0 0.46875l-4.578125 0q0 1.3125 0.59375 2.015625q0.609375 0.6875 1.734375 0.6875q0.546875 0 0.953125 -0.078125q0.421875 -0.078125 1.046875 -0.328125l0 0.53125q-0.53125 0.234375 -1.0 0.3125q-0.453125 0.09375 -1.0 0.09375zm-0.171875 -6.109375q-0.921875 0 -1.484375 0.609375q-0.546875 0.609375 -0.640625 1.75l3.9375 0q0 -1.109375 -0.484375 -1.734375q-0.484375 -0.625 -1.328125 -0.625zm6.5234375 -0.515625q0.6875 0 1.1875 0.265625q0.5 0.25 0.90625 0.859375l0.03125 0q-0.03125 -0.75 -0.03125 -1.453125l0 -2.296875l0.578125 0l0 9.125l-0.390625 0l-0.140625 -0.96875l-0.046875 0q-0.734375 1.09375 -2.09375 1.09375q-1.3125 0 -2.015625 -0.828125q-0.6875 -0.828125 -0.6875 -2.390625q0 -1.65625 0.6875 -2.53125q0.6875 -0.875 2.015625 -0.875zm0 0.53125q-1.046875 0 -1.578125 0.734375q-0.515625 0.734375 -0.515625 2.125q0 2.703125 2.09375 2.703125q1.078125 0 1.578125 -0.625q0.515625 -0.625 0.515625 -2.0625l0 -0.09375q0 -1.484375 -0.5 -2.125q-0.5 -0.65625 -1.59375 -0.65625zm10.603516 -0.53125q1.34375 0 2.015625 0.84375q0.6875 0.84375 0.6875 2.46875q0 1.578125 -0.71875 2.453125q-0.71875 0.859375 -2.0 0.859375q-0.6875 0 -1.234375 -0.28125q-0.53125 -0.296875 -0.859375 -0.8125l-0.046875 0l-0.15625 0.96875l-0.375 0l0 -9.125l0.578125 0l0 2.296875q0 0.515625 -0.015625 0.953125l-0.015625 0.5l0.03125 0q0.375 -0.578125 0.875 -0.84375q0.515625 -0.28125 1.234375 -0.28125zm0 0.53125q-1.125 0 -1.625 0.65625q-0.484375 0.640625 -0.484375 2.125l0 0.09375q0 1.4375 0.5 2.0625q0.515625 0.625 1.59375 0.625q1.046875 0 1.5625 -0.71875q0.53125 -0.734375 0.53125 -2.078125q0 -2.765625 -2.078125 -2.765625zm7.033203 6.09375q-1.390625 0 -2.171875 -0.859375q-0.765625 -0.859375 -0.765625 -2.40625q0 -1.515625 0.75 -2.4375q0.75 -0.921875 2.015625 -0.921875q1.125 0 1.765625 0.796875q0.65625 0.78125 0.65625 2.125l0 0.46875l-4.578125 0q0 1.3125 0.59375 2.015625q0.609375 0.6875 1.734375 0.6875q0.546875 0 0.953125 -0.078125q0.421875 -0.078125 1.046875 -0.328125l0 0.53125q-0.53125 0.234375 -1.0 0.3125q-0.453125 0.09375 -1.0 0.09375zm-0.171875 -6.109375q-0.921875 0 -1.484375 0.609375q-0.546875 0.609375 -0.640625 1.75l3.9375 0q0 -1.109375 -0.484375 -1.734375q-0.484375 -0.625 -1.328125 -0.625zm6.7265625 6.109375q-1.359375 0 -2.140625 -0.859375q-0.765625 -0.875 -0.765625 -2.40625q0 -1.59375 0.796875 -2.46875q0.796875 -0.890625 2.203125 -0.890625q0.828125 0 1.578125 0.296875l-0.15625 0.515625q-0.828125 -0.28125 -1.4375 -0.28125q-1.171875 0 -1.78125 0.734375q-0.59375 0.71875 -0.59375 2.078125q0 1.28125 0.59375 2.015625q0.609375 0.734375 1.6875 0.734375q0.875 0 1.609375 -0.3125l0 0.53125q-0.609375 0.3125 -1.59375 0.3125zm7.029297 -0.125l-0.15625 -1.015625l-0.046875 0q-0.46875 0.625 -0.984375 0.890625q-0.5 0.25 -1.1875 0.25q-0.9375 0 -1.46875 -0.484375q-0.515625 -0.484375 -0.515625 -1.328125q0 -0.9375 0.765625 -1.453125q0.78125 -0.515625 2.25 -0.546875l1.21875 -0.03125l0 -0.421875q0 -0.90625 -0.375 -1.375q-0.359375 -0.46875 -1.1875 -0.46875q-0.875 0 -1.828125 0.5l-0.21875 -0.5q1.046875 -0.5 2.078125 -0.5q1.046875 0 1.5625 0.546875q0.515625 0.546875 0.515625 1.703125l0 4.234375l-0.421875 0zm-2.34375 -0.40625q1.015625 0 1.59375 -0.578125q0.59375 -0.59375 0.59375 -1.625l0 -0.625l-1.109375 0.046875q-1.34375 0.0625 -1.921875 0.421875q-0.5625 0.34375 -0.5625 1.09375q0 0.59375 0.359375 0.9375q0.375 0.328125 1.046875 0.328125zm5.341797 -5.96875l0 4.125q0 0.96875 0.390625 1.40625q0.40625 0.4375 1.265625 0.4375q1.125 0 1.65625 -0.578125q0.546875 -0.578125 0.546875 -1.875l0 -3.515625l0.578125 0l0 6.375l-0.5 0l-0.09375 -0.875l-0.046875 0q-0.609375 1.0 -2.203125 1.0q-2.171875 0 -2.171875 -2.328125l0 -4.171875l0.578125 0zm10.515625 4.71875q0 0.859375 -0.65625 1.328125q-0.640625 0.453125 -1.84375 0.453125q-1.265625 0 -2.015625 -0.40625l0 -0.625q0.953125 0.484375 2.015625 0.484375q0.953125 0 1.4375 -0.3125q0.484375 -0.3125 0.484375 -0.84375q0 -0.46875 -0.390625 -0.796875q-0.390625 -0.328125 -1.28125 -0.65625q-0.953125 -0.34375 -1.34375 -0.59375q-0.375 -0.25 -0.578125 -0.5625q-0.1875 -0.3125 -0.1875 -0.765625q0 -0.703125 0.59375 -1.125q0.609375 -0.421875 1.6875 -0.421875q1.03125 0 1.953125 0.390625l-0.21875 0.53125q-0.9375 -0.390625 -1.734375 -0.390625q-0.78125 0 -1.25 0.265625q-0.453125 0.25 -0.453125 0.703125q0 0.5 0.359375 0.8125q0.359375 0.296875 1.390625 0.65625q0.859375 0.3125 1.25 0.5625q0.390625 0.25 0.578125 0.5625q0.203125 0.3125 0.203125 0.75zm4.2148438 1.78125q-1.390625 0 -2.171875 -0.859375q-0.765625 -0.859375 -0.765625 -2.40625q0 -1.515625 0.75 -2.4375q0.75 -0.921875 2.015625 -0.921875q1.125 0 1.765625 0.796875q0.65625 0.78125 0.65625 2.125l0 0.46875l-4.578125 0q0 1.3125 0.59375 2.015625q0.609375 0.6875 1.734375 0.6875q0.546875 0 0.953125 -0.078125q0.421875 -0.078125 1.046875 -0.328125l0 0.53125q-0.53125 0.234375 -1.0 0.3125q-0.453125 0.09375 -1.0 0.09375zm-0.171875 -6.109375q-0.921875 0 -1.484375 0.609375q-0.546875 0.609375 -0.640625 1.75l3.9375 0q0 -1.109375 -0.484375 -1.734375q-0.484375 -0.625 -1.328125 -0.625zm7.453125 5.984375l0 -8.5625l0.59375 0l0 8.5625l-0.59375 0zm6.5625 0l-0.578125 0l0 -9.125l0.578125 0l0 9.125zm2.7128906 0l-0.578125 0l0 -6.375l0.578125 0l0 6.375zm-0.65625 -8.140625q0 -0.5625 0.375 -0.5625q0.171875 0 0.265625 0.15625q0.109375 0.140625 0.109375 0.40625q0 0.265625 -0.109375 0.421875q-0.09375 0.140625 -0.265625 0.140625q-0.375 0 -0.375 -0.5625zm6.7441406 6.484375q0 0.859375 -0.65625 1.328125q-0.640625 0.453125 -1.84375 0.453125q-1.265625 0 -2.015625 -0.40625l0 -0.625q0.953125 0.484375 2.015625 0.484375q0.953125 0 1.4375 -0.3125q0.484375 -0.3125 0.484375 -0.84375q0 -0.46875 -0.390625 -0.796875q-0.390625 -0.328125 -1.28125 -0.65625q-0.953125 -0.34375 -1.34375 -0.59375q-0.375 -0.25 -0.578125 -0.5625q-0.1875 -0.3125 -0.1875 -0.765625q0 -0.703125 0.59375 -1.125q0.609375 -0.421875 1.6875 -0.421875q1.03125 0 1.953125 0.390625l-0.21875 0.53125q-0.9375 -0.390625 -1.734375 -0.390625q-0.78125 0 -1.25 0.265625q-0.453125 0.25 -0.453125 0.703125q0 0.5 0.359375 0.8125q0.359375 0.296875 1.390625 0.65625q0.859375 0.3125 1.25 0.5625q0.390625 0.25 0.578125 0.5625q0.203125 0.3125 0.203125 0.75zm3.3242188 1.25q0.546875 0 0.953125 -0.09375l0 0.46875q-0.421875 0.15625 -0.96875 0.15625q-0.84375 0 -1.25 -0.453125q-0.390625 -0.453125 -0.390625 -1.421875l0 -4.109375l-0.953125 0l0 -0.34375l0.953125 -0.265625l0.296875 -1.4375l0.296875 0l0 1.53125l1.859375 0l0 0.515625l-1.859375 0l0 4.03125q0 0.71875 0.25 1.078125q0.265625 0.34375 0.8125 0.34375zm4.9101562 0.53125q-1.390625 0 -2.171875 -0.859375q-0.765625 -0.859375 -0.765625 -2.40625q0 -1.515625 0.75 -2.4375q0.75 -0.921875 2.015625 -0.921875q1.125 0 1.765625 0.796875q0.65625 0.78125 0.65625 2.125l0 0.46875l-4.578125 0q0 1.3125 0.59375 2.015625q0.609375 0.6875 1.734375 0.6875q0.546875 0 0.953125 -0.078125q0.421875 -0.078125 1.046875 -0.328125l0 0.53125q-0.53125 0.234375 -1.0 0.3125q-0.453125 0.09375 -1.0 0.09375zm-0.171875 -6.109375q-0.921875 0 -1.484375 0.609375q-0.546875 0.609375 -0.640625 1.75l3.9375 0q0 -1.109375 -0.484375 -1.734375q-0.484375 -0.625 -1.328125 -0.625zm8.6328125 5.984375l0 -4.125q0 -0.96875 -0.40625 -1.40625q-0.40625 -0.4375 -1.265625 -0.4375q-1.140625 0 -1.671875 0.578125q-0.53125 0.578125 -0.53125 1.875l0 3.515625l-0.578125 0l0 -6.375l0.5 0l0.109375 0.875l0.03125 0q0.625 -1.0 2.21875 -1.0q2.15625 0 2.15625 2.328125l0 4.171875l-0.5625 0z" fill-rule="nonzero"/><path fill="#000000" d="m217.53326 131.29868q-1.359375 0 -2.140625 -0.859375q-0.765625 -0.875 -0.765625 -2.40625q0 -1.59375 0.796875 -2.46875q0.796875 -0.890625 2.203125 -0.890625q0.828125 0 1.578125 0.296875l-0.15625 0.515625q-0.828125 -0.28125 -1.4375 -0.28125q-1.171875 0 -1.78125 0.734375q-0.59375 0.71875 -0.59375 2.078125q0 1.28125 0.59375 2.015625q0.609375 0.734375 1.6875 0.734375q0.875 0 1.609375 -0.3125l0 0.53125q-0.609375 0.3125 -1.59375 0.3125zm7.029297 -0.125l-0.15625 -1.015625l-0.046875 0q-0.46875 0.625 -0.984375 0.890625q-0.5 0.25 -1.1875 0.25q-0.9375 0 -1.46875 -0.484375q-0.515625 -0.484375 -0.515625 -1.328125q0 -0.9375 0.765625 -1.453125q0.78125 -0.515625 2.25 -0.546875l1.21875 -0.03125l0 -0.421875q0 -0.90625 -0.375 -1.375q-0.359375 -0.46875 -1.1875 -0.46875q-0.875 0 -1.828125 0.5l-0.21875 -0.5q1.046875 -0.5 2.078125 -0.5q1.046875 0 1.5625 0.546875q0.515625 0.546875 0.515625 1.703125l0 4.234375l-0.421875 0zm-2.34375 -0.40625q1.015625 0 1.59375 -0.578125q0.59375 -0.59375 0.59375 -1.625l0 -0.625l-1.109375 0.046875q-1.34375 0.0625 -1.921875 0.421875q-0.5625 0.34375 -0.5625 1.09375q0 0.59375 0.359375 0.9375q0.375 0.328125 1.046875 0.328125zm7.341797 -6.09375q0.40625 0 0.859375 0.09375l-0.109375 0.546875q-0.390625 -0.09375 -0.828125 -0.09375q-0.8125 0 -1.34375 0.6875q-0.515625 0.6875 -0.515625 1.75l0 3.515625l-0.578125 0l0 -6.375l0.5 0l0.0625 1.15625l0.03125 0q0.390625 -0.703125 0.828125 -0.984375q0.453125 -0.296875 1.09375 -0.296875zm4.732422 6.625q-1.390625 0 -2.171875 -0.859375q-0.765625 -0.859375 -0.765625 -2.40625q0 -1.515625 0.75 -2.4375q0.75 -0.921875 2.015625 -0.921875q1.125 0 1.765625 0.796875q0.65625 0.78125 0.65625 2.125l0 0.46875l-4.578125 0q0 1.3125 0.59375 2.015625q0.609375 0.6875 1.734375 0.6875q0.546875 0 0.953125 -0.078125q0.421875 -0.078125 1.046875 -0.328125l0 0.53125q-0.53125 0.234375 -1.0 0.3125q-0.453125 0.09375 -1.0 0.09375zm-0.171875 -6.109375q-0.921875 0 -1.484375 0.609375q-0.546875 0.609375 -0.640625 1.75l3.9375 0q0 -1.109375 -0.484375 -1.734375q-0.484375 -0.625 -1.328125 -0.625zm6.5546875 0.125l-1.5 0l0 5.859375l-0.578125 0l0 -5.859375l-1.1875 0l0 -0.34375l1.1875 -0.21875l0 -0.5q0 -1.171875 0.421875 -1.71875q0.4375 -0.546875 1.40625 -0.546875q0.53125 0 1.0625 0.15625l-0.140625 0.515625q-0.46875 -0.15625 -0.921875 -0.15625q-0.6875 0 -0.96875 0.40625q-0.28125 0.40625 -0.28125 1.296875l0 0.59375l1.5 0l0 0.515625zm1.7382812 -0.515625l0 4.125q0 0.96875 0.390625 1.40625q0.40625 0.4375 1.265625 0.4375q1.125 0 1.65625 -0.578125q0.546875 -0.578125 0.546875 -1.875l0 -3.515625l0.578125 0l0 6.375l-0.5 0l-0.09375 -0.875l-0.046875 0q-0.609375 1.0 -2.203125 1.0q-2.171875 0 -2.171875 -2.328125l0 -4.171875l0.578125 0zm7.140625 6.375l-0.578125 0l0 -9.125l0.578125 0l0 9.125zm2.7128906 0l-0.578125 0l0 -9.125l0.578125 0l0 9.125zm1.0722656 -6.375l0.59375 0l1.359375 3.578125q0.609375 1.640625 0.765625 2.21875l0.046875 0q0.234375 -0.75 0.796875 -2.25l1.34375 -3.546875l0.609375 0l-2.859375 7.40625q-0.34375 0.90625 -0.578125 1.21875q-0.234375 0.3125 -0.546875 0.46875q-0.3125 0.171875 -0.765625 0.171875q-0.328125 0 -0.734375 -0.125l0 -0.515625q0.328125 0.09375 0.71875 0.09375q0.3125 0 0.53125 -0.140625q0.234375 -0.140625 0.40625 -0.4375q0.1875 -0.28125 0.4375 -0.9375q0.25 -0.640625 0.3125 -0.828125l-2.4375 -6.375zm11.375 5.96875q0.546875 0 0.953125 -0.09375l0 0.46875q-0.421875 0.15625 -0.96875 0.15625q-0.84375 0 -1.25 -0.453125q-0.390625 -0.453125 -0.390625 -1.421875l0 -4.109375l-0.953125 0l0 -0.34375l0.953125 -0.265625l0.296875 -1.4375l0.296875 0l0 1.53125l1.859375 0l0 0.515625l-1.859375 0l0 4.03125q0 0.71875 0.25 1.078125q0.265625 0.34375 0.8125 0.34375zm7.5976562 -2.78125q0 1.546875 -0.75 2.4375q-0.75 0.875 -2.078125 0.875q-0.84375 0 -1.484375 -0.40625q-0.640625 -0.40625 -0.984375 -1.15625q-0.328125 -0.765625 -0.328125 -1.75q0 -1.5625 0.75 -2.4375q0.75 -0.875 2.078125 -0.875q1.3125 0 2.046875 0.890625q0.75 0.875 0.75 2.421875zm-5.015625 0q0 1.3125 0.578125 2.046875q0.578125 0.734375 1.625 0.734375q1.0625 0 1.625 -0.734375q0.578125 -0.734375 0.578125 -2.046875q0 -1.328125 -0.578125 -2.046875q-0.578125 -0.734375 -1.640625 -0.734375q-1.046875 0 -1.625 0.734375q-0.5625 0.71875 -0.5625 2.046875zm14.9921875 3.1875l-1.390625 -4.265625q-0.140625 -0.421875 -0.34375 -1.265625l-0.03125 0l-0.125 0.4375l-0.265625 0.84375l-1.421875 4.25l-0.578125 0l-1.8125 -6.375l0.609375 0l1.03125 3.703125q0.359375 1.359375 0.46875 2.015625l0.03125 0q0.34375 -1.375 0.5 -1.828125l1.3125 -3.890625l0.53125 0l1.25 3.875q0.421875 1.375 0.515625 1.828125l0.03125 0q0.046875 -0.390625 0.46875 -2.046875l0.96875 -3.65625l0.59375 0l-1.734375 6.375l-0.609375 0zm8.037109 0l0 -4.125q0 -0.96875 -0.40625 -1.40625q-0.40625 -0.4375 -1.265625 -0.4375q-1.140625 0 -1.671875 0.578125q-0.53125 0.578125 -0.53125 1.875l0 3.515625l-0.578125 0l0 -9.125l0.578125 0l0 2.90625l-0.015625 0.8125l0.03125 0q0.359375 -0.578125 0.90625 -0.828125q0.546875 -0.265625 1.359375 -0.265625q2.15625 0 2.15625 2.328125l0 4.171875l-0.5625 0zm6.5 0l-0.15625 -1.015625l-0.046875 0q-0.46875 0.625 -0.984375 0.890625q-0.5 0.25 -1.1875 0.25q-0.9375 0 -1.46875 -0.484375q-0.515625 -0.484375 -0.515625 -1.328125q0 -0.9375 0.765625 -1.453125q0.78125 -0.515625 2.25 -0.546875l1.21875 -0.03125l0 -0.421875q0 -0.90625 -0.375 -1.375q-0.359375 -0.46875 -1.1875 -0.46875q-0.875 0 -1.828125 0.5l-0.21875 -0.5q1.046875 -0.5 2.078125 -0.5q1.046875 0 1.5625 0.546875q0.515625 0.546875 0.515625 1.703125l0 4.234375l-0.421875 0zm-2.34375 -0.40625q1.015625 0 1.59375 -0.578125q0.59375 -0.59375 0.59375 -1.625l0 -0.625l-1.109375 0.046875q-1.34375 0.0625 -1.921875 0.421875q-0.5625 0.34375 -0.5625 1.09375q0 0.59375 0.359375 0.9375q0.375 0.328125 1.046875 0.328125zm6.513672 0q0.546875 0 0.953125 -0.09375l0 0.46875q-0.421875 0.15625 -0.96875 0.15625q-0.84375 0 -1.25 -0.453125q-0.390625 -0.453125 -0.390625 -1.421875l0 -4.109375l-0.953125 0l0 -0.34375l0.953125 -0.265625l0.296875 -1.4375l0.296875 0l0 1.53125l1.859375 0l0 0.515625l-1.859375 0l0 4.03125q0 0.71875 0.25 1.078125q0.265625 0.34375 0.8125 0.34375zm4.3867188 -5.96875l0.59375 0l1.359375 3.578125q0.609375 1.640625 0.765625 2.21875l0.046875 0q0.234375 -0.75 0.796875 -2.25l1.34375 -3.546875l0.609375 0l-2.859375 7.40625q-0.34375 0.90625 -0.578125 1.21875q-0.234375 0.3125 -0.546875 0.46875q-0.3125 0.171875 -0.765625 0.171875q-0.328125 0 -0.734375 -0.125l0 -0.515625q0.328125 0.09375 0.71875 0.09375q0.3125 0 0.53125 -0.140625q0.234375 -0.140625 0.40625 -0.4375q0.1875 -0.28125 0.4375 -0.9375q0.25 -0.640625 0.3125 -0.828125l-2.4375 -6.375zm11.8359375 3.1875q0 1.546875 -0.75 2.4375q-0.75 0.875 -2.078125 0.875q-0.84375 0 -1.484375 -0.40625q-0.640625 -0.40625 -0.984375 -1.15625q-0.328125 -0.765625 -0.328125 -1.75q0 -1.5625 0.75 -2.4375q0.75 -0.875 2.078125 -0.875q1.3125 0 2.046875 0.890625q0.75 0.875 0.75 2.421875zm-5.015625 0q0 1.3125 0.578125 2.046875q0.578125 0.734375 1.625 0.734375q1.0625 0 1.625 -0.734375q0.578125 -0.734375 0.578125 -2.046875q0 -1.328125 -0.578125 -2.046875q-0.578125 -0.734375 -1.640625 -0.734375q-1.046875 0 -1.625 0.734375q-0.5625 0.71875 -0.5625 2.046875zm7.296875 -3.1875l0 4.125q0 0.96875 0.390625 1.40625q0.40625 0.4375 1.265625 0.4375q1.125 0 1.65625 -0.578125q0.546875 -0.578125 0.546875 -1.875l0 -3.515625l0.578125 0l0 6.375l-0.5 0l-0.09375 -0.875l-0.046875 0q-0.609375 1.0 -2.203125 1.0q-2.171875 0 -2.171875 -2.328125l0 -4.171875l0.578125 0zm11.3671875 5.96875q0.546875 0 0.953125 -0.09375l0 0.46875q-0.421875 0.15625 -0.96875 0.15625q-0.84375 0 -1.25 -0.453125q-0.390625 -0.453125 -0.390625 -1.421875l0 -4.109375l-0.953125 0l0 -0.34375l0.953125 -0.265625l0.296875 -1.4375l0.296875 0l0 1.53125l1.859375 0l0 0.515625l-1.859375 0l0 4.03125q0 0.71875 0.25 1.078125q0.265625 0.34375 0.8125 0.34375zm4.9101562 0.53125q-1.390625 0 -2.171875 -0.859375q-0.765625 -0.859375 -0.765625 -2.40625q0 -1.515625 0.75 -2.4375q0.75 -0.921875 2.015625 -0.921875q1.125 0 1.765625 0.796875q0.65625 0.78125 0.65625 2.125l0 0.46875l-4.578125 0q0 1.3125 0.59375 2.015625q0.609375 0.6875 1.734375 0.6875q0.546875 0 0.953125 -0.078125q0.421875 -0.078125 1.046875 -0.328125l0 0.53125q-0.53125 0.234375 -1.0 0.3125q-0.453125 0.09375 -1.0 0.09375zm-0.171875 -6.109375q-0.921875 0 -1.484375 0.609375q-0.546875 0.609375 -0.640625 1.75l3.9375 0q0 -1.109375 -0.484375 -1.734375q-0.484375 -0.625 -1.328125 -0.625zm4.7578125 5.984375l-0.578125 0l0 -9.125l0.578125 0l0 9.125zm2.7128906 0l-0.578125 0l0 -9.125l0.578125 0l0 9.125zm13.220703 0l0 -4.171875q0 -0.9375 -0.375 -1.359375q-0.359375 -0.4375 -1.109375 -0.4375q-0.984375 0 -1.453125 0.546875q-0.46875 0.53125 -0.46875 1.6875l0 3.734375l-0.578125 0l0 -4.359375q0 -1.609375 -1.484375 -1.609375q-1.0 0 -1.46875 0.59375q-0.453125 0.578125 -0.453125 1.859375l0 3.515625l-0.578125 0l0 -6.375l0.484375 0l0.125 0.875l0.03125 0q0.265625 -0.46875 0.75 -0.734375q0.484375 -0.265625 1.078125 -0.265625q1.5 0 1.9375 1.140625l0.015625 0q0.3125 -0.546875 0.828125 -0.84375q0.53125 -0.296875 1.203125 -0.296875q1.046875 0 1.5625 0.5625q0.515625 0.5625 0.515625 1.765625l0 4.171875l-0.5625 0zm5.203125 0.125q-1.390625 0 -2.171875 -0.859375q-0.765625 -0.859375 -0.765625 -2.40625q0 -1.515625 0.75 -2.4375q0.75 -0.921875 2.015625 -0.921875q1.125 0 1.765625 0.796875q0.65625 0.78125 0.65625 2.125l0 0.46875l-4.578125 0q0 1.3125 0.59375 2.015625q0.609375 0.6875 1.734375 0.6875q0.546875 0 0.953125 -0.078125q0.421875 -0.078125 1.046875 -0.328125l0 0.53125q-0.53125 0.234375 -1.0 0.3125q-0.453125 0.09375 -1.0 0.09375zm-0.171875 -6.109375q-0.921875 0 -1.484375 0.609375q-0.546875 0.609375 -0.640625 1.75l3.9375 0q0 -1.109375 -0.484375 -1.734375q-0.484375 -0.625 -1.328125 -0.625zm8.984375 5.578125q0.546875 0 0.953125 -0.09375l0 0.46875q-0.421875 0.15625 -0.96875 0.15625q-0.84375 0 -1.25 -0.453125q-0.390625 -0.453125 -0.390625 -1.421875l0 -4.109375l-0.953125 0l0 -0.34375l0.953125 -0.265625l0.296875 -1.4375l0.296875 0l0 1.53125l1.859375 0l0 0.515625l-1.859375 0l0 4.03125q0 0.71875 0.25 1.078125q0.265625 0.34375 0.8125 0.34375zm7.5976562 -2.78125q0 1.546875 -0.75 2.4375q-0.75 0.875 -2.078125 0.875q-0.84375 0 -1.484375 -0.40625q-0.640625 -0.40625 -0.984375 -1.15625q-0.328125 -0.765625 -0.328125 -1.75q0 -1.5625 0.75 -2.4375q0.75 -0.875 2.078125 -0.875q1.3125 0 2.046875 0.890625q0.75 0.875 0.75 2.421875zm-5.015625 0q0 1.3125 0.578125 2.046875q0.578125 0.734375 1.625 0.734375q1.0625 0 1.625 -0.734375q0.578125 -0.734375 0.578125 -2.046875q0 -1.328125 -0.578125 -2.046875q-0.578125 -0.734375 -1.640625 -0.734375q-1.046875 0 -1.625 0.734375q-0.5625 0.71875 -0.5625 2.046875zm12.2421875 -3.3125q0.6875 0 1.1875 0.265625q0.5 0.25 0.90625 0.859375l0.03125 0q-0.03125 -0.75 -0.03125 -1.453125l0 -2.296875l0.578125 0l0 9.125l-0.390625 0l-0.140625 -0.96875l-0.046875 0q-0.734375 1.09375 -2.09375 1.09375q-1.3125 0 -2.015625 -0.828125q-0.6875 -0.828125 -0.6875 -2.390625q0 -1.65625 0.6875 -2.53125q0.6875 -0.875 2.015625 -0.875zm0 0.53125q-1.046875 0 -1.578125 0.734375q-0.515625 0.734375 -0.515625 2.125q0 2.703125 2.09375 2.703125q1.078125 0 1.578125 -0.625q0.515625 -0.625 0.515625 -2.0625l0 -0.09375q0 -1.484375 -0.5 -2.125q-0.5 -0.65625 -1.59375 -0.65625zm10.064453 2.78125q0 1.546875 -0.75 2.4375q-0.75 0.875 -2.078125 0.875q-0.84375 0 -1.484375 -0.40625q-0.640625 -0.40625 -0.984375 -1.15625q-0.328125 -0.765625 -0.328125 -1.75q0 -1.5625 0.75 -2.4375q0.75 -0.875 2.078125 -0.875q1.3125 0 2.046875 0.890625q0.75 0.875 0.75 2.421875zm-5.015625 0q0 1.3125 0.578125 2.046875q0.578125 0.734375 1.625 0.734375q1.0625 0 1.625 -0.734375q0.578125 -0.734375 0.578125 -2.046875q0 -1.328125 -0.578125 -2.046875q-0.578125 -0.734375 -1.640625 -0.734375q-1.046875 0 -1.625 0.734375q-0.5625 0.71875 -0.5625 2.046875zm6.671875 2.734375q0 -0.578125 0.46875 -0.578125q0.484375 0 0.484375 0.578125q0 0.578125 -0.484375 0.578125q-0.46875 0 -0.46875 -0.578125z" fill-rule="nonzero"/><path fill="#d9ead3" d="m1.1802452 99.163574l0 0c0 -54.61965 44.27798 -98.89764 98.89764 -98.89764l0 0c26.229286 0 51.384293 10.419543 69.9312 28.966448c18.546906 18.546906 28.966446 43.70191 28.966446 69.93118l0 0c0 54.61966 -44.277985 98.897644 -98.897644 98.897644l0 0c-54.619656 0 -98.89764 -44.277985 -98.89764 -98.897644z" fill-rule="evenodd"/><g filter="url(#shadowFilter-p.1)"><use xlink:href="#p.1" transform="matrix(1.0 0.0 0.0 1.0 0.0 2.0)"/></g><defs><filter id="shadowFilter-p.1" filterUnits="userSpaceOnUse"><feGaussianBlur in="SourceAlpha" stdDeviation="2.0" result="blur"/><feComponentTransfer in="blur" color-interpolation-filters="sRGB"><feFuncR type="linear" slope="0" intercept="0.0"/><feFuncG type="linear" slope="0" intercept="0.0"/><feFuncB type="linear" slope="0" intercept="0.0"/><feFuncA type="linear" slope="0.5" intercept="0"/></feComponentTransfer></filter></defs><g id="p.1"><path fill="#6aa84f" d="m57.9313 51.358047l0 0c0 -7.7609787 6.2915154 -14.052494 14.052494 -14.052494l0 0l0 0l21.078735 0l35.13124 0l0 0c3.726944 0 7.3012543 1.480526 9.936615 4.115879c2.6353455 2.635353 4.1158752 6.2096596 4.1158752 9.936615l0 35.700783l0 0l0 21.322838l0 0.16272736c0 7.7609787 -6.291519 14.052498 -14.05249 14.052498l-35.13124 0l-21.078735 0l0 0l0 0c-7.7609787 0 -14.052494 -6.291519 -14.052494 -14.052498l0 -0.16272736l-27.068476 0.3059082l27.068476 -21.628746z" fill-rule="evenodd"/><path fill="#efefef" d="m99.04777 87.241844l-1.078125 -15.171875l0 -6.359375l4.359375 0l0 6.359375l-1.015625 15.171875l-2.265625 0zm-0.921875 7.109375l0 -4.0l4.046875 0l0 4.0l-4.046875 0z" fill-rule="nonzero"/></g><path fill="#000000" fill-opacity="0.0" d="m-17.349087 136.5429l235.52756 0l0 18.960632l-235.52756 0z" fill-rule="evenodd"/><path fill="#666666" d="m57.473278 151.56165q0 1.375 -0.9375 2.109375q-0.9375 0.734375 -2.65625 0.734375l-1.46875 0l0 3.9375l-0.671875 0l0 -9.515625l2.328125 0q3.40625 0 3.40625 2.734375zm-5.0625 2.28125l1.296875 0q1.609375 0 2.328125 -0.53125q0.71875 -0.53125 0.71875 -1.71875q0 -1.109375 -0.6875 -1.640625q-0.671875 -0.53125 -2.09375 -0.53125l-1.5625 0l0 4.421875zm9.8276825 4.625q-1.546875 0 -2.40625 -0.9375q-0.859375 -0.953125 -0.859375 -2.671875q0 -1.6875 0.828125 -2.703125q0.828125 -1.015625 2.25 -1.015625q1.25 0 1.9687538 0.875q0.71875 0.859375 0.71875 2.359375l0 0.515625l-5.093754 0q0.015625 1.46875 0.671875 2.234375q0.671875 0.765625 1.921875 0.765625q0.59375 0 1.046875 -0.078125q0.46875 -0.09375 1.1718788 -0.375l0 0.59375q-0.5937538 0.25 -1.1093788 0.34375q-0.5 0.09375 -1.109375 0.09375zm-0.1875 -6.765625q-1.03125 0 -1.65625 0.671875q-0.609375 0.671875 -0.71875 1.953125l4.375004 0q0 -1.234375 -0.5312538 -1.921875q-0.53125 -0.703125 -1.46875 -0.703125zm7.4242287 -0.5625q0.453125 0 0.96875 0.078125l-0.125 0.625q-0.453125 -0.109375 -0.921875 -0.109375q-0.90625 0 -1.484375 0.765625q-0.578125 0.765625 -0.578125 1.9375l0 3.90625l-0.640625 0l0 -7.078125l0.546875 0l0.0625 1.28125l0.046875 0q0.4375 -0.78125 0.921875 -1.09375q0.5 -0.3125 1.203125 -0.3125zm6.796158 5.359375q0 0.953125 -0.734375 1.46875q-0.71875 0.5 -2.046875 0.5q-1.421875 0 -2.25 -0.4375l0 -0.6875q1.0625 0.53125 2.25 0.53125q1.046875 0 1.59375 -0.34375q0.546875 -0.359375 0.546875 -0.9375q0 -0.53125 -0.4375 -0.890625q-0.4375 -0.359375 -1.421875 -0.71875q-1.0625 -0.375 -1.5 -0.65625q-0.421875 -0.28125 -0.640625 -0.625q-0.21875 -0.34375 -0.21875 -0.859375q0 -0.78125 0.671875 -1.234375q0.671875 -0.46875 1.859375 -0.46875q1.15625 0 2.171875 0.421875l-0.234375 0.578125q-1.046875 -0.421875 -1.9375 -0.421875q-0.859375 0 -1.375 0.296875q-0.5 0.28125 -0.5 0.78125q0 0.5625 0.390625 0.890625q0.390625 0.328125 1.546875 0.734375q0.953125 0.34375 1.390625 0.625q0.4375 0.28125 0.65625 0.640625q0.21875 0.34375 0.21875 0.8125zm7.6616364 -1.703125q0 1.734375 -0.84375 2.703125q-0.828125 0.96875 -2.3125 0.96875q-0.921875 0 -1.640625 -0.4375q-0.703125 -0.453125 -1.078125 -1.296875q-0.375 -0.84375 -0.375 -1.9375q0 -1.734375 0.828125 -2.6875q0.84375 -0.96875 2.3125 -0.96875q1.453125 0 2.28125 0.984375q0.828125 0.96875 0.828125 2.671875zm-5.578125 0q0 1.453125 0.640625 2.28125q0.640625 0.8125 1.8125 0.8125q1.171875 0 1.8125 -0.8125q0.640625 -0.828125 0.640625 -2.28125q0 -1.46875 -0.65625 -2.265625q-0.640625 -0.8125 -1.8125 -0.8125q-1.171875 0 -1.8125 0.8125q-0.625 0.796875 -0.625 2.265625zm12.481323 3.546875l0 -4.59375q0 -1.0625 -0.453125 -1.546875q-0.453125 -0.484375 -1.390625 -0.484375q-1.28125 0 -1.875 0.640625q-0.578125 0.640625 -0.578125 2.078125l0 3.90625l-0.640625 0l0 -7.078125l0.546875 0l0.125 0.96875l0.03125 0q0.6875 -1.09375 2.453125 -1.09375q2.40625 0 2.40625 2.578125l0 4.625l-0.625 0zm7.220886 0l-0.171875 -1.125l-0.046875 0q-0.53125 0.6875 -1.09375 0.96875q-0.5625 0.28125 -1.328125 0.28125q-1.046875 0 -1.625 -0.53125q-0.578125 -0.53125 -0.578125 -1.46875q0 -1.046875 0.859375 -1.609375q0.859375 -0.578125 2.5 -0.609375l1.34375 -0.03125l0 -0.46875q0 -1.015625 -0.421875 -1.53125q-0.40625 -0.515625 -1.3125 -0.515625q-0.984375 0 -2.03125 0.546875l-0.25 -0.5625q1.171875 -0.546875 2.3125 -0.546875q1.15625 0 1.734375 0.609375q0.578125 0.609375 0.578125 1.890625l0 4.703125l-0.46875 0zm-2.609375 -0.453125q1.140625 0 1.78125 -0.640625q0.65625 -0.65625 0.65625 -1.8125l0 -0.6875l-1.234375 0.046875q-1.484375 0.078125 -2.125 0.46875q-0.625 0.390625 -0.625 1.21875q0 0.671875 0.40625 1.046875q0.40625 0.359375 1.140625 0.359375zm6.0141754 0.453125l-0.640625 0l0 -10.125l0.640625 0l0 10.125zm8.662842 0.125q-1.515625 0 -2.375 -0.953125q-0.859375 -0.953125 -0.859375 -2.671875q0 -1.75 0.890625 -2.71875q0.890625 -0.984375 2.4375 -0.984375q0.9218674 0 1.7499924 0.3125l-0.171875 0.578125q-0.921875 -0.3125 -1.5937424 -0.3125q-1.296875 0 -1.96875 0.8125q-0.671875 0.796875 -0.671875 2.3125q0 1.421875 0.671875 2.234375q0.671875 0.8125 1.875 0.8125q0.9531174 0 1.7812424 -0.34375l0 0.59375q-0.671875 0.328125 -1.7656174 0.328125zm9.347801 -3.671875q0 1.734375 -0.84375 2.703125q-0.828125 0.96875 -2.3125 0.96875q-0.921875 0 -1.640625 -0.4375q-0.703125 -0.453125 -1.078125 -1.296875q-0.375 -0.84375 -0.375 -1.9375q0 -1.734375 0.828125 -2.6875q0.84375 -0.96875 2.3125 -0.96875q1.453125 0 2.28125 0.984375q0.828125 0.96875 0.828125 2.671875zm-5.578125 0q0 1.453125 0.640625 2.28125q0.640625 0.8125 1.8125 0.8125q1.171875 0 1.8125 -0.8125q0.640625 -0.828125 0.640625 -2.28125q0 -1.46875 -0.65625 -2.265625q-0.640625 -0.8125 -1.8125 -0.8125q-1.171875 0 -1.8125 0.8125q-0.625 0.796875 -0.625 2.265625zm12.481323 3.546875l0 -4.59375q0 -1.0625 -0.453125 -1.546875q-0.453125 -0.484375 -1.390625 -0.484375q-1.28125 0 -1.875 0.640625q-0.578125 0.640625 -0.578125 2.078125l0 3.90625l-0.640625 0l0 -7.078125l0.546875 0l0.125 0.96875l0.03125 0q0.6875 -1.09375 2.453125 -1.09375q2.40625 0 2.40625 2.578125l0 4.625l-0.625 0zm4.7833786 -0.4375q0.609375 0 1.078125 -0.109375l0 0.515625q-0.46875 0.15625 -1.078125 0.15625q-0.9375 0 -1.390625 -0.5q-0.453125 -0.5 -0.453125 -1.578125l0 -4.5625l-1.046875 0l0 -0.375l1.046875 -0.296875l0.328125 -1.59375l0.34375 0l0 1.703125l2.0625 0l0 0.5625l-2.0625 0l0 4.484375q0 0.8125 0.28125 1.203125q0.28125 0.390625 0.890625 0.390625zm6.901886 0.4375l-0.171875 -1.125l-0.046875 0q-0.53125 0.6875 -1.09375 0.96875q-0.5625 0.28125 -1.328125 0.28125q-1.046875 0 -1.625 -0.53125q-0.578125 -0.53125 -0.578125 -1.46875q0 -1.046875 0.859375 -1.609375q0.859375 -0.578125 2.5 -0.609375l1.34375 -0.03125l0 -0.46875q0 -1.015625 -0.421875 -1.53125q-0.40625 -0.515625 -1.3125 -0.515625q-0.984375 0 -2.03125 0.546875l-0.25 -0.5625q1.171875 -0.546875 2.3125 -0.546875q1.15625 0 1.734375 0.609375q0.578125 0.609375 0.578125 1.890625l0 4.703125l-0.46875 0zm-2.609375 -0.453125q1.140625 0 1.78125 -0.640625q0.65625 -0.65625 0.65625 -1.8125l0 -0.6875l-1.234375 0.046875q-1.484375 0.078125 -2.125 0.46875q-0.625 0.390625 -0.625 1.21875q0 0.671875 0.40625 1.046875q0.40625 0.359375 1.140625 0.359375zm8.201691 0.578125q-1.515625 0 -2.375 -0.953125q-0.859375 -0.953125 -0.859375 -2.671875q0 -1.75 0.890625 -2.71875q0.890625 -0.984375 2.4375 -0.984375q0.921875 0 1.75 0.3125l-0.171875 0.578125q-0.921875 -0.3125 -1.59375 -0.3125q-1.296875 0 -1.96875 0.8125q-0.671875 0.796875 -0.671875 2.3125q0 1.421875 0.671875 2.234375q0.671875 0.8125 1.875 0.8125q0.953125 0 1.78125 -0.34375l0 0.59375q-0.671875 0.328125 -1.765625 0.328125zm5.3634033 -0.5625q0.609375 0 1.078125 -0.109375l0 0.515625q-0.46875 0.15625 -1.078125 0.15625q-0.9375 0 -1.390625 -0.5q-0.453125 -0.5 -0.453125 -1.578125l0 -4.5625l-1.046875 0l0 -0.375l1.046875 -0.296875l0.328125 -1.59375l0.34375 0l0 1.703125l2.0625 0l0 0.5625l-2.0625 0l0 4.484375q0 0.8125 0.28125 1.203125q0.28125 0.390625 0.890625 0.390625z" fill-rule="nonzero"/></g></svg>