<svg version="1.1" viewBox="0.0 0.0 435.34120734908134 316.36482939632543" fill="none" stroke="none" stroke-linecap="square" stroke-miterlimit="10" xmlns:xlink="http://www.w3.org/1999/xlink" xmlns="http://www.w3.org/2000/svg"><clipPath id="p.0"><path d="m0 0l435.34122 0l0 316.36484l-435.34122 0l0 -316.36484z" clip-rule="nonzero"/></clipPath><g clip-path="url(#p.0)"><path fill="#000000" fill-opacity="0.0" d="m0 0l435.34122 0l0 316.36484l-435.34122 0z" fill-rule="evenodd"/><g filter="url(#shadowFilter-p.1)"><use xlink:href="#p.1" transform="matrix(1.0 0.0 0.0 1.0 0.0 2.0)"/></g><defs><filter id="shadowFilter-p.1" filterUnits="userSpaceOnUse"><feGaussianBlur in="SourceAlpha" stdDeviation="2.0" result="blur"/><feComponentTransfer in="blur" color-interpolation-filters="sRGB"><feFuncR type="linear" slope="0" intercept="0.8"/><feFuncG type="linear" slope="0" intercept="0.8"/><feFuncB type="linear" slope="0" intercept="0.8"/><feFuncA type="linear" slope="1.0" intercept="0"/></feComponentTransfer></filter></defs><g id="p.1"><path fill="#fce5cd" d="m47.026245 18.587927l0 0c0 -1.8786373 1.5229378 -3.401575 3.401577 -3.401575l23.427822 0l0 0l40.244095 0l90.501305 0c0.90216064 0 1.7673645 0.35837936 2.4052887 0.99629784c0.63790894 0.6379185 0.9962921 1.5031223 0.9962921 2.4052773l0 8.503937l0 0l0 5.1023617l0 0c0 1.8786392 -1.522934 3.401577 -3.4015808 3.401577l-90.501305 0l-40.244095 0l0 0l-23.427822 0c-1.8786392 0 -3.401577 -1.5229378 -3.401577 -3.401577l0 0l-13.335281 -0.25722694l13.335281 -4.8451347z" fill-rule="evenodd"/></g><g filter="url(#shadowFilter-p.2)"><use xlink:href="#p.2" transform="matrix(1.0 0.0 0.0 1.0 0.0 2.0)"/></g><defs><filter id="shadowFilter-p.2" filterUnits="userSpaceOnUse"><feGaussianBlur in="SourceAlpha" stdDeviation="2.0" result="blur"/><feComponentTransfer in="blur" color-interpolation-filters="sRGB"><feFuncR type="linear" slope="0" intercept="0.8"/><feFuncG type="linear" slope="0" intercept="0.8"/><feFuncB type="linear" slope="0" intercept="0.8"/><feFuncA type="linear" slope="1.0" intercept="0"/></feComponentTransfer></filter></defs><g id="p.2"><path fill="#f4cccc" d="m388.96484 51.776897l0 0c0 -1.8786392 -1.5229187 -3.401577 -3.4015808 -3.401577l-23.427795 0l0 0l-40.24411 0l-90.50131 0c-0.9021454 0 -1.7673492 0.35837936 -2.4052734 0.99629974c-0.6379242 0.63791656 -0.9962921 1.5031204 -0.9962921 2.4052773l0 8.503937l0 0l0 5.10236l0 0c0 1.8786392 1.522934 3.4015732 3.4015656 3.4015732l90.50131 0l40.24411 0l0 0l23.427795 0c1.8786621 0 3.4015808 -1.522934 3.4015808 -3.4015732l0 0l15.861023 -0.20987701l-15.861023 -4.8924828z" fill-rule="evenodd"/></g><g filter="url(#shadowFilter-p.3)"><use xlink:href="#p.3" transform="matrix(1.0 0.0 0.0 1.0 0.0 2.0)"/></g><defs><filter id="shadowFilter-p.3" filterUnits="userSpaceOnUse"><feGaussianBlur in="SourceAlpha" stdDeviation="2.0" result="blur"/><feComponentTransfer in="blur" color-interpolation-filters="sRGB"><feFuncR type="linear" slope="0" intercept="0.8"/><feFuncG type="linear" slope="0" intercept="0.8"/><feFuncB type="linear" slope="0" intercept="0.8"/><feFuncA type="linear" slope="1.0" intercept="0"/></feComponentTransfer></filter></defs><g id="p.3"><path fill="#f4cccc" d="m388.96478 83.020744l0 0c0 -1.8786392 -1.5229492 -3.4015732 -3.4015808 -3.4015732l-26.20996 0l0 0l-44.417328 0l-100.238846 0c-0.90216064 0 -1.7673645 0.35838318 -2.4052887 0.99629974c-0.63790894 0.63791656 -0.9962921 1.5031204 -0.9962921 2.4052734l0 8.503937l0 0l0 5.1023636l0 0c0 1.8786392 1.522934 3.4015732 3.4015808 3.4015732l100.238846 0l44.417328 0l0 0l26.20996 0l0 0c1.8786316 0 3.4015808 -1.522934 3.4015808 -3.4015732l0 0l17.191284 -0.43540192l-17.191284 -4.6669617z" fill-rule="evenodd"/></g><g filter="url(#shadowFilter-p.4)"><use xlink:href="#p.4" transform="matrix(1.0 0.0 0.0 1.0 0.0 2.0)"/></g><defs><filter id="shadowFilter-p.4" filterUnits="userSpaceOnUse"><feGaussianBlur in="SourceAlpha" stdDeviation="2.0" result="blur"/><feComponentTransfer in="blur" color-interpolation-filters="sRGB"><feFuncR type="linear" slope="0" intercept="0.8"/><feFuncG type="linear" slope="0" intercept="0.8"/><feFuncB type="linear" slope="0" intercept="0.8"/><feFuncA type="linear" slope="1.0" intercept="0"/></feComponentTransfer></filter></defs><g id="p.4"><path fill="#fce5cd" d="m55.41545 112.54065l0 0c0 -1.8786392 1.5229378 -3.4015732 3.401577 -3.4015732l28.482937 0l0 0l47.826775 0l108.19423 0c0.9021454 0 1.7673492 0.35837555 2.4052734 0.9962921c0.6379242 0.6379242 0.9962921 1.503128 0.9962921 2.405281l0 8.503937l0 0l0 5.1023636l0 0c0 1.8786392 -1.522934 3.4015732 -3.4015656 3.4015732l-108.19423 0l-47.826775 0l0 0l-28.482937 0c-1.8786392 0 -3.401577 -1.522934 -3.401577 -3.4015732l0 0l-15.078823 0.17585754l15.078823 -5.278221z" fill-rule="evenodd"/></g><g filter="url(#shadowFilter-p.5)"><use xlink:href="#p.5" transform="matrix(1.0 0.0 0.0 1.0 0.0 2.0)"/></g><defs><filter id="shadowFilter-p.5" filterUnits="userSpaceOnUse"><feGaussianBlur in="SourceAlpha" stdDeviation="2.0" result="blur"/><feComponentTransfer in="blur" color-interpolation-filters="sRGB"><feFuncR type="linear" slope="0" intercept="0.8"/><feFuncG type="linear" slope="0" intercept="0.8"/><feFuncB type="linear" slope="0" intercept="0.8"/><feFuncA type="linear" slope="1.0" intercept="0"/></feComponentTransfer></filter></defs><g id="p.5"><path fill="#f4cccc" d="m393.97797 140.3445l0 0c0 -1.8786469 -1.5229187 -3.4015808 -3.4015808 -3.4015808l-23.427795 0l0 0l-40.24411 0l-90.50131 0c-0.9021454 0 -1.7673492 0.35838318 -2.4052734 0.9962921c-0.6379242 0.6379242 -0.9962921 1.503128 -0.9962921 2.4052887l0 8.503937l0 0l0 5.102356l0 0c0 1.8786469 1.522934 3.4015808 3.4015656 3.4015808l90.50131 0l40.24411 0l0 0l23.427795 0c1.8786621 0 3.4015808 -1.522934 3.4015808 -3.4015808l0 0l14.837189 -0.59643555l-14.837189 -4.5059204z" fill-rule="evenodd"/></g><g filter="url(#shadowFilter-p.6)"><use xlink:href="#p.6" transform="matrix(1.0 0.0 0.0 1.0 0.0 2.0)"/></g><defs><filter id="shadowFilter-p.6" filterUnits="userSpaceOnUse"><feGaussianBlur in="SourceAlpha" stdDeviation="2.0" result="blur"/><feComponentTransfer in="blur" color-interpolation-filters="sRGB"><feFuncR type="linear" slope="0" intercept="0.8"/><feFuncG type="linear" slope="0" intercept="0.8"/><feFuncB type="linear" slope="0" intercept="0.8"/><feFuncA type="linear" slope="1.0" intercept="0"/></feComponentTransfer></filter></defs><g id="p.6"><path fill="#fce5cd" d="m47.026245 170.58792l0 0c0 -1.8786316 1.5229378 -3.4015656 3.401577 -3.4015656l23.427822 0l0 0l40.244095 0l90.501305 0c0.90216064 0 1.7673645 0.35836792 2.4052887 0.9962921c0.63790894 0.6379242 0.9962921 1.503128 0.9962921 2.4052734l0 8.503937l0 0l0 5.102371l0 0c0 1.8786316 -1.522934 3.4015656 -3.4015808 3.4015656l-90.501305 0l-40.244095 0l0 0l-23.427822 0c-1.8786392 0 -3.401577 -1.522934 -3.401577 -3.4015656l0 0l-13.335281 -0.25723267l13.335281 -4.8451385z" fill-rule="evenodd"/></g><g filter="url(#shadowFilter-p.7)"><use xlink:href="#p.7" transform="matrix(1.0 0.0 0.0 1.0 0.0 2.0)"/></g><defs><filter id="shadowFilter-p.7" filterUnits="userSpaceOnUse"><feGaussianBlur in="SourceAlpha" stdDeviation="2.0" result="blur"/><feComponentTransfer in="blur" color-interpolation-filters="sRGB"><feFuncR type="linear" slope="0" intercept="0.8"/><feFuncG type="linear" slope="0" intercept="0.8"/><feFuncB type="linear" slope="0" intercept="0.8"/><feFuncA type="linear" slope="1.0" intercept="0"/></feComponentTransfer></filter></defs><g id="p.7"><path fill="#f4cccc" d="m388.96484 203.7769l0 0c0 -1.8786469 -1.5229187 -3.4015808 -3.4015808 -3.4015808l-23.427795 0l0 0l-40.24411 0l-90.50131 0c-0.9021454 0 -1.7673492 0.35838318 -2.4052734 0.9962921c-0.6379242 0.6379242 -0.9962921 1.503128 -0.9962921 2.4052887l0 8.503937l0 0l0 5.102356l0 0c0 1.8786316 1.522934 3.4015808 3.4015656 3.4015808l90.50131 0l40.24411 0l0 0l23.427795 0c1.8786621 0 3.4015808 -1.5229492 3.4015808 -3.4015808l0 0l15.861023 -0.20986938l-15.861023 -4.8924866z" fill-rule="evenodd"/></g><g filter="url(#shadowFilter-p.8)"><use xlink:href="#p.8" transform="matrix(1.0 0.0 0.0 1.0 0.0 2.0)"/></g><defs><filter id="shadowFilter-p.8" filterUnits="userSpaceOnUse"><feGaussianBlur in="SourceAlpha" stdDeviation="2.0" result="blur"/><feComponentTransfer in="blur" color-interpolation-filters="sRGB"><feFuncR type="linear" slope="0" intercept="0.8"/><feFuncG type="linear" slope="0" intercept="0.8"/><feFuncB type="linear" slope="0" intercept="0.8"/><feFuncA type="linear" slope="1.0" intercept="0"/></feComponentTransfer></filter></defs><g id="p.8"><path fill="#f4cccc" d="m388.96478 235.02075l0 0c0 -1.8786469 -1.5229492 -3.4015808 -3.4015808 -3.4015808l-26.20996 0l0 0l-44.417328 0l-100.238846 0c-0.90216064 0 -1.7673645 0.35838318 -2.4052887 0.9962921c-0.63790894 0.6379242 -0.9962921 1.503128 -0.9962921 2.4052887l0 8.503937l0 0l0 5.102356l0 0c0 1.8786316 1.522934 3.4015808 3.4015808 3.4015808l100.238846 0l44.417328 0l0 0l26.20996 0l0 0c1.8786316 0 3.4015808 -1.5229492 3.4015808 -3.4015808l0 0l17.191284 -0.4353943l-17.191284 -4.6669617z" fill-rule="evenodd"/></g><g filter="url(#shadowFilter-p.9)"><use xlink:href="#p.9" transform="matrix(1.0 0.0 0.0 1.0 0.0 2.0)"/></g><defs><filter id="shadowFilter-p.9" filterUnits="userSpaceOnUse"><feGaussianBlur in="SourceAlpha" stdDeviation="2.0" result="blur"/><feComponentTransfer in="blur" color-interpolation-filters="sRGB"><feFuncR type="linear" slope="0" intercept="0.8"/><feFuncG type="linear" slope="0" intercept="0.8"/><feFuncB type="linear" slope="0" intercept="0.8"/><feFuncA type="linear" slope="1.0" intercept="0"/></feComponentTransfer></filter></defs><g id="p.9"><path fill="#fce5cd" d="m55.41545 264.54065l0 0c0 -1.8786316 1.5229378 -3.4015808 3.401577 -3.4015808l28.482937 0l0 0l47.826775 0l108.19423 0c0.9021454 0 1.7673492 0.35839844 2.4052734 0.9963074c0.6379242 0.63790894 0.9962921 1.5031128 0.9962921 2.4052734l0 8.503937l0 0l0 5.102356l0 0c0 1.8786316 -1.522934 3.4015808 -3.4015656 3.4015808l-108.19423 0l-47.826775 0l0 0l-28.482937 0c-1.8786392 0 -3.401577 -1.5229492 -3.401577 -3.4015808l0 0l-15.078823 0.1758728l15.078823 -5.2782288z" fill-rule="evenodd"/></g><g filter="url(#shadowFilter-p.10)"><use xlink:href="#p.10" transform="matrix(1.0 0.0 0.0 1.0 0.0 2.0)"/></g><defs><filter id="shadowFilter-p.10" filterUnits="userSpaceOnUse"><feGaussianBlur in="SourceAlpha" stdDeviation="2.0" result="blur"/><feComponentTransfer in="blur" color-interpolation-filters="sRGB"><feFuncR type="linear" slope="0" intercept="0.8"/><feFuncG type="linear" slope="0" intercept="0.8"/><feFuncB type="linear" slope="0" intercept="0.8"/><feFuncA type="linear" slope="1.0" intercept="0"/></feComponentTransfer></filter></defs><g id="p.10"><path fill="#f4cccc" d="m393.97797 292.34448l0 0c0 -1.8786316 -1.5229187 -3.4015503 -3.4015808 -3.4015503l-23.427795 0l0 0l-40.24411 0l-90.50131 0c-0.9021454 0 -1.7673492 0.35836792 -2.4052734 0.99627686c-0.6379242 0.63793945 -0.9962921 1.5031433 -0.9962921 2.4052734l0 8.503937l0 0l0 5.1023865l0 0c0 1.8786316 1.522934 3.4015503 3.4015656 3.4015503l90.50131 0l40.24411 0l0 0l23.427795 0c1.8786621 0 3.4015808 -1.5229187 3.4015808 -3.4015503l0 0l14.837189 -0.59643555l-14.837189 -4.505951z" fill-rule="evenodd"/></g></g></svg>