<svg version="1.1" viewBox="0.0 0.0 116.88713910761155 100.0" fill="none" stroke="none" stroke-linecap="square" stroke-miterlimit="10" xmlns:xlink="http://www.w3.org/1999/xlink" xmlns="http://www.w3.org/2000/svg"><clipPath id="p.0"><path d="m0 0l116.88714 0l0 100.0l-116.88714 0l0 -100.0z" clip-rule="nonzero"/></clipPath><g clip-path="url(#p.0)"><path fill="#000000" fill-opacity="0.0" d="m0 0l116.88714 0l0 100.0l-116.88714 0z" fill-rule="evenodd"/><g filter="url(#shadowFilter-p.1)"><use xlink:href="#p.1" transform="matrix(1.0 0.0 0.0 1.0 0.0 2.0)"/></g><defs><filter id="shadowFilter-p.1" filterUnits="userSpaceOnUse"><feGaussianBlur in="SourceAlpha" stdDeviation="2.0" result="blur"/><feComponentTransfer in="blur" color-interpolation-filters="sRGB"><feFuncR type="linear" slope="0" intercept="0.0"/><feFuncG type="linear" slope="0" intercept="0.0"/><feFuncB type="linear" slope="0" intercept="0.0"/><feFuncA type="linear" slope="0.5" intercept="0"/></feComponentTransfer></filter></defs><g id="p.1"><path fill="#ffffff" d="m29.109777 21.407915l0 0c0 -7.7609777 6.2915173 -14.052494 14.052492 -14.052494l0 0l0 0l21.078743 0l35.131233 0l0 0c3.7269516 0 7.301262 1.4805264 9.936615 4.1158805c2.635353 2.635353 4.1158752 6.2096596 4.1158752 9.936613l0 35.70079l0 0l0 21.32283l0 0.16273499c0 7.7609787 -6.2915115 14.05249 -14.05249 14.05249l-35.131233 0l-21.078743 0l0 0l0 0c-7.760975 0 -14.052492 -6.2915115 -14.052492 -14.05249l0 -0.16273499l-27.068476 0.30591583l27.068476 -21.628746z" fill-rule="evenodd"/><path fill="#b6d7a8" d="m70.22624 57.291714l-1.078125 -15.171875l0 -6.359375l4.359375 0l0 6.359375l-1.015625 15.171875l-2.265625 0zm-0.921875 7.109379l0 -4.000004l4.046875 0l0 4.000004l-4.046875 0z" fill-rule="nonzero"/></g></g></svg>