<svg version="1.1" viewBox="0.0 0.0 133.55905511811022 176.1286089238845" fill="none" stroke="none" stroke-linecap="square" stroke-miterlimit="10" xmlns:xlink="http://www.w3.org/1999/xlink" xmlns="http://www.w3.org/2000/svg"><clipPath id="p.0"><path d="m0 0l133.55905 0l0 176.12862l-133.55905 0l0 -176.12862z" clip-rule="nonzero"/></clipPath><g clip-path="url(#p.0)"><path fill="#000000" fill-opacity="0.0" d="m0 0l133.55905 0l0 176.12862l-133.55905 0z" fill-rule="evenodd"/><path fill="#000000" fill-opacity="0.0" d="m108.98333 151.63898l0 0c-26.9898 16.124863 -60.34173 8.604416 -79.71129 -17.973923c-19.36956 -26.578323 -19.38026 -64.83707 -0.025577545 -91.4386c19.354683 -26.601532 52.702396 -34.161953 79.7012 -18.069448l-30.052528 63.759003z" fill-rule="evenodd"/><path fill="#000000" fill-opacity="0.0" d="m108.98333 151.63898l0 0c-26.9898 16.124863 -60.34173 8.604416 -79.71129 -17.973923c-19.36956 -26.578323 -19.38026 -64.83707 -0.025577545 -91.4386c19.354683 -26.601532 52.702396 -34.161953 79.7012 -18.069448" fill-rule="evenodd"/><path stroke="#666666" stroke-width="24.0" stroke-linejoin="round" stroke-linecap="butt" d="m108.98333 151.63898l0 0c-26.9898 16.124863 -60.34173 8.604416 -79.71129 -17.973923c-19.36956 -26.578323 -19.38026 -64.83707 -0.025577545 -91.4386c19.354683 -26.601532 52.702396 -34.161953 79.7012 -18.069448" fill-rule="evenodd"/><path fill="#000000" fill-opacity="0.0" d="m20.296875 104.80688l43.43307 0" fill-rule="evenodd"/><path stroke="#666666" stroke-width="16.0" stroke-linejoin="round" stroke-linecap="butt" d="m20.296875 104.80688l43.43307 0" fill-rule="evenodd"/><path fill="#000000" fill-opacity="0.0" d="m18.37733 76.14481l52.56693 0.25196838" fill-rule="evenodd"/><path stroke="#666666" stroke-width="16.0" stroke-linejoin="round" stroke-linecap="butt" d="m18.37733 76.14481l52.56693 0.25196838" fill-rule="evenodd"/></g></svg>