<svg version="1.1" viewBox="0.0 0.0 300.0 300.0" fill="none" stroke="none" stroke-linecap="square" stroke-miterlimit="10" xmlns:xlink="http://www.w3.org/1999/xlink" xmlns="http://www.w3.org/2000/svg"><clipPath id="p.0"><path d="m0 0l300.0 0l0 300.0l-300.0 0l0 -300.0z" clip-rule="nonzero"/></clipPath><g clip-path="url(#p.0)"><path fill="#000000" fill-opacity="0.0" d="m0 0l300.0 0l0 300.0l-300.0 0z" fill-rule="evenodd"/><path fill="#fce5cd" d="m1.9238173 150.0236l0 0c0 -81.78163 66.297104 -148.07874 148.07875 -148.07874l0 0c39.27292 0 76.93733 15.601108 104.70747 43.371258c27.770157 27.77015 43.37126 65.434555 43.37126 104.70748l0 0c0 81.78163 -66.297104 148.07875 -148.07874 148.07875l0 0c-81.78164 0 -148.07875 -66.29712 -148.07875 -148.07875z" fill-rule="evenodd"/><g filter="url(#shadowFilter-p.1)"><use xlink:href="#p.1" transform=""/></g><defs><filter id="shadowFilter-p.1" filterUnits="userSpaceOnUse"><feGaussianBlur in="SourceAlpha" stdDeviation="2.0" result="blur"/><feComponentTransfer in="blur" color-interpolation-filters="sRGB"><feFuncR type="linear" slope="0" intercept="0.4"/><feFuncG type="linear" slope="0" intercept="0.4"/><feFuncB type="linear" slope="0" intercept="0.4"/><feFuncA type="linear" slope="0.5" intercept="0"/></feComponentTransfer></filter></defs><g id="p.1"><path fill="#000000" fill-opacity="0.0" d="m80.38145 134.0162l51.622047 0" fill-rule="evenodd"/><path stroke="#f2a14d" stroke-width="24.0" stroke-linejoin="round" stroke-linecap="butt" d="m80.38145 134.0162l51.622047 0" fill-rule="evenodd"/></g><g filter="url(#shadowFilter-p.2)"><use xlink:href="#p.2" transform="matrix(1.0 0.0 0.0 1.0 0.0 2.0)"/></g><defs><filter id="shadowFilter-p.2" filterUnits="userSpaceOnUse"><feGaussianBlur in="SourceAlpha" stdDeviation="2.0" result="blur"/><feComponentTransfer in="blur" color-interpolation-filters="sRGB"><feFuncR type="linear" slope="0" intercept="0.4"/><feFuncG type="linear" slope="0" intercept="0.4"/><feFuncB type="linear" slope="0" intercept="0.4"/><feFuncA type="linear" slope="0.5" intercept="0"/></feComponentTransfer></filter></defs><g id="p.2"><path fill="#000000" fill-opacity="0.0" d="m78.10033 105.35415l62.456696 0.25196838" fill-rule="evenodd"/><path stroke="#f2a14d" stroke-width="24.0" stroke-linejoin="round" stroke-linecap="butt" d="m78.10033 105.35415l62.456696 0.25196838" fill-rule="evenodd"/></g><g filter="url(#shadowFilter-p.3)"><use xlink:href="#p.3" transform="matrix(1.0 0.0 0.0 1.0 0.0 2.0)"/></g><defs><filter id="shadowFilter-p.3" filterUnits="userSpaceOnUse"><feGaussianBlur in="SourceAlpha" stdDeviation="2.0" result="blur"/><feComponentTransfer in="blur" color-interpolation-filters="sRGB"><feFuncR type="linear" slope="0" intercept="0.4"/><feFuncG type="linear" slope="0" intercept="0.4"/><feFuncB type="linear" slope="0" intercept="0.4"/><feFuncA type="linear" slope="0.5" intercept="0"/></feComponentTransfer></filter></defs><g id="p.3"><path fill="#000000" fill-opacity="0.0" d="m181.11398 182.99811c-31.973618 13.529877 -69.568924 4.703369 -91.14752 -21.399307c-21.578606 -26.102676 -21.58957 -62.7668 -0.026573181 -88.88994c21.562996 -26.123146 59.153008 -34.985302 91.13471 -21.485767l-31.063309 65.90225z" fill-rule="evenodd"/><path fill="#000000" fill-opacity="0.0" d="m181.11398 182.99811c-31.973618 13.529877 -69.568924 4.703369 -91.14752 -21.399307c-21.578606 -26.102676 -21.58957 -62.7668 -0.026573181 -88.88994c21.562996 -26.123146 59.153008 -34.985302 91.13471 -21.485767" fill-rule="evenodd"/><path stroke="#f2a14d" stroke-width="24.0" stroke-linejoin="round" stroke-linecap="butt" d="m181.11398 182.99811c-31.973618 13.529877 -69.568924 4.703369 -91.14752 -21.399307c-21.578606 -26.102676 -21.58957 -62.7668 -0.026573181 -88.88994c21.562996 -26.123146 59.153008 -34.985302 91.13471 -21.485767" fill-rule="evenodd"/></g><path fill="#000000" fill-opacity="0.0" d="m28.252811 220.81956l243.49606 0l0 28.409454l-243.49606 0z" fill-rule="evenodd"/><path fill="#666666" d="m102.88472 246.37769q0 1.90625 -1.40625 3.015625q-1.390625 1.109375 -3.71875 1.109375q-2.796875 0 -4.28125 -0.609375l0 -1.0625q1.640625 0.703125 4.203125 0.703125q1.875 0 2.96875 -0.859375q1.09375 -0.859375 1.09375 -2.265625q0 -0.859375 -0.359375 -1.421875q-0.359375 -0.578125 -1.1875 -1.046875q-0.828125 -0.46875 -2.421875 -1.0q-2.328125 -0.8125 -3.21875 -1.734375q-0.890625 -0.9375 -0.890625 -2.484375q0 -1.703125 1.328125 -2.78125q1.34375 -1.078125 3.453125 -1.078125q2.140625 0 4.03125 0.8125l-0.390625 0.90625q-1.890625 -0.78125 -3.625 -0.78125q-1.6875 0 -2.6875 0.78125q-1.0 0.78125 -1.0 2.125q0 0.84375 0.3125 1.390625q0.3125 0.53125 1.0 0.96875q0.703125 0.421875 2.40625 1.03125q1.78125 0.609375 2.671875 1.1875q0.890625 0.578125 1.296875 1.3125q0.421875 0.734375 0.421875 1.78125zm9.825287 3.921875l-0.25 -1.796875l-0.09375 0q-0.84375 1.09375 -1.75 1.546875q-0.90625 0.453125 -2.125 0.453125q-1.671875 0 -2.609375 -0.84375q-0.921875 -0.859375 -0.921875 -2.375q0 -1.65625 1.375 -2.5625q1.390625 -0.921875 4.0 -0.96875l2.15625 -0.0625l0 -0.75q0 -1.625 -0.65625 -2.4375q-0.65625 -0.828125 -2.109375 -0.828125q-1.578125 0 -3.265625 0.875l-0.375 -0.890625q1.859375 -0.875 3.6875 -0.875q1.859375 0 2.78125 0.96875q0.921875 0.96875 0.921875 3.015625l0 7.53125l-0.765625 0zm-4.15625 -0.734375q1.8125 0 2.859375 -1.03125q1.046875 -1.03125 1.046875 -2.875l0 -1.125l-1.984375 0.09375q-2.390625 0.109375 -3.40625 0.75q-1.015625 0.625 -1.015625 1.953125q0 1.0625 0.65625 1.65625q0.65625 0.578125 1.84375 0.578125zm11.064957 0.734375l-4.375 -11.3125l1.0625 0l2.921875 7.6875q0.59375 1.484375 0.875 2.578125l0.0625 0q0.4375 -1.40625 0.875 -2.59375l2.9375 -7.671875l1.0625 0l-4.375 11.3125l-1.046875 0zm11.883026 0.203125q-2.46875 0 -3.859375 -1.515625q-1.375 -1.515625 -1.375 -4.265625q0 -2.703125 1.328125 -4.328125q1.34375 -1.625 3.609375 -1.625q2.0 0 3.15625 1.390625q1.15625 1.390625 1.15625 3.78125l0 0.84375l-8.15625 0q0.015625 2.328125 1.078125 3.5625q1.078125 1.21875 3.0625 1.21875q0.96875 0 1.703125 -0.125q0.734375 -0.140625 1.859375 -0.59375l0 0.9375q-0.953125 0.421875 -1.765625 0.5625q-0.8125 0.15625 -1.796875 0.15625zm-0.296875 -10.828125q-1.640625 0 -2.640625 1.078125q-0.984375 1.078125 -1.140625 3.109375l7.0 0q0 -1.96875 -0.859375 -3.078125q-0.859375 -1.109375 -2.359375 -1.109375zm27.105164 10.625l0 -7.421875q0 -1.65625 -0.640625 -2.421875q-0.640625 -0.765625 -1.984375 -0.765625q-1.734375 0 -2.5625 0.96875q-0.828125 0.953125 -0.828125 3.0l0 6.640625l-1.0625 0l0 -7.734375q0 -2.875 -2.625 -2.875q-1.78125 0 -2.59375 1.046875q-0.8125 1.03125 -0.8125 3.3125l0 6.25l-1.03125 0l0 -11.3125l0.859375 0l0.21875 1.546875l0.0625 0q0.46875 -0.84375 1.328125 -1.296875q0.875 -0.46875 1.90625 -0.46875q2.6875 0 3.4375 2.0l0.046875 0q0.546875 -0.96875 1.46875 -1.484375q0.9375 -0.515625 2.125 -0.515625q1.859375 0 2.78125 0.984375q0.9375 0.984375 0.9375 3.140625l0 7.40625l-1.03125 0zm14.047485 -5.671875q0 2.765625 -1.34375 4.328125q-1.328125 1.546875 -3.703125 1.546875q-1.484375 0 -2.625 -0.71875q-1.125 -0.71875 -1.734375 -2.0625q-0.609375 -1.34375 -0.609375 -3.09375q0 -2.78125 1.34375 -4.3125q1.34375 -1.546875 3.6875 -1.546875q2.34375 0 3.65625 1.5625q1.328125 1.5625 1.328125 4.296875zm-8.921875 0q0 2.328125 1.015625 3.640625q1.03125 1.296875 2.90625 1.296875q1.875 0 2.890625 -1.296875q1.03125 -1.3125 1.03125 -3.640625q0 -2.34375 -1.03125 -3.640625q-1.03125 -1.296875 -2.90625 -1.296875q-1.875 0 -2.890625 1.296875q-1.015625 1.28125 -1.015625 3.640625zm19.965698 5.671875l0 -7.34375q0 -1.703125 -0.71875 -2.484375q-0.71875 -0.78125 -2.234375 -0.78125q-2.03125 0 -2.984375 1.03125q-0.9375 1.03125 -0.9375 3.328125l0 6.25l-1.03125 0l0 -11.3125l0.875 0l0.203125 1.546875l0.0625 0q1.109375 -1.765625 3.921875 -1.765625q3.859375 0 3.859375 4.125l0 7.40625l-1.015625 0zm9.252136 0.203125q-2.46875 0 -3.859375 -1.515625q-1.375 -1.515625 -1.375 -4.265625q0 -2.703125 1.328125 -4.328125q1.34375 -1.625 3.609375 -1.625q2.0 0 3.15625 1.390625q1.15625 1.390625 1.15625 3.78125l0 0.84375l-8.15625 0q0.015625 2.328125 1.078125 3.5625q1.078125 1.21875 3.0625 1.21875q0.96875 0 1.703125 -0.125q0.734375 -0.140625 1.859375 -0.59375l0 0.9375q-0.953125 0.421875 -1.765625 0.5625q-0.8125 0.15625 -1.796875 0.15625zm-0.296875 -10.828125q-1.640625 0 -2.640625 1.078125q-0.984375 1.078125 -1.140625 3.109375l7.0 0q0 -1.96875 -0.859375 -3.078125q-0.859375 -1.109375 -2.359375 -1.109375zm5.5336 -0.6875l1.0625 0l2.390625 6.34375q1.09375 2.921875 1.390625 3.953125l0.0625 0q0.4375 -1.34375 1.421875 -4.015625l2.40625 -6.28125l1.0625 0l-5.078125 13.140625q-0.609375 1.609375 -1.03125 2.171875q-0.421875 0.5625 -0.984375 0.84375q-0.546875 0.28125 -1.34375 0.28125q-0.59375 0 -1.3125 -0.21875l0 -0.890625q0.59375 0.15625 1.296875 0.15625q0.53125 0 0.9375 -0.25q0.40625 -0.25 0.734375 -0.78125q0.328125 -0.515625 0.75 -1.65625q0.4375 -1.140625 0.5625 -1.484375l-4.328125 -11.3125z" fill-rule="nonzero"/></g></svg>