<svg version="1.1" viewBox="0.0 0.0 450.0 200.0" fill="none" stroke="none" stroke-linecap="square" stroke-miterlimit="10" xmlns:xlink="http://www.w3.org/1999/xlink" xmlns="http://www.w3.org/2000/svg"><clipPath id="p.0"><path d="m0 0l450.0 0l0 200.0l-450.0 0l0 -200.0z" clip-rule="nonzero"/></clipPath><g clip-path="url(#p.0)"><path fill="#000000" fill-opacity="0.0" d="m0 0l450.0 0l0 200.0l-450.0 0z" fill-rule="evenodd"/><path fill="#fcf2e7" d="m0.95013124 99.93874l0 0c0 -55.089314 44.658714 -99.74803 99.74803 -99.74803l248.59843 0l0 0c26.454803 0 51.82611 10.509137 70.5325 29.21552c18.70639 18.706385 29.215515 44.07769 29.215515 70.53251l0 0l0 0c0 55.089317 -44.658722 99.74804 -99.74802 99.74804l-248.59843 0c-55.08932 0 -99.74803 -44.658722 -99.74803 -99.74804z" fill-rule="evenodd"/><g filter="url(#shadowFilter-p.1)"><use xlink:href="#p.1" transform="matrix(1.0 0.0 0.0 1.0 0.0 2.0)"/></g><defs><filter id="shadowFilter-p.1" filterUnits="userSpaceOnUse"><feGaussianBlur in="SourceAlpha" stdDeviation="2.0" result="blur"/><feComponentTransfer in="blur" color-interpolation-filters="sRGB"><feFuncR type="linear" slope="0" intercept="0.0"/><feFuncG type="linear" slope="0" intercept="0.0"/><feFuncB type="linear" slope="0" intercept="0.0"/><feFuncA type="linear" slope="0.5" intercept="0"/></feComponentTransfer></filter></defs><g id="p.1"><path fill="#a4c2f4" d="m86.30518 106.516785l9.637802 -6.834648l3.2440948 4.4409485l-9.637802 6.834648z" fill-rule="evenodd"/></g><path fill="#000000" fill-opacity="0.0" d="m11.917159 152.26236l177.44882 0l0 20.34645l-177.44882 0z" fill-rule="evenodd"/><path fill="#666666" d="m78.34686 164.60922q0 1.1875 -0.875 1.890625q-0.875 0.6875 -2.328125 0.6875q-1.734375 0 -2.671875 -0.375l0 -0.671875q1.03125 0.4375 2.625 0.4375q1.171875 0 1.859375 -0.53125q0.6875 -0.546875 0.6875 -1.40625q0 -0.546875 -0.234375 -0.890625q-0.21875 -0.359375 -0.734375 -0.65625q-0.515625 -0.296875 -1.515625 -0.625q-1.453125 -0.515625 -2.015625 -1.09375q-0.546875 -0.578125 -0.546875 -1.546875q0 -1.0625 0.828125 -1.734375q0.84375 -0.6875 2.15625 -0.6875q1.34375 0 2.515625 0.515625l-0.234375 0.5625q-1.1875 -0.484375 -2.265625 -0.484375q-1.0625 0 -1.6875 0.484375q-0.625 0.484375 -0.625 1.328125q0 0.53125 0.1875 0.875q0.203125 0.328125 0.640625 0.609375q0.4375 0.265625 1.5 0.640625q1.109375 0.375 1.65625 0.75q0.5625 0.359375 0.8125 0.8125q0.265625 0.453125 0.265625 1.109375zm6.153412 2.453125l-0.171875 -1.125l-0.046875 0q-0.53125 0.6875 -1.09375 0.96875q-0.5625 0.28125 -1.328125 0.28125q-1.046875 0 -1.625 -0.53125q-0.578125 -0.53125 -0.578125 -1.46875q0 -1.046875 0.859375 -1.609375q0.859375 -0.578125 2.5 -0.609375l1.34375 -0.03125l0 -0.46875q0 -1.015625 -0.421875 -1.53125q-0.40625 -0.515625 -1.3125 -0.515625q-0.984375 0 -2.03125 0.546875l-0.25 -0.5625q1.171875 -0.546875 2.3125 -0.546875q1.15625 0 1.734375 0.609375q0.578125 0.609375 0.578125 1.890625l0 4.703125l-0.46875 0zm-2.609375 -0.453125q1.140625 0 1.78125 -0.640625q0.65625 -0.65625 0.65625 -1.8125l0 -0.6875l-1.234375 0.046875q-1.484375 0.078125 -2.125 0.46875q-0.625 0.390625 -0.625 1.21875q0 0.671875 0.40625 1.046875q0.40625 0.359375 1.140625 0.359375zm6.9204254 0.453125l-2.734375 -7.078125l0.65625 0l1.84375 4.8125q0.359375 0.921875 0.546875 1.609375l0.03125 0q0.265625 -0.875 0.546875 -1.625l1.828125 -4.796875l0.671875 0l-2.734375 7.078125l-0.65625 0zm7.429901 0.125q-1.546875 0 -2.40625 -0.9375q-0.859375 -0.953125 -0.859375 -2.671875q0 -1.6875 0.828125 -2.703125q0.828125 -1.015625 2.25 -1.015625q1.25 0 1.96875 0.875q0.71875 0.859375 0.71875 2.359375l0 0.515625l-5.09375 0q0.015625 1.46875 0.671875 2.234375q0.671875 0.765625 1.921875 0.765625q0.59375 0 1.046875 -0.078125q0.46875 -0.09375 1.171875 -0.375l0 0.59375q-0.59375 0.25 -1.109375 0.34375q-0.5 0.09375 -1.109375 0.09375zm-0.1875 -6.765625q-1.03125 0 -1.65625 0.671875q-0.609375 0.671875 -0.71875 1.953125l4.375 0q0 -1.234375 -0.53125 -1.921875q-0.53125 -0.703125 -1.46875 -0.703125zm9.964539 6.203125q0.609375 0 1.078125 -0.109375l0 0.515625q-0.46875 0.15625 -1.078125 0.15625q-0.9375 0 -1.390625 -0.5q-0.453125 -0.5 -0.453125 -1.578125l0 -4.5625l-1.046875 0l0 -0.375l1.046875 -0.296875l0.328125 -1.59375l0.34375 0l0 1.703125l2.0625 0l0 0.5625l-2.0625 0l0 4.484375q0 0.8125 0.28125 1.203125q0.28125 0.390625 0.890625 0.390625zm3.2456512 0.4375l-0.640625 0l0 -7.078125l0.640625 0l0 7.078125zm-0.734375 -9.046875q0 -0.625 0.40625 -0.625q0.203125 0 0.3125 0.171875q0.125 0.15625 0.125 0.453125q0 0.296875 -0.125 0.46875q-0.109375 0.171875 -0.3125 0.171875q-0.40625 0 -0.40625 -0.640625zm11.935028 9.046875l0 -4.640625q0 -1.03125 -0.40625 -1.5q-0.390625 -0.484375 -1.234375 -0.484375q-1.078125 0 -1.609375 0.609375q-0.515625 0.59375 -0.515625 1.875l0 4.140625l-0.65625 0l0 -4.828125q0 -1.796875 -1.640625 -1.796875q-1.109375 0 -1.625 0.65625q-0.5 0.640625 -0.5 2.0625l0 3.90625l-0.640625 0l0 -7.078125l0.53125 0l0.140625 0.96875l0.03125 0q0.296875 -0.515625 0.828125 -0.796875q0.546875 -0.296875 1.203125 -0.296875q1.671875 0 2.140625 1.25l0.03125 0q0.34375 -0.609375 0.921875 -0.921875q0.578125 -0.328125 1.328125 -0.328125q1.15625 0 1.734375 0.625q0.578125 0.609375 0.578125 1.953125l0 4.625l-0.640625 0zm5.7974854 0.125q-1.546875 0 -2.40625 -0.9375q-0.859375 -0.953125 -0.859375 -2.671875q0 -1.6875 0.828125 -2.703125q0.828125 -1.015625 2.25 -1.015625q1.25 0 1.96875 0.875q0.71875 0.859375 0.71875 2.359375l0 0.515625l-5.09375 0q0.015625 1.46875 0.671875 2.234375q0.671875 0.765625 1.921875 0.765625q0.59375 0 1.046875 -0.078125q0.46875 -0.09375 1.171875 -0.375l0 0.59375q-0.59375 0.25 -1.109375 0.34375q-0.5 0.09375 -1.109375 0.09375zm-0.1875 -6.765625q-1.03125 0 -1.65625 0.671875q-0.609375 0.671875 -0.71875 1.953125l4.375 0q0 -1.234375 -0.53125 -1.921875q-0.53125 -0.703125 -1.46875 -0.703125z" fill-rule="nonzero"/><path fill="#000000" fill-opacity="0.0" d="m210.00984 57.31999l215.87401 0l0 96.0l-215.87401 0z" fill-rule="evenodd"/><path fill="#000000" d="m213.22859 62.277485l2.34375 0q1.59375 0 2.328125 0.546875q0.75 0.53125 0.75 1.6093788q0 0.75 -0.453125 1.25q-0.453125 0.484375 -1.328125 0.625l0 0.046875q1.03125 0.140625 1.5 0.640625q0.484375 0.5 0.484375 1.375q0 1.1875 -0.78125 1.828125q-0.78125 0.640625 -2.21875 0.640625l-2.625 0l0 -8.562504zm0.59375 3.8125038l1.890625 0q1.203125 0 1.75 -0.40625q0.546875 -0.40625 0.546875 -1.25q0 -0.8593788 -0.625 -1.2500038q-0.609375 -0.390625 -1.828125 -0.390625l-1.734375 0l0 3.2968788zm0 0.53125l0 3.6875l2.015625 0q2.375 0 2.375 -1.9375q0 -1.75 -2.5 -1.75l-1.890625 0zm5.7109375 -2.15625l0.59375 0l1.359375 3.578125q0.609375 1.640625 0.765625 2.21875l0.046875 0q0.234375 -0.75 0.796875 -2.25l1.34375 -3.546875l0.609375 0l-2.859375 7.40625q-0.34375 0.90625 -0.578125 1.21875q-0.234375 0.3125 -0.546875 0.46875q-0.3125 0.171875 -0.765625 0.171875q-0.328125 0 -0.734375 -0.125l0 -0.515625q0.328125 0.09375 0.71875 0.09375q0.3125 0 0.53125 -0.140625q0.234375 -0.140625 0.40625 -0.4375q0.1875 -0.28125 0.4375 -0.9375q0.25 -0.640625 0.3125 -0.828125l-2.4375 -6.375zm14.140625 6.375l0 -4.125q0 -0.96875 -0.40625 -1.40625q-0.40625 -0.4375 -1.265625 -0.4375q-1.140625 0 -1.671875 0.578125q-0.53125 0.578125 -0.53125 1.875l0 3.515625l-0.578125 0l0 -9.125004l0.578125 0l0 2.9062538l-0.015625 0.8125l0.03125 0q0.359375 -0.578125 0.90625 -0.828125q0.546875 -0.265625 1.359375 -0.265625q2.15625 0 2.15625 2.328125l0 4.171875l-0.5625 0zm3.203125 0l-0.578125 0l0 -6.375l0.578125 0l0 6.375zm-0.65625 -8.140629q0 -0.5625 0.375 -0.5625q0.171875 0 0.265625 0.15625q0.109375 0.140625 0.109375 0.40625q0 0.265625 -0.109375 0.421875q-0.09375 0.140625 -0.265625 0.140625q-0.375 0 -0.375 -0.5625zm5.3066406 1.6406288q0.40625 0 0.859375 0.09375l-0.109375 0.546875q-0.390625 -0.09375 -0.828125 -0.09375q-0.8125 0 -1.34375 0.6875q-0.515625 0.6875 -0.515625 1.75l0 3.515625l-0.578125 0l0 -6.375l0.5 0l0.0625 1.15625l0.03125 0q0.390625 -0.703125 0.828125 -0.984375q0.453125 -0.296875 1.09375 -0.296875zm2.7324219 6.5l-0.578125 0l0 -6.375l0.578125 0l0 6.375zm-0.65625 -8.140629q0 -0.5625 0.375 -0.5625q0.171875 0 0.265625 0.15625q0.109375 0.140625 0.109375 0.40625q0 0.265625 -0.109375 0.421875q-0.09375 0.140625 -0.265625 0.140625q-0.375 0 -0.375 -0.5625zm7.2441406 8.140629l0 -4.125q0 -0.96875 -0.40625 -1.40625q-0.40625 -0.4375 -1.265625 -0.4375q-1.140625 0 -1.671875 0.578125q-0.53125 0.578125 -0.53125 1.875l0 3.515625l-0.578125 0l0 -6.375l0.5 0l0.109375 0.875l0.03125 0q0.625 -1.0 2.21875 -1.0q2.15625 0 2.15625 2.328125l0 4.171875l-0.5625 0zm7.5937653 -6.375l0 0.40625l-1.3125 0.078125q0.53125 0.65625 0.53125 1.453125q0 0.921875 -0.625 1.5q-0.609375 0.5625 -1.6406403 0.5625q-0.421875 0 -0.609375 -0.046875q-0.34375 0.1875 -0.53125 0.4375q-0.171875 0.25 -0.171875 0.515625q0 0.3125 0.234375 0.453125q0.234375 0.140625 0.765625 0.140625l1.1250153 0q1.03125 0 1.578125 0.421875q0.5625 0.40625 0.5625 1.234375q0 1.0 -0.828125 1.546875q-0.8125 0.5625 -2.3281403 0.5625q-1.203125 0 -1.859375 -0.46875q-0.65625 -0.46875 -0.65625 -1.296875q0 -0.65625 0.40625 -1.09375q0.40625 -0.421875 1.109375 -0.578125q-0.296875 -0.125 -0.46875 -0.34375q-0.171875 -0.234375 -0.171875 -0.53125q0 -0.640625 0.8125 -1.125q-0.546875 -0.21875 -0.859375 -0.703125q-0.3125 -0.5 -0.3125 -1.140625q0 -0.953125 0.609375 -1.53125q0.609375 -0.578125 1.640625 -0.578125q0.62501526 0 0.96876526 0.125l2.03125 0zm-5.1562653 7.453125q0 1.3125 1.953125 1.3125q2.5156403 0 2.5156403 -1.59375q0 -0.578125 -0.40625 -0.828125q-0.390625 -0.265625 -1.265625 -0.265625l-1.0468903 0q-1.75 0 -1.75 1.375zm0.484375 -5.46875q0 0.75 0.453125 1.15625q0.453125 0.40625 1.203125 0.40625q0.79689026 0 1.2187653 -0.40625q0.421875 -0.40625 0.421875 -1.171875q0 -0.8125 -0.4375 -1.21875q-0.4375 -0.40625 -1.2187653 -0.40625q-0.765625 0 -1.203125 0.4375q-0.4375 0.4375 -0.4375 1.203125zm17.064468 4.390625l0 -4.171875q0 -0.9375 -0.375 -1.359375q-0.359375 -0.4375 -1.109375 -0.4375q-0.984375 0 -1.453125 0.546875q-0.46875 0.53125 -0.46875 1.6875l0 3.734375l-0.578125 0l0 -4.359375q0 -1.609375 -1.484375 -1.609375q-1.0 0 -1.46875 0.59375q-0.453125 0.578125 -0.453125 1.859375l0 3.515625l-0.578125 0l0 -6.375l0.484375 0l0.125 0.875l0.03125 0q0.265625 -0.46875 0.75 -0.734375q0.484375 -0.265625 1.078125 -0.265625q1.5 0 1.9375 1.140625l0.015625 0q0.3125 -0.546875 0.828125 -0.84375q0.53125 -0.296875 1.203125 -0.296875q1.046875 0 1.5625 0.5625q0.515625 0.5625 0.515625 1.765625l0 4.171875l-0.5625 0zm5.203125 0.125q-1.390625 0 -2.171875 -0.859375q-0.765625 -0.859375 -0.765625 -2.40625q0 -1.515625 0.75 -2.4375q0.75 -0.921875 2.015625 -0.921875q1.125 0 1.765625 0.796875q0.65625 0.78125 0.65625 2.125l0 0.46875l-4.578125 0q0 1.3125 0.59375 2.015625q0.609375 0.6875 1.734375 0.6875q0.546875 0 0.953125 -0.078125q0.421875 -0.078125 1.046875 -0.328125l0 0.53125q-0.53125 0.234375 -1.0 0.3125q-0.453125 0.09375 -1.0 0.09375zm-0.171875 -6.109375q-0.921875 0 -1.484375 0.609375q-0.546875 0.609375 -0.640625 1.75l3.9375 0q0 -1.109375 -0.484375 -1.734375q-0.484375 -0.625 -1.328125 -0.625zm4.8515625 4.59375l0.0625 0.125q-0.4375 1.546875 -1.015625 2.8125l-0.375 0q0.4375 -1.609375 0.640625 -2.9375l0.6875 0zm3.9609375 -4.984375l0.59375 0l1.359375 3.578125q0.609375 1.640625 0.765625 2.21875l0.046875 0q0.234375 -0.75 0.796875 -2.25l1.34375 -3.546875l0.609375 0l-2.859375 7.40625q-0.34375 0.90625 -0.578125 1.21875q-0.234375 0.3125 -0.546875 0.46875q-0.3125 0.171875 -0.765625 0.171875q-0.328125 0 -0.734375 -0.125l0 -0.515625q0.328125 0.09375 0.71875 0.09375q0.3125 0 0.53125 -0.140625q0.234375 -0.140625 0.40625 -0.4375q0.1875 -0.28125 0.4375 -0.9375q0.25 -0.640625 0.3125 -0.828125l-2.4375 -6.375zm11.8359375 3.1875q0 1.546875 -0.75 2.4375q-0.75 0.875 -2.078125 0.875q-0.84375 0 -1.484375 -0.40625q-0.640625 -0.40625 -0.984375 -1.15625q-0.328125 -0.765625 -0.328125 -1.75q0 -1.5625 0.75 -2.4375q0.75 -0.875 2.078125 -0.875q1.3125 0 2.046875 0.890625q0.75 0.875 0.75 2.421875zm-5.015625 0q0 1.3125 0.578125 2.046875q0.578125 0.734375 1.625 0.734375q1.0625 0 1.625 -0.734375q0.578125 -0.734375 0.578125 -2.046875q0 -1.328125 -0.578125 -2.046875q-0.578125 -0.734375 -1.640625 -0.734375q-1.046875 0 -1.625 0.734375q-0.5625 0.71875 -0.5625 2.046875zm7.296875 -3.1875l0 4.125q0 0.96875 0.390625 1.40625q0.40625 0.4375 1.265625 0.4375q1.125 0 1.65625 -0.578125q0.546875 -0.578125 0.546875 -1.875l0 -3.515625l0.578125 0l0 6.375l-0.5 0l-0.09375 -0.875l-0.046875 0q-0.609375 1.0 -2.203125 1.0q-2.171875 0 -2.171875 -2.328125l0 -4.171875l0.578125 0zm13.5546875 6.375l-0.15625 -1.015625l-0.046875 0q-0.46875 0.625 -0.984375 0.890625q-0.5 0.25 -1.1875 0.25q-0.9375 0 -1.46875 -0.484375q-0.515625 -0.484375 -0.515625 -1.328125q0 -0.9375 0.765625 -1.453125q0.78125 -0.515625 2.25 -0.546875l1.21875 -0.03125l0 -0.421875q0 -0.90625 -0.375 -1.375q-0.359375 -0.46875 -1.1875 -0.46875q-0.875 0 -1.828125 0.5l-0.21875 -0.5q1.046875 -0.5 2.078125 -0.5q1.046875 0 1.5625 0.546875q0.515625 0.546875 0.515625 1.703125l0 4.234375l-0.421875 0zm-2.34375 -0.40625q1.015625 0 1.59375 -0.578125q0.59375 -0.59375 0.59375 -1.625l0 -0.625l-1.109375 0.046875q-1.34375 0.0625 -1.921875 0.421875q-0.5625 0.34375 -0.5625 1.09375q0 0.59375 0.359375 0.9375q0.375 0.328125 1.046875 0.328125zm6.232422 0.40625l-2.46875 -6.375l0.59375 0l1.65625 4.328125q0.328125 0.84375 0.484375 1.453125l0.03125 0q0.25 -0.796875 0.5 -1.453125l1.640625 -4.328125l0.609375 0l-2.46875 6.375l-0.578125 0zm9.3671875 -3.1875q0 1.546875 -0.75 2.4375q-0.75 0.875 -2.078125 0.875q-0.84375 0 -1.484375 -0.40625q-0.640625 -0.40625 -0.984375 -1.15625q-0.328125 -0.765625 -0.328125 -1.75q0 -1.5625 0.75 -2.4375q0.75 -0.875 2.078125 -0.875q1.3125 0 2.046875 0.890625q0.75 0.875 0.75 2.421875zm-5.015625 0q0 1.3125 0.578125 2.046875q0.578125 0.734375 1.625 0.734375q1.0625 0 1.625 -0.734375q0.578125 -0.734375 0.578125 -2.046875q0 -1.328125 -0.578125 -2.046875q-0.578125 -0.734375 -1.640625 -0.734375q-1.046875 0 -1.625 0.734375q-0.5625 0.71875 -0.5625 2.046875zm7.359375 3.1875l-0.578125 0l0 -6.375l0.578125 0l0 6.375zm-0.65625 -8.140629q0 -0.5625 0.375 -0.5625q0.171875 0 0.265625 0.15625q0.109375 0.140625 0.109375 0.40625q0 0.265625 -0.109375 0.421875q-0.09375 0.140625 -0.265625 0.140625q-0.375 0 -0.375 -0.5625zm5.1347656 1.6406288q0.6875 0 1.1875 0.265625q0.5 0.25 0.90625 0.859375l0.03125 0q-0.03125 -0.75 -0.03125 -1.453125l0 -2.2968788l0.578125 0l0 9.125004l-0.390625 0l-0.140625 -0.96875l-0.046875 0q-0.734375 1.09375 -2.09375 1.09375q-1.3125 0 -2.015625 -0.828125q-0.6875 -0.828125 -0.6875 -2.390625q0 -1.65625 0.6875 -2.53125q0.6875 -0.875 2.015625 -0.875zm0 0.53125q-1.046875 0 -1.578125 0.734375q-0.515625 0.734375 -0.515625 2.125q0 2.703125 2.09375 2.703125q1.078125 0 1.578125 -0.625q0.515625 -0.625 0.515625 -2.0625l0 -0.09375q0 -1.484375 -0.5 -2.125q-0.5 -0.65625 -1.59375 -0.65625zm12.369141 5.96875l0 -4.125q0 -0.96875 -0.40625 -1.40625q-0.40625 -0.4375 -1.265625 -0.4375q-1.140625 0 -1.671875 0.578125q-0.53125 0.578125 -0.53125 1.875l0 3.515625l-0.578125 0l0 -9.125004l0.578125 0l0 2.9062538l-0.015625 0.8125l0.03125 0q0.359375 -0.578125 0.90625 -0.828125q0.546875 -0.265625 1.359375 -0.265625q2.15625 0 2.15625 2.328125l0 4.171875l-0.5625 0zm5.203125 0.125q-1.390625 0 -2.171875 -0.859375q-0.765625 -0.859375 -0.765625 -2.40625q0 -1.515625 0.75 -2.4375q0.75 -0.921875 2.015625 -0.921875q1.125 0 1.765625 0.796875q0.65625 0.78125 0.65625 2.125l0 0.46875l-4.578125 0q0 1.3125 0.59375 2.015625q0.609375 0.6875 1.734375 0.6875q0.546875 0 0.953125 -0.078125q0.421875 -0.078125 1.046875 -0.328125l0 0.53125q-0.53125 0.234375 -1.0 0.3125q-0.453125 0.09375 -1.0 0.09375zm-0.171875 -6.109375q-0.921875 0 -1.484375 0.609375q-0.546875 0.609375 -0.640625 1.75l3.9375 0q0 -1.109375 -0.484375 -1.734375q-0.484375 -0.625 -1.328125 -0.625zm8.0546875 5.984375l-0.15625 -1.015625l-0.046875 0q-0.46875 0.625 -0.984375 0.890625q-0.5 0.25 -1.1875 0.25q-0.9375 0 -1.46875 -0.484375q-0.515625 -0.484375 -0.515625 -1.328125q0 -0.9375 0.765625 -1.453125q0.78125 -0.515625 2.25 -0.546875l1.21875 -0.03125l0 -0.421875q0 -0.90625 -0.375 -1.375q-0.359375 -0.46875 -1.1875 -0.46875q-0.875 0 -1.828125 0.5l-0.21875 -0.5q1.046875 -0.5 2.078125 -0.5q1.046875 0 1.5625 0.546875q0.515625 0.546875 0.515625 1.703125l0 4.234375l-0.421875 0zm-2.34375 -0.40625q1.015625 0 1.59375 -0.578125q0.59375 -0.59375 0.59375 -1.625l0 -0.625l-1.109375 0.046875q-1.34375 0.0625 -1.921875 0.421875q-0.5625 0.34375 -0.5625 1.09375q0 0.59375 0.359375 0.9375q0.375 0.328125 1.046875 0.328125zm6.232422 0.40625l-2.46875 -6.375l0.59375 0l1.65625 4.328125q0.328125 0.84375 0.484375 1.453125l0.03125 0q0.25 -0.796875 0.5 -1.453125l1.640625 -4.328125l0.609375 0l-2.46875 6.375l-0.578125 0zm3.0390625 -6.375l0.59375 0l1.359375 3.578125q0.609375 1.640625 0.765625 2.21875l0.046875 0q0.234375 -0.75 0.796875 -2.25l1.34375 -3.546875l0.609375 0l-2.859375 7.40625q-0.34375 0.90625 -0.578125 1.21875q-0.234375 0.3125 -0.546875 0.46875q-0.3125 0.171875 -0.765625 0.171875q-0.328125 0 -0.734375 -0.125l0 -0.515625q0.328125 0.09375 0.71875 0.09375q0.3125 0 0.53125 -0.140625q0.234375 -0.140625 0.40625 -0.4375q0.1875 -0.28125 0.4375 -0.9375q0.25 -0.640625 0.3125 -0.828125l-2.4375 -6.375zm12.234375 6.5q-1.359375 0 -2.140625 -0.859375q-0.765625 -0.875 -0.765625 -2.40625q0 -1.59375 0.796875 -2.46875q0.796875 -0.890625 2.203125 -0.890625q0.828125 0 1.578125 0.296875l-0.15625 0.515625q-0.828125 -0.28125 -1.4375 -0.28125q-1.171875 0 -1.78125 0.734375q-0.59375 0.71875 -0.59375 2.078125q0 1.28125 0.59375 2.015625q0.609375 0.734375 1.6875 0.734375q0.875 0 1.609375 -0.3125l0 0.53125q-0.609375 0.3125 -1.59375 0.3125zm8.419922 -3.3125q0 1.546875 -0.75 2.4375q-0.75 0.875 -2.078125 0.875q-0.84375 0 -1.484375 -0.40625q-0.640625 -0.40625 -0.984375 -1.15625q-0.328125 -0.765625 -0.328125 -1.75q0 -1.5625 0.75 -2.4375q0.75 -0.875 2.078125 -0.875q1.3125 0 2.046875 0.890625q0.75 0.875 0.75 2.421875zm-5.015625 0q0 1.3125 0.578125 2.046875q0.578125 0.734375 1.625 0.734375q1.0625 0 1.625 -0.734375q0.578125 -0.734375 0.578125 -2.046875q0 -1.328125 -0.578125 -2.046875q-0.578125 -0.734375 -1.640625 -0.734375q-1.046875 0 -1.625 0.734375q-0.5625 0.71875 -0.5625 2.046875zm10.734375 1.53125q0 0.859375 -0.65625 1.328125q-0.640625 0.453125 -1.84375 0.453125q-1.265625 0 -2.015625 -0.40625l0 -0.625q0.953125 0.484375 2.015625 0.484375q0.953125 0 1.4375 -0.3125q0.484375 -0.3125 0.484375 -0.84375q0 -0.46875 -0.390625 -0.796875q-0.390625 -0.328125 -1.28125 -0.65625q-0.953125 -0.34375 -1.34375 -0.59375q-0.375 -0.25 -0.578125 -0.5625q-0.1875 -0.3125 -0.1875 -0.765625q0 -0.703125 0.59375 -1.125q0.609375 -0.421875 1.6875 -0.421875q1.03125 0 1.953125 0.390625l-0.21875 0.53125q-0.9375 -0.390625 -1.734375 -0.390625q-0.78125 0 -1.25 0.265625q-0.453125 0.25 -0.453125 0.703125q0 0.5 0.359375 0.8125q0.359375 0.296875 1.390625 0.65625q0.859375 0.3125 1.25 0.5625q0.390625 0.25 0.578125 0.5625q0.203125 0.3125 0.203125 0.75zm3.3242188 1.25q0.546875 0 0.953125 -0.09375l0 0.46875q-0.421875 0.15625 -0.96875 0.15625q-0.84375 0 -1.25 -0.453125q-0.390625 -0.453125 -0.390625 -1.421875l0 -4.109375l-0.953125 0l0 -0.34375l0.953125 -0.265625l0.296875 -1.4375038l0.296875 0l0 1.5312538l1.859375 0l0 0.515625l-1.859375 0l0 4.03125q0 0.71875 0.25 1.078125q0.265625 0.34375 0.8125 0.34375zm6.2851562 -1.25q0 0.859375 -0.65625 1.328125q-0.640625 0.453125 -1.84375 0.453125q-1.265625 0 -2.015625 -0.40625l0 -0.625q0.953125 0.484375 2.015625 0.484375q0.953125 0 1.4375 -0.3125q0.484375 -0.3125 0.484375 -0.84375q0 -0.46875 -0.390625 -0.796875q-0.390625 -0.328125 -1.28125 -0.65625q-0.953125 -0.34375 -1.34375 -0.59375q-0.375 -0.25 -0.578125 -0.5625q-0.1875 -0.3125 -0.1875 -0.765625q0 -0.703125 0.59375 -1.125q0.609375 -0.421875 1.6875 -0.421875q1.03125 0 1.953125 0.390625l-0.21875 0.53125q-0.9375 -0.390625 -1.734375 -0.390625q-0.78125 0 -1.25 0.265625q-0.453125 0.25 -0.453125 0.703125q0 0.5 0.359375 0.8125q0.359375 0.296875 1.390625 0.65625q0.859375 0.3125 1.25 0.5625q0.390625 0.25 0.578125 0.5625q0.203125 0.3125 0.203125 0.75z" fill-rule="nonzero"/><path fill="#000000" d="m215.44734 78.98061l-1.5 0l0 5.859375l-0.578125 0l0 -5.859375l-1.1875 0l0 -0.34375l1.1875 -0.21875l0 -0.5q0 -1.171875 0.421875 -1.71875q0.4375 -0.546875 1.40625 -0.546875q0.53125 0 1.0625 0.15625l-0.140625 0.515625q-0.46875 -0.15625 -0.921875 -0.15625q-0.6875 0 -0.96875 0.40625q-0.28125 0.40625 -0.28125 1.296875l0 0.59375l1.5 0l0 0.515625zm6.4882812 2.671875q0 1.546875 -0.75 2.4375q-0.75 0.875 -2.078125 0.875q-0.84375 0 -1.484375 -0.40625q-0.640625 -0.40625 -0.984375 -1.15625q-0.328125 -0.765625 -0.328125 -1.75q0 -1.5625 0.75 -2.4375q0.75 -0.875 2.078125 -0.875q1.3125 0 2.046875 0.890625q0.75 0.875 0.75 2.421875zm-5.015625 0q0 1.3125 0.578125 2.046875q0.578125 0.734375 1.625 0.734375q1.0625 0 1.625 -0.734375q0.578125 -0.734375 0.578125 -2.046875q0 -1.328125 -0.578125 -2.046875q-0.578125 -0.734375 -1.640625 -0.734375q-1.046875 0 -1.625 0.734375q-0.5625 0.71875 -0.5625 2.046875zm9.296875 -3.3125q0.40625 0 0.859375 0.09375l-0.109375 0.546875q-0.390625 -0.09375 -0.828125 -0.09375q-0.8125 0 -1.34375 0.6875q-0.515625 0.6875 -0.515625 1.75l0 3.515625l-0.578125 0l0 -6.375l0.5 0l0.0625 1.15625l0.03125 0q0.390625 -0.703125 0.828125 -0.984375q0.453125 -0.296875 1.09375 -0.296875zm9.224609 4.84375q0 0.859375 -0.65625 1.328125q-0.640625 0.453125 -1.84375 0.453125q-1.265625 0 -2.015625 -0.40625l0 -0.625q0.953125 0.484375 2.015625 0.484375q0.953125 0 1.4375 -0.3125q0.484375 -0.3125 0.484375 -0.84375q0 -0.46875 -0.390625 -0.796875q-0.390625 -0.328125 -1.28125 -0.65625q-0.953125 -0.34375 -1.34375 -0.59375q-0.375 -0.25 -0.578125 -0.5625q-0.1875 -0.3125 -0.1875 -0.765625q0 -0.703125 0.59375 -1.125q0.609375 -0.421875 1.6875 -0.421875q1.03125 0 1.953125 0.390625l-0.21875 0.53125q-0.9375 -0.390625 -1.734375 -0.390625q-0.78125 0 -1.25 0.265625q-0.453125 0.25 -0.453125 0.703125q0 0.5 0.359375 0.8125q0.359375 0.296875 1.390625 0.65625q0.859375 0.3125 1.25 0.5625q0.390625 0.25 0.578125 0.5625q0.203125 0.3125 0.203125 0.75zm0.57421875 -4.71875l0.59375 0l1.359375 3.578125q0.609375 1.640625 0.765625 2.21875l0.046875 0q0.234375 -0.75 0.796875 -2.25l1.34375 -3.546875l0.609375 0l-2.859375 7.40625q-0.34375 0.90625 -0.578125 1.21875q-0.234375 0.3125 -0.546875 0.46875q-0.3125 0.171875 -0.765625 0.171875q-0.328125 0 -0.734375 -0.125l0 -0.515625q0.328125 0.09375 0.71875 0.09375q0.3125 0 0.53125 -0.140625q0.234375 -0.140625 0.40625 -0.4375q0.1875 -0.28125 0.4375 -0.9375q0.25 -0.640625 0.3125 -0.828125l-2.4375 -6.375zm10.5234375 4.71875q0 0.859375 -0.65625 1.328125q-0.640625 0.453125 -1.84375 0.453125q-1.265625 0 -2.015625 -0.40625l0 -0.625q0.953125 0.484375 2.015625 0.484375q0.953125 0 1.4375 -0.3125q0.484375 -0.3125 0.484375 -0.84375q0 -0.46875 -0.390625 -0.796875q-0.390625 -0.328125 -1.28125 -0.65625q-0.953125 -0.34375 -1.34375 -0.59375q-0.375 -0.25 -0.578125 -0.5625q-0.1875 -0.3125 -0.1875 -0.765625q0 -0.703125 0.59375 -1.125q0.609375 -0.421875 1.6875 -0.421875q1.03125 0 1.953125 0.390625l-0.21875 0.53125q-0.9375 -0.390625 -1.734375 -0.390625q-0.78125 0 -1.25 0.265625q-0.453125 0.25 -0.453125 0.703125q0 0.5 0.359375 0.8125q0.359375 0.296875 1.390625 0.65625q0.859375 0.3125 1.25 0.5625q0.390625 0.25 0.578125 0.5625q0.203125 0.3125 0.203125 0.75zm3.3242188 1.25q0.546875 0 0.953125 -0.09375l0 0.46875q-0.421875 0.15625 -0.96875 0.15625q-0.84375 0 -1.25 -0.453125q-0.390625 -0.453125 -0.390625 -1.421875l0 -4.109375l-0.953125 0l0 -0.34375l0.953125 -0.265625l0.296875 -1.4375l0.296875 0l0 1.53125l1.859375 0l0 0.515625l-1.859375 0l0 4.03125q0 0.71875 0.25 1.078125q0.265625 0.34375 0.8125 0.34375zm4.9101562 0.53125q-1.390625 0 -2.171875 -0.859375q-0.765625 -0.859375 -0.765625 -2.40625q0 -1.515625 0.75 -2.4375q0.75 -0.921875 2.015625 -0.921875q1.125 0 1.7656403 0.796875q0.65625 0.78125 0.65625 2.125l0 0.46875l-4.5781403 0q0 1.3125 0.59375 2.015625q0.609375 0.6875 1.734375 0.6875q0.546875 0 0.953125 -0.078125q0.42189026 -0.078125 1.0468903 -0.328125l0 0.53125q-0.53125 0.234375 -1.0000153 0.3125q-0.453125 0.09375 -1.0 0.09375zm-0.171875 -6.109375q-0.921875 0 -1.484375 0.609375q-0.546875 0.609375 -0.640625 1.75l3.9375153 0q0 -1.109375 -0.48439026 -1.734375q-0.484375 -0.625 -1.328125 -0.625zm12.148453 5.984375l0 -4.171875q0 -0.9375 -0.375 -1.359375q-0.359375 -0.4375 -1.109375 -0.4375q-0.984375 0 -1.453125 0.546875q-0.46875 0.53125 -0.46875 1.6875l0 3.734375l-0.578125 0l0 -4.359375q0 -1.609375 -1.484375 -1.609375q-1.0 0 -1.46875 0.59375q-0.453125 0.578125 -0.453125 1.859375l0 3.515625l-0.578125 0l0 -6.375l0.484375 0l0.125 0.875l0.03125 0q0.265625 -0.46875 0.75 -0.734375q0.484375 -0.265625 1.078125 -0.265625q1.5 0 1.9375 1.140625l0.015625 0q0.3125 -0.546875 0.828125 -0.84375q0.53125 -0.296875 1.203125 -0.296875q1.046875 0 1.5625 0.5625q0.515625 0.5625 0.515625 1.765625l0 4.171875l-0.5625 0zm6.578125 -1.65625q0 0.859375 -0.65625 1.328125q-0.640625 0.453125 -1.84375 0.453125q-1.265625 0 -2.015625 -0.40625l0 -0.625q0.953125 0.484375 2.015625 0.484375q0.953125 0 1.4375 -0.3125q0.484375 -0.3125 0.484375 -0.84375q0 -0.46875 -0.390625 -0.796875q-0.390625 -0.328125 -1.28125 -0.65625q-0.953125 -0.34375 -1.34375 -0.59375q-0.375 -0.25 -0.578125 -0.5625q-0.1875 -0.3125 -0.1875 -0.765625q0 -0.703125 0.59375 -1.125q0.609375 -0.421875 1.6875 -0.421875q1.03125 0 1.953125 0.390625l-0.21875 0.53125q-0.9375 -0.390625 -1.734375 -0.390625q-0.78125 0 -1.25 0.265625q-0.453125 0.25 -0.453125 0.703125q0 0.5 0.359375 0.8125q0.359375 0.296875 1.390625 0.65625q0.859375 0.3125 1.25 0.5625q0.390625 0.25 0.578125 0.5625q0.203125 0.3125 0.203125 0.75zm5.3320312 1.65625l-0.578125 0l0 -9.125l0.578125 0l0 9.125zm2.7128906 0l-0.578125 0l0 -6.375l0.578125 0l0 6.375zm-0.65625 -8.140625q0 -0.5625 0.375 -0.5625q0.171875 0 0.265625 0.15625q0.109375 0.140625 0.109375 0.40625q0 0.265625 -0.109375 0.421875q-0.09375 0.140625 -0.265625 0.140625q-0.375 0 -0.375 -0.5625zm3.3691406 5.34375l3.25 -3.578125l0.703125 0l-2.515625 2.71875l2.734375 3.65625l-0.703125 0l-2.421875 -3.21875l-1.046875 0.953125l0 2.265625l-0.578125 0l0 -9.125l0.578125 0l0 4.578125l-0.03125 1.75l0.03125 0zm7.8066406 2.921875q-1.390625 0 -2.171875 -0.859375q-0.765625 -0.859375 -0.765625 -2.40625q0 -1.515625 0.75 -2.4375q0.75 -0.921875 2.015625 -0.921875q1.125 0 1.765625 0.796875q0.65625 0.78125 0.65625 2.125l0 0.46875l-4.578125 0q0 1.3125 0.59375 2.015625q0.609375 0.6875 1.734375 0.6875q0.546875 0 0.953125 -0.078125q0.421875 -0.078125 1.046875 -0.328125l0 0.53125q-0.53125 0.234375 -1.0 0.3125q-0.453125 0.09375 -1.0 0.09375zm-0.171875 -6.109375q-0.921875 0 -1.484375 0.609375q-0.546875 0.609375 -0.640625 1.75l3.9375 0q0 -1.109375 -0.484375 -1.734375q-0.484375 -0.625 -1.328125 -0.625zm12.671875 5.984375l-5.953125 0l0 -0.453125l5.015625 -7.546875l-4.796875 0l0 -0.5625l5.59375 0l0 0.4375l-5.03125 7.5625l5.171875 0l0 0.5625zm5.4140625 0l-0.15625 -1.015625l-0.046875 0q-0.46875 0.625 -0.984375 0.890625q-0.5 0.25 -1.1875 0.25q-0.9375 0 -1.46875 -0.484375q-0.515625 -0.484375 -0.515625 -1.328125q0 -0.9375 0.765625 -1.453125q0.78125 -0.515625 2.25 -0.546875l1.21875 -0.03125l0 -0.421875q0 -0.90625 -0.375 -1.375q-0.359375 -0.46875 -1.1875 -0.46875q-0.875 0 -1.828125 0.5l-0.21875 -0.5q1.046875 -0.5 2.078125 -0.5q1.046875 0 1.5625 0.546875q0.515625 0.546875 0.515625 1.703125l0 4.234375l-0.421875 0zm-2.34375 -0.40625q1.015625 0 1.59375 -0.578125q0.59375 -0.59375 0.59375 -1.625l0 -0.625l-1.109375 0.046875q-1.34375 0.0625 -1.921875 0.421875q-0.5625 0.34375 -0.5625 1.09375q0 0.59375 0.359375 0.9375q0.375 0.328125 1.046875 0.328125zm7.560547 0.53125q-1.46875 0 -2.15625 -1.109375l-0.03125 0l0.015625 0.484375q0.015625 0.4375 0.015625 0.953125l0 2.4375l-0.578125 0l0 -9.265625l0.5 0l0.109375 0.90625l0.03125 0q0.65625 -1.03125 2.09375 -1.03125q1.296875 0 1.96875 0.859375q0.6875 0.84375 0.6875 2.453125q0 1.578125 -0.71875 2.453125q-0.71875 0.859375 -1.9375 0.859375zm-0.015625 -0.53125q0.984375 0 1.515625 -0.71875q0.53125 -0.734375 0.53125 -2.03125q0 -2.8125 -2.03125 -2.8125q-1.109375 0 -1.640625 0.625q-0.515625 0.609375 -0.515625 1.984375l0 0.1875q0 1.5 0.5 2.140625q0.515625 0.625 1.640625 0.625zm5.001953 0.40625l-0.578125 0l0 -6.375l0.578125 0l0 6.375zm-0.65625 -8.140625q0 -0.5625 0.375 -0.5625q0.171875 0 0.265625 0.15625q0.109375 0.140625 0.109375 0.40625q0 0.265625 -0.109375 0.421875q-0.09375 0.140625 -0.265625 0.140625q-0.375 0 -0.375 -0.5625zm5.3691406 8.265625q-1.390625 0 -2.171875 -0.859375q-0.765625 -0.859375 -0.765625 -2.40625q0 -1.515625 0.75 -2.4375q0.75 -0.921875 2.015625 -0.921875q1.125 0 1.765625 0.796875q0.65625 0.78125 0.65625 2.125l0 0.46875l-4.578125 0q0 1.3125 0.59375 2.015625q0.609375 0.6875 1.734375 0.6875q0.546875 0 0.953125 -0.078125q0.421875 -0.078125 1.046875 -0.328125l0 0.53125q-0.53125 0.234375 -1.0 0.3125q-0.453125 0.09375 -1.0 0.09375zm-0.171875 -6.109375q-0.921875 0 -1.484375 0.609375q-0.546875 0.609375 -0.640625 1.75l3.9375 0q0 -1.109375 -0.484375 -1.734375q-0.484375 -0.625 -1.328125 -0.625zm6.6953125 -0.515625q0.40625 0 0.859375 0.09375l-0.109375 0.546875q-0.390625 -0.09375 -0.828125 -0.09375q-0.8125 0 -1.34375 0.6875q-0.515625 0.6875 -0.515625 1.75l0 3.515625l-0.578125 0l0 -6.375l0.5 0l0.0625 1.15625l0.03125 0q0.390625 -0.703125 0.828125 -0.984375q0.453125 -0.296875 1.09375 -0.296875zm2.0449219 6.046875q0 -0.578125 0.46875 -0.578125q0.484375 0 0.484375 0.578125q0 0.578125 -0.484375 0.578125q-0.46875 0 -0.46875 -0.578125z" fill-rule="nonzero"/><path fill="#000000" d="m213.22859 112.83999l0 -8.5625l0.59375 0l0 8.5625l-0.59375 0zm11.078125 0l-1.390625 -4.265625q-0.140625 -0.421875 -0.34375 -1.265625l-0.03125 0l-0.125 0.4375l-0.265625 0.84375l-1.421875 4.25l-0.578125 0l-1.8125 -6.375l0.609375 0l1.03125 3.703125q0.359375 1.359375 0.46875 2.015625l0.03125 0q0.34375 -1.375 0.5 -1.828125l1.3125 -3.890625l0.53125 0l1.25 3.875q0.421875 1.375 0.515625 1.828125l0.03125 0q0.046875 -0.390625 0.46875 -2.046875l0.96875 -3.65625l0.59375 0l-1.734375 6.375l-0.609375 0zm8.849609 -3.1875q0 1.546875 -0.75 2.4375q-0.75 0.875 -2.078125 0.875q-0.84375 0 -1.484375 -0.40625q-0.640625 -0.40625 -0.984375 -1.15625q-0.328125 -0.765625 -0.328125 -1.75q0 -1.5625 0.75 -2.4375q0.75 -0.875 2.078125 -0.875q1.3125 0 2.046875 0.890625q0.75 0.875 0.75 2.421875zm-5.015625 0q0 1.3125 0.578125 2.046875q0.578125 0.734375 1.625 0.734375q1.0625 0 1.625 -0.734375q0.578125 -0.734375 0.578125 -2.046875q0 -1.328125 -0.578125 -2.046875q-0.578125 -0.734375 -1.640625 -0.734375q-1.046875 0 -1.625 0.734375q-0.5625 0.71875 -0.5625 2.046875zm9.296875 -3.3125q0.40625 0 0.859375 0.09375l-0.109375 0.546875q-0.390625 -0.09375 -0.828125 -0.09375q-0.8125 0 -1.34375 0.6875q-0.515625 0.6875 -0.515625 1.75l0 3.515625l-0.578125 0l0 -6.375l0.5 0l0.0625 1.15625l0.03125 0q0.390625 -0.703125 0.828125 -0.984375q0.453125 -0.296875 1.09375 -0.296875zm2.7324219 3.703125l3.25 -3.578125l0.703125 0l-2.515625 2.71875l2.734375 3.65625l-0.703125 0l-2.421875 -3.21875l-1.046875 0.953125l0 2.265625l-0.578125 0l0 -9.125l0.578125 0l0 4.578125l-0.03125 1.75l0.03125 0zm10.720703 -3.0625l-1.5 0l0 5.859375l-0.578125 0l0 -5.859375l-1.1875 0l0 -0.34375l1.1875 -0.21875l0 -0.5q0 -1.171875 0.421875 -1.71875q0.4375 -0.546875 1.40625 -0.546875q0.53125 0 1.0625 0.15625l-0.140625 0.515625q-0.46875 -0.15625 -0.921875 -0.15625q-0.6875 0 -0.96875 0.40625q-0.28125 0.40625 -0.28125 1.296875l0 0.59375l1.5 0l0 0.515625zm5.0976562 5.859375l-0.15625 -1.015625l-0.046875 0q-0.46875 0.625 -0.984375 0.890625q-0.5 0.25 -1.1875 0.25q-0.9375 0 -1.46875 -0.484375q-0.515625 -0.484375 -0.515625 -1.328125q0 -0.9375 0.765625 -1.453125q0.78125 -0.515625 2.25 -0.546875l1.21875 -0.03125l0 -0.421875q0 -0.90625 -0.375 -1.375q-0.359375 -0.46875 -1.1875 -0.46875q-0.875 0 -1.828125 0.5l-0.21875 -0.5q1.046875 -0.5 2.078125 -0.5q1.046875 0 1.5625 0.546875q0.51564026 0.546875 0.51564026 1.703125l0 4.234375l-0.42189026 0zm-2.34375 -0.40625q1.015625 0 1.59375 -0.578125q0.59375 -0.59375 0.59375 -1.625l0 -0.625l-1.109375 0.046875q-1.34375 0.0625 -1.921875 0.421875q-0.5625 0.34375 -0.5625 1.09375q0 0.59375 0.359375 0.9375q0.375 0.328125 1.046875 0.328125zm8.779312 -1.25q0 0.859375 -0.65625 1.328125q-0.640625 0.453125 -1.84375 0.453125q-1.265625 0 -2.015625 -0.40625l0 -0.625q0.953125 0.484375 2.015625 0.484375q0.953125 0 1.4375 -0.3125q0.484375 -0.3125 0.484375 -0.84375q0 -0.46875 -0.390625 -0.796875q-0.390625 -0.328125 -1.28125 -0.65625q-0.953125 -0.34375 -1.34375 -0.59375q-0.375 -0.25 -0.578125 -0.5625q-0.1875 -0.3125 -0.1875 -0.765625q0 -0.703125 0.59375 -1.125q0.609375 -0.421875 1.6875 -0.421875q1.03125 0 1.953125 0.390625l-0.21875 0.53125q-0.9375 -0.390625 -1.734375 -0.390625q-0.78125 0 -1.25 0.265625q-0.453125 0.25 -0.453125 0.703125q0 0.5 0.359375 0.8125q0.359375 0.296875 1.390625 0.65625q0.859375 0.3125 1.25 0.5625q0.390625 0.25 0.578125 0.5625q0.203125 0.3125 0.203125 0.75zm3.3242188 1.25q0.546875 0 0.953125 -0.09375l0 0.46875q-0.421875 0.15625 -0.96875 0.15625q-0.84375 0 -1.25 -0.453125q-0.390625 -0.453125 -0.390625 -1.421875l0 -4.109375l-0.953125 0l0 -0.34375l0.953125 -0.265625l0.296875 -1.4375l0.296875 0l0 1.53125l1.859375 0l0 0.515625l-1.859375 0l0 4.03125q0 0.71875 0.25 1.078125q0.265625 0.34375 0.8125 0.34375zm3.0039062 -0.984375l0.0625 0.125q-0.4375 1.546875 -1.015625 2.8125l-0.375 0q0.4375 -1.609375 0.640625 -2.9375l0.6875 0zm7.5703125 1.515625q-1.359375 0 -2.140625 -0.859375q-0.765625 -0.875 -0.765625 -2.40625q0 -1.59375 0.796875 -2.46875q0.796875 -0.890625 2.203125 -0.890625q0.828125 0 1.578125 0.296875l-0.15625 0.515625q-0.828125 -0.28125 -1.4375 -0.28125q-1.171875 0 -1.78125 0.734375q-0.59375 0.71875 -0.59375 2.078125q0 1.28125 0.59375 2.015625q0.609375 0.734375 1.6875 0.734375q0.875 0 1.609375 -0.3125l0 0.53125q-0.609375 0.3125 -1.59375 0.3125zm7.607422 -0.125l0 -4.125q0 -0.96875 -0.40625 -1.40625q-0.40625 -0.4375 -1.265625 -0.4375q-1.140625 0 -1.671875 0.578125q-0.53125 0.578125 -0.53125 1.875l0 3.515625l-0.578125 0l0 -9.125l0.578125 0l0 2.90625l-0.015625 0.8125l0.03125 0q0.359375 -0.578125 0.90625 -0.828125q0.546875 -0.265625 1.359375 -0.265625q2.15625 0 2.15625 2.328125l0 4.171875l-0.5625 0zm6.5 0l-0.15625 -1.015625l-0.046875 0q-0.46875 0.625 -0.984375 0.890625q-0.5 0.25 -1.1875 0.25q-0.9375 0 -1.46875 -0.484375q-0.515625 -0.484375 -0.515625 -1.328125q0 -0.9375 0.765625 -1.453125q0.78125 -0.515625 2.25 -0.546875l1.21875 -0.03125l0 -0.421875q0 -0.90625 -0.375 -1.375q-0.359375 -0.46875 -1.1875 -0.46875q-0.875 0 -1.828125 0.5l-0.21875 -0.5q1.046875 -0.5 2.078125 -0.5q1.046875 0 1.5625 0.546875q0.515625 0.546875 0.515625 1.703125l0 4.234375l-0.421875 0zm-2.34375 -0.40625q1.015625 0 1.59375 -0.578125q0.59375 -0.59375 0.59375 -1.625l0 -0.625l-1.109375 0.046875q-1.34375 0.0625 -1.921875 0.421875q-0.5625 0.34375 -0.5625 1.09375q0 0.59375 0.359375 0.9375q0.375 0.328125 1.046875 0.328125zm7.341797 -6.09375q0.40625 0 0.859375 0.09375l-0.109375 0.546875q-0.390625 -0.09375 -0.828125 -0.09375q-0.8125 0 -1.34375 0.6875q-0.515625 0.6875 -0.515625 1.75l0 3.515625l-0.578125 0l0 -6.375l0.5 0l0.0625 1.15625l0.03125 0q0.390625 -0.703125 0.828125 -0.984375q0.453125 -0.296875 1.09375 -0.296875zm7.123047 0.125l0 0.40625l-1.3125 0.078125q0.53125 0.65625 0.53125 1.453125q0 0.921875 -0.625 1.5q-0.609375 0.5625 -1.640625 0.5625q-0.421875 0 -0.609375 -0.046875q-0.34375 0.1875 -0.53125 0.4375q-0.171875 0.25 -0.171875 0.515625q0 0.3125 0.234375 0.453125q0.234375 0.140625 0.765625 0.140625l1.125 0q1.03125 0 1.578125 0.421875q0.5625 0.40625 0.5625 1.234375q0 1.0 -0.828125 1.546875q-0.8125 0.5625 -2.328125 0.5625q-1.203125 0 -1.859375 -0.46875q-0.65625 -0.46875 -0.65625 -1.296875q0 -0.65625 0.40625 -1.09375q0.40625 -0.421875 1.109375 -0.578125q-0.296875 -0.125 -0.46875 -0.34375q-0.171875 -0.234375 -0.171875 -0.53125q0 -0.640625 0.8125 -1.125q-0.546875 -0.21875 -0.859375 -0.703125q-0.3125 -0.5 -0.3125 -1.140625q0 -0.953125 0.609375 -1.53125q0.609375 -0.578125 1.640625 -0.578125q0.625 0 0.96875 0.125l2.03125 0zm-5.15625 7.453125q0 1.3125 1.953125 1.3125q2.515625 0 2.515625 -1.59375q0 -0.578125 -0.40625 -0.828125q-0.390625 -0.265625 -1.265625 -0.265625l-1.046875 0q-1.75 0 -1.75 1.375zm0.484375 -5.46875q0 0.75 0.453125 1.15625q0.453125 0.40625 1.203125 0.40625q0.796875 0 1.21875 -0.40625q0.421875 -0.40625 0.421875 -1.171875q0 -0.8125 -0.4375 -1.21875q-0.4375 -0.40625 -1.21875 -0.40625q-0.765625 0 -1.203125 0.4375q-0.4375 0.4375 -0.4375 1.203125zm8.556641 4.515625q-1.390625 0 -2.171875 -0.859375q-0.765625 -0.859375 -0.765625 -2.40625q0 -1.515625 0.75 -2.4375q0.75 -0.921875 2.015625 -0.921875q1.125 0 1.765625 0.796875q0.65625 0.78125 0.65625 2.125l0 0.46875l-4.578125 0q0 1.3125 0.59375 2.015625q0.609375 0.6875 1.734375 0.6875q0.546875 0 0.953125 -0.078125q0.421875 -0.078125 1.046875 -0.328125l0 0.53125q-0.53125 0.234375 -1.0 0.3125q-0.453125 0.09375 -1.0 0.09375zm-0.171875 -6.109375q-0.921875 0 -1.484375 0.609375q-0.546875 0.609375 -0.640625 1.75l3.9375 0q0 -1.109375 -0.484375 -1.734375q-0.484375 -0.625 -1.328125 -0.625zm7.875 5.984375l-0.578125 0l0 -9.125l0.578125 0l0 9.125zm2.7128906 0l-0.578125 0l0 -6.375l0.578125 0l0 6.375zm-0.65625 -8.140625q0 -0.5625 0.375 -0.5625q0.171875 0 0.265625 0.15625q0.109375 0.140625 0.109375 0.40625q0 0.265625 -0.109375 0.421875q-0.09375 0.140625 -0.265625 0.140625q-0.375 0 -0.375 -0.5625zm4.4785156 7.734375q0.546875 0 0.953125 -0.09375l0 0.46875q-0.421875 0.15625 -0.96875 0.15625q-0.84375 0 -1.25 -0.453125q-0.390625 -0.453125 -0.390625 -1.421875l0 -4.109375l-0.953125 0l0 -0.34375l0.953125 -0.265625l0.296875 -1.4375l0.296875 0l0 1.53125l1.859375 0l0 0.515625l-1.859375 0l0 4.03125q0 0.71875 0.25 1.078125q0.265625 0.34375 0.8125 0.34375zm4.0195312 0q0.546875 0 0.953125 -0.09375l0 0.46875q-0.421875 0.15625 -0.96875 0.15625q-0.84375 0 -1.25 -0.453125q-0.390625 -0.453125 -0.390625 -1.421875l0 -4.109375l-0.953125 0l0 -0.34375l0.953125 -0.265625l0.296875 -1.4375l0.296875 0l0 1.53125l1.859375 0l0 0.515625l-1.859375 0l0 4.03125q0 0.71875 0.25 1.078125q0.265625 0.34375 0.8125 0.34375zm2.9101562 0.40625l-0.578125 0l0 -9.125l0.578125 0l0 9.125zm4.7128906 0.125q-1.390625 0 -2.171875 -0.859375q-0.765625 -0.859375 -0.765625 -2.40625q0 -1.515625 0.75 -2.4375q0.75 -0.921875 2.015625 -0.921875q1.125 0 1.765625 0.796875q0.65625 0.78125 0.65625 2.125l0 0.46875l-4.578125 0q0 1.3125 0.59375 2.015625q0.609375 0.6875 1.734375 0.6875q0.546875 0 0.953125 -0.078125q0.421875 -0.078125 1.046875 -0.328125l0 0.53125q-0.53125 0.234375 -1.0 0.3125q-0.453125 0.09375 -1.0 0.09375zm-0.171875 -6.109375q-0.921875 0 -1.484375 0.609375q-0.546875 0.609375 -0.640625 1.75l3.9375 0q0 -1.109375 -0.484375 -1.734375q-0.484375 -0.625 -1.328125 -0.625zm11.171875 5.984375l-0.15625 -1.015625l-0.046875 0q-0.46875 0.625 -0.984375 0.890625q-0.5 0.25 -1.1875 0.25q-0.9375 0 -1.46875 -0.484375q-0.515625 -0.484375 -0.515625 -1.328125q0 -0.9375 0.765625 -1.453125q0.78125 -0.515625 2.25 -0.546875l1.21875 -0.03125l0 -0.421875q0 -0.90625 -0.375 -1.375q-0.359375 -0.46875 -1.1875 -0.46875q-0.875 0 -1.828125 0.5l-0.21875 -0.5q1.046875 -0.5 2.078125 -0.5q1.046875 0 1.5625 0.546875q0.515625 0.546875 0.515625 1.703125l0 4.234375l-0.421875 0zm-2.34375 -0.40625q1.015625 0 1.59375 -0.578125q0.59375 -0.59375 0.59375 -1.625l0 -0.625l-1.109375 0.046875q-1.34375 0.0625 -1.921875 0.421875q-0.5625 0.34375 -0.5625 1.09375q0 0.59375 0.359375 0.9375q0.375 0.328125 1.046875 0.328125zm9.279297 0.40625l0 -4.125q0 -0.96875 -0.40625 -1.40625q-0.40625 -0.4375 -1.265625 -0.4375q-1.140625 0 -1.671875 0.578125q-0.53125 0.578125 -0.53125 1.875l0 3.515625l-0.578125 0l0 -6.375l0.5 0l0.109375 0.875l0.03125 0q0.625 -1.0 2.21875 -1.0q2.15625 0 2.15625 2.328125l0 4.171875l-0.5625 0zm4.96875 -6.5q0.6875 0 1.1875 0.265625q0.5 0.25 0.90625 0.859375l0.03125 0q-0.03125 -0.75 -0.03125 -1.453125l0 -2.296875l0.578125 0l0 9.125l-0.390625 0l-0.140625 -0.96875l-0.046875 0q-0.734375 1.09375 -2.09375 1.09375q-1.3125 0 -2.015625 -0.828125q-0.6875 -0.828125 -0.6875 -2.390625q0 -1.65625 0.6875 -2.53125q0.6875 -0.875 2.015625 -0.875zm0 0.53125q-1.046875 0 -1.578125 0.734375q-0.515625 0.734375 -0.515625 2.125q0 2.703125 2.09375 2.703125q1.078125 0 1.578125 -0.625q0.515625 -0.625 0.515625 -2.0625l0 -0.09375q0 -1.484375 -0.5 -2.125q-0.5 -0.65625 -1.59375 -0.65625zm15.884766 5.96875l0 -4.171875q0 -0.9375 -0.375 -1.359375q-0.359375 -0.4375 -1.109375 -0.4375q-0.984375 0 -1.453125 0.546875q-0.46875 0.53125 -0.46875 1.6875l0 3.734375l-0.578125 0l0 -4.359375q0 -1.609375 -1.484375 -1.609375q-1.0 0 -1.46875 0.59375q-0.453125 0.578125 -0.453125 1.859375l0 3.515625l-0.578125 0l0 -6.375l0.484375 0l0.125 0.875l0.03125 0q0.265625 -0.46875 0.75 -0.734375q0.484375 -0.265625 1.078125 -0.265625q1.5 0 1.9375 1.140625l0.015625 0q0.3125 -0.546875 0.828125 -0.84375q0.53125 -0.296875 1.203125 -0.296875q1.046875 0 1.5625 0.5625q0.515625 0.5625 0.515625 1.765625l0 4.171875l-0.5625 0zm6.5 0l-0.15625 -1.015625l-0.046875 0q-0.46875 0.625 -0.984375 0.890625q-0.5 0.25 -1.1875 0.25q-0.9375 0 -1.46875 -0.484375q-0.515625 -0.484375 -0.515625 -1.328125q0 -0.9375 0.765625 -1.453125q0.78125 -0.515625 2.25 -0.546875l1.21875 -0.03125l0 -0.421875q0 -0.90625 -0.375 -1.375q-0.359375 -0.46875 -1.1875 -0.46875q-0.875 0 -1.828125 0.5l-0.21875 -0.5q1.046875 -0.5 2.078125 -0.5q1.046875 0 1.5625 0.546875q0.515625 0.546875 0.515625 1.703125l0 4.234375l-0.421875 0zm-2.34375 -0.40625q1.015625 0 1.59375 -0.578125q0.59375 -0.59375 0.59375 -1.625l0 -0.625l-1.109375 0.046875q-1.34375 0.0625 -1.921875 0.421875q-0.5625 0.34375 -0.5625 1.09375q0 0.59375 0.359375 0.9375q0.375 0.328125 1.046875 0.328125zm5.404297 -2.390625l3.25 -3.578125l0.703125 0l-2.515625 2.71875l2.734375 3.65625l-0.703125 0l-2.421875 -3.21875l-1.046875 0.953125l0 2.265625l-0.578125 0l0 -9.125l0.578125 0l0 4.578125l-0.03125 1.75l0.03125 0zm7.8066406 2.921875q-1.390625 0 -2.171875 -0.859375q-0.765625 -0.859375 -0.765625 -2.40625q0 -1.515625 0.75 -2.4375q0.75 -0.921875 2.015625 -0.921875q1.125 0 1.765625 0.796875q0.65625 0.78125 0.65625 2.125l0 0.46875l-4.578125 0q0 1.3125 0.59375 2.015625q0.609375 0.6875 1.734375 0.6875q0.546875 0 0.953125 -0.078125q0.421875 -0.078125 1.046875 -0.328125l0 0.53125q-0.53125 0.234375 -1.0 0.3125q-0.453125 0.09375 -1.0 0.09375zm-0.171875 -6.109375q-0.921875 0 -1.484375 0.609375q-0.546875 0.609375 -0.640625 1.75l3.9375 0q0 -1.109375 -0.484375 -1.734375q-0.484375 -0.625 -1.328125 -0.625zm11.25 4.328125q0 0.859375 -0.65625 1.328125q-0.640625 0.453125 -1.84375 0.453125q-1.265625 0 -2.015625 -0.40625l0 -0.625q0.953125 0.484375 2.015625 0.484375q0.953125 0 1.4375 -0.3125q0.484375 -0.3125 0.484375 -0.84375q0 -0.46875 -0.390625 -0.796875q-0.390625 -0.328125 -1.28125 -0.65625q-0.953125 -0.34375 -1.34375 -0.59375q-0.375 -0.25 -0.578125 -0.5625q-0.1875 -0.3125 -0.1875 -0.765625q0 -0.703125 0.59375 -1.125q0.609375 -0.421875 1.6875 -0.421875q1.03125 0 1.953125 0.390625l-0.21875 0.53125q-0.9375 -0.390625 -1.734375 -0.390625q-0.78125 0 -1.25 0.265625q-0.453125 0.25 -0.453125 0.703125q0 0.5 0.359375 0.8125q0.359375 0.296875 1.390625 0.65625q0.859375 0.3125 1.25 0.5625q0.390625 0.25 0.578125 0.5625q0.203125 0.3125 0.203125 0.75zm2.1523438 -4.71875l0 4.125q0 0.96875 0.390625 1.40625q0.40625 0.4375 1.265625 0.4375q1.125 0 1.65625 -0.578125q0.546875 -0.578125 0.546875 -1.875l0 -3.515625l0.578125 0l0 6.375l-0.5 0l-0.09375 -0.875l-0.046875 0q-0.609375 1.0 -2.203125 1.0q-2.171875 0 -2.171875 -2.328125l0 -4.171875l0.578125 0zm9.078125 -0.125q0.40625 0 0.859375 0.09375l-0.109375 0.546875q-0.390625 -0.09375 -0.828125 -0.09375q-0.8125 0 -1.34375 0.6875q-0.515625 0.6875 -0.515625 1.75l0 3.515625l-0.578125 0l0 -6.375l0.5 0l0.0625 1.15625l0.03125 0q0.390625 -0.703125 0.828125 -0.984375q0.453125 -0.296875 1.09375 -0.296875zm4.732422 6.625q-1.390625 0 -2.171875 -0.859375q-0.765625 -0.859375 -0.765625 -2.40625q0 -1.515625 0.75 -2.4375q0.75 -0.921875 2.015625 -0.921875q1.125 0 1.765625 0.796875q0.65625 0.78125 0.65625 2.125l0 0.46875l-4.578125 0q0 1.3125 0.59375 2.015625q0.609375 0.6875 1.734375 0.6875q0.546875 0 0.953125 -0.078125q0.421875 -0.078125 1.046875 -0.328125l0 0.53125q-0.53125 0.234375 -1.0 0.3125q-0.453125 0.09375 -1.0 0.09375zm-0.171875 -6.109375q-0.921875 0 -1.484375 0.609375q-0.546875 0.609375 -0.640625 1.75l3.9375 0q0 -1.109375 -0.484375 -1.734375q-0.484375 -0.625 -1.328125 -0.625z" fill-rule="nonzero"/><path fill="#000000" d="m214.75984 126.43373q0.546875 0 0.953125 -0.09375l0 0.46875q-0.421875 0.15625 -0.96875 0.15625q-0.84375 0 -1.25 -0.453125q-0.390625 -0.453125 -0.390625 -1.421875l0 -4.109375l-0.953125 0l0 -0.34375l0.953125 -0.265625l0.296875 -1.4375l0.296875 0l0 1.53125l1.859375 0l0 0.515625l-1.859375 0l0 4.03125q0 0.71875 0.25 1.078125q0.265625 0.34375 0.8125 0.34375zm6.7851562 0.40625l0 -4.125q0 -0.96875 -0.40625 -1.40625q-0.40625 -0.4375 -1.265625 -0.4375q-1.140625 0 -1.671875 0.578125q-0.53125 0.578125 -0.53125 1.875l0 3.515625l-0.578125 0l0 -9.125l0.578125 0l0 2.90625l-0.015625 0.8125l0.03125 0q0.359375 -0.578125 0.90625 -0.828125q0.546875 -0.265625 1.359375 -0.265625q2.15625 0 2.15625 2.328125l0 4.171875l-0.5625 0zm6.5 0l-0.15625 -1.015625l-0.046875 0q-0.46875 0.625 -0.984375 0.890625q-0.5 0.25 -1.1875 0.25q-0.9375 0 -1.46875 -0.484375q-0.515625 -0.484375 -0.515625 -1.328125q0 -0.9375 0.765625 -1.453125q0.78125 -0.515625 2.25 -0.546875l1.21875 -0.03125l0 -0.421875q0 -0.90625 -0.375 -1.375q-0.359375 -0.46875 -1.1875 -0.46875q-0.875 0 -1.828125 0.5l-0.21875 -0.5q1.046875 -0.5 2.078125 -0.5q1.046875 0 1.5625 0.546875q0.515625 0.546875 0.515625 1.703125l0 4.234375l-0.421875 0zm-2.34375 -0.40625q1.015625 0 1.59375 -0.578125q0.59375 -0.59375 0.59375 -1.625l0 -0.625l-1.109375 0.046875q-1.34375 0.0625 -1.921875 0.421875q-0.5625 0.34375 -0.5625 1.09375q0 0.59375 0.359375 0.9375q0.375 0.328125 1.046875 0.328125zm6.513672 0q0.546875 0 0.953125 -0.09375l0 0.46875q-0.421875 0.15625 -0.96875 0.15625q-0.84375 0 -1.25 -0.453125q-0.390625 -0.453125 -0.390625 -1.421875l0 -4.109375l-0.953125 0l0 -0.34375l0.953125 -0.265625l0.296875 -1.4375l0.296875 0l0 1.53125l1.859375 0l0 0.515625l-1.859375 0l0 4.03125q0 0.71875 0.25 1.078125q0.265625 0.34375 0.8125 0.34375zm7.1367188 0q0.546875 0 0.953125 -0.09375l0 0.46875q-0.421875 0.15625 -0.96875 0.15625q-0.84375 0 -1.25 -0.453125q-0.390625 -0.453125 -0.390625 -1.421875l0 -4.109375l-0.953125 0l0 -0.34375l0.953125 -0.265625l0.296875 -1.4375l0.296875 0l0 1.53125l1.859375 0l0 0.515625l-1.859375 0l0 4.03125q0 0.71875 0.25 1.078125q0.265625 0.34375 0.8125 0.34375zm6.7851562 0.40625l0 -4.125q0 -0.96875 -0.40625 -1.40625q-0.40625 -0.4375 -1.265625 -0.4375q-1.140625 0 -1.671875 0.578125q-0.53125 0.578125 -0.53125 1.875l0 3.515625l-0.578125 0l0 -9.125l0.578125 0l0 2.90625l-0.015625 0.8125l0.03125 0q0.359375 -0.578125 0.90625 -0.828125q0.546875 -0.265625 1.359375 -0.265625q2.15625 0 2.15625 2.328125l0 4.171875l-0.5625 0zm5.203125 0.125q-1.390625 0 -2.171875 -0.859375q-0.765625 -0.859375 -0.765625 -2.40625q0 -1.515625 0.75 -2.4375q0.75 -0.921875 2.015625 -0.921875q1.125 0 1.765625 0.796875q0.65625 0.78125 0.65625 2.125l0 0.46875l-4.578125 0q0 1.3125 0.59375 2.015625q0.609375 0.6875 1.734375 0.6875q0.546875 0 0.953125 -0.078125q0.421875 -0.078125 1.046875 -0.328125l0 0.53125q-0.53125 0.234375 -1.0 0.3125q-0.453125 0.09375 -1.0 0.09375zm-0.171875 -6.109375q-0.921875 0 -1.484375 0.609375q-0.546875 0.609375 -0.640625 1.75l3.9375 0q0 -1.109375 -0.484375 -1.734375q-0.484375 -0.625 -1.328125 -0.625zm11.17189 5.984375l-0.15625 -1.015625l-0.046875 0q-0.46875 0.625 -0.984375 0.890625q-0.5 0.25 -1.1875 0.25q-0.9375 0 -1.46875 -0.484375q-0.515625 -0.484375 -0.515625 -1.328125q0 -0.9375 0.765625 -1.453125q0.78125 -0.515625 2.25 -0.546875l1.21875 -0.03125l0 -0.421875q0 -0.90625 -0.375 -1.375q-0.359375 -0.46875 -1.1875 -0.46875q-0.875 0 -1.828125 0.5l-0.21875 -0.5q1.046875 -0.5 2.078125 -0.5q1.046875 0 1.5625 0.546875q0.515625 0.546875 0.515625 1.703125l0 4.234375l-0.421875 0zm-2.34375 -0.40625q1.015625 0 1.59375 -0.578125q0.59375 -0.59375 0.59375 -1.625l0 -0.625l-1.109375 0.046875q-1.34375 0.0625 -1.921875 0.421875q-0.5625 0.34375 -0.5625 1.09375q0 0.59375 0.359375 0.9375q0.375 0.328125 1.046875 0.328125zm5.341797 -5.96875l0 4.125q0 0.96875 0.390625 1.40625q0.40625 0.4375 1.265625 0.4375q1.125 0 1.65625 -0.578125q0.546875 -0.578125 0.546875 -1.875l0 -3.515625l0.578125 0l0 6.375l-0.5 0l-0.09375 -0.875l-0.046875 0q-0.609375 1.0 -2.203125 1.0q-2.171875 0 -2.171875 -2.328125l0 -4.171875l0.578125 0zm8.25 5.96875q0.546875 0 0.953125 -0.09375l0 0.46875q-0.421875 0.15625 -0.96875 0.15625q-0.84375 0 -1.25 -0.453125q-0.390625 -0.453125 -0.390625 -1.421875l0 -4.109375l-0.953125 0l0 -0.34375l0.953125 -0.265625l0.296875 -1.4375l0.296875 0l0 1.53125l1.859375 0l0 0.515625l-1.859375 0l0 4.03125q0 0.71875 0.25 1.078125q0.265625 0.34375 0.8125 0.34375zm7.5976562 -2.78125q0 1.546875 -0.75 2.4375q-0.75 0.875 -2.078125 0.875q-0.84375 0 -1.484375 -0.40625q-0.640625 -0.40625 -0.984375 -1.15625q-0.328125 -0.765625 -0.328125 -1.75q0 -1.5625 0.75 -2.4375q0.75 -0.875 2.078125 -0.875q1.3125 0 2.046875 0.890625q0.75 0.875 0.75 2.421875zm-5.015625 0q0 1.3125 0.578125 2.046875q0.578125 0.734375 1.625 0.734375q1.0625 0 1.625 -0.734375q0.578125 -0.734375 0.578125 -2.046875q0 -1.328125 -0.578125 -2.046875q-0.578125 -0.734375 -1.640625 -0.734375q-1.046875 0 -1.625 0.734375q-0.5625 0.71875 -0.5625 2.046875zm14.75 3.1875l0 -4.171875q0 -0.9375 -0.375 -1.359375q-0.359375 -0.4375 -1.109375 -0.4375q-0.984375 0 -1.453125 0.546875q-0.46875 0.53125 -0.46875 1.6875l0 3.734375l-0.578125 0l0 -4.359375q0 -1.609375 -1.484375 -1.609375q-1.0 0 -1.46875 0.59375q-0.453125 0.578125 -0.453125 1.859375l0 3.515625l-0.578125 0l0 -6.375l0.484375 0l0.125 0.875l0.03125 0q0.265625 -0.46875 0.75 -0.734375q0.484375 -0.265625 1.078125 -0.265625q1.5 0 1.9375 1.140625l0.015625 0q0.3125 -0.546875 0.828125 -0.84375q0.53125 -0.296875 1.203125 -0.296875q1.046875 0 1.5625 0.5625q0.515625 0.5625 0.515625 1.765625l0 4.171875l-0.5625 0zm6.5 0l-0.15625 -1.015625l-0.046875 0q-0.46875 0.625 -0.984375 0.890625q-0.5 0.25 -1.1875 0.25q-0.9375 0 -1.46875 -0.484375q-0.515625 -0.484375 -0.515625 -1.328125q0 -0.9375 0.765625 -1.453125q0.78125 -0.515625 2.25 -0.546875l1.21875 -0.03125l0 -0.421875q0 -0.90625 -0.375 -1.375q-0.359375 -0.46875 -1.1875 -0.46875q-0.875 0 -1.828125 0.5l-0.21875 -0.5q1.046875 -0.5 2.078125 -0.5q1.046875 0 1.5625 0.546875q0.515625 0.546875 0.515625 1.703125l0 4.234375l-0.421875 0zm-2.34375 -0.40625q1.015625 0 1.59375 -0.578125q0.59375 -0.59375 0.59375 -1.625l0 -0.625l-1.109375 0.046875q-1.34375 0.0625 -1.921875 0.421875q-0.5625 0.34375 -0.5625 1.09375q0 0.59375 0.359375 0.9375q0.375 0.328125 1.046875 0.328125zm6.513672 0q0.546875 0 0.953125 -0.09375l0 0.46875q-0.421875 0.15625 -0.96875 0.15625q-0.84375 0 -1.25 -0.453125q-0.390625 -0.453125 -0.390625 -1.421875l0 -4.109375l-0.953125 0l0 -0.34375l0.953125 -0.265625l0.296875 -1.4375l0.296875 0l0 1.53125l1.859375 0l0 0.515625l-1.859375 0l0 4.03125q0 0.71875 0.25 1.078125q0.265625 0.34375 0.8125 0.34375zm2.9101562 0.40625l-0.578125 0l0 -6.375l0.578125 0l0 6.375zm-0.65625 -8.140625q0 -0.5625 0.375 -0.5625q0.171875 0 0.265625 0.15625q0.109375 0.140625 0.109375 0.40625q0 0.265625 -0.109375 0.421875q-0.09375 0.140625 -0.265625 0.140625q-0.375 0 -0.375 -0.5625zm8.056641 4.953125q0 1.546875 -0.75 2.4375q-0.75 0.875 -2.078125 0.875q-0.84375 0 -1.484375 -0.40625q-0.640625 -0.40625 -0.984375 -1.15625q-0.328125 -0.765625 -0.328125 -1.75q0 -1.5625 0.75 -2.4375q0.75 -0.875 2.078125 -0.875q1.3125 0 2.046875 0.890625q0.75 0.875 0.75 2.421875zm-5.015625 0q0 1.3125 0.578125 2.046875q0.578125 0.734375 1.625 0.734375q1.0625 0 1.625 -0.734375q0.578125 -0.734375 0.578125 -2.046875q0 -1.328125 -0.578125 -2.046875q-0.578125 -0.734375 -1.640625 -0.734375q-1.046875 0 -1.625 0.734375q-0.5625 0.71875 -0.5625 2.046875zm11.234375 3.1875l0 -4.125q0 -0.96875 -0.40625 -1.40625q-0.40625 -0.4375 -1.265625 -0.4375q-1.140625 0 -1.671875 0.578125q-0.53125 0.578125 -0.53125 1.875l0 3.515625l-0.578125 0l0 -6.375l0.5 0l0.109375 0.875l0.03125 0q0.625 -1.0 2.21875 -1.0q2.15625 0 2.15625 2.328125l0 4.171875l-0.5625 0zm4.6796875 -6.375l0.59375 0l1.359375 3.578125q0.609375 1.640625 0.765625 2.21875l0.046875 0q0.234375 -0.75 0.796875 -2.25l1.34375 -3.546875l0.609375 0l-2.859375 7.40625q-0.34375 0.90625 -0.578125 1.21875q-0.234375 0.3125 -0.546875 0.46875q-0.3125 0.171875 -0.765625 0.171875q-0.328125 0 -0.734375 -0.125l0 -0.515625q0.328125 0.09375 0.71875 0.09375q0.3125 0 0.53125 -0.140625q0.234375 -0.140625 0.40625 -0.4375q0.1875 -0.28125 0.4375 -0.9375q0.25 -0.640625 0.3125 -0.828125l-2.4375 -6.375zm11.8359375 3.1875q0 1.546875 -0.75 2.4375q-0.75 0.875 -2.078125 0.875q-0.84375 0 -1.484375 -0.40625q-0.640625 -0.40625 -0.984375 -1.15625q-0.328125 -0.765625 -0.328125 -1.75q0 -1.5625 0.75 -2.4375q0.75 -0.875 2.078125 -0.875q1.3125 0 2.046875 0.890625q0.75 0.875 0.75 2.421875zm-5.015625 0q0 1.3125 0.578125 2.046875q0.578125 0.734375 1.625 0.734375q1.0625 0 1.625 -0.734375q0.578125 -0.734375 0.578125 -2.046875q0 -1.328125 -0.578125 -2.046875q-0.578125 -0.734375 -1.640625 -0.734375q-1.046875 0 -1.625 0.734375q-0.5625 0.71875 -0.5625 2.046875zm7.296875 -3.1875l0 4.125q0 0.96875 0.390625 1.40625q0.40625 0.4375 1.265625 0.4375q1.125 0 1.65625 -0.578125q0.546875 -0.578125 0.546875 -1.875l0 -3.515625l0.578125 0l0 6.375l-0.5 0l-0.09375 -0.875l-0.046875 0q-0.609375 1.0 -2.203125 1.0q-2.171875 0 -2.171875 -2.328125l0 -4.171875l0.578125 0zm12.1953125 -0.125q0.40625 0 0.859375 0.09375l-0.109375 0.546875q-0.390625 -0.09375 -0.828125 -0.09375q-0.8125 0 -1.34375 0.6875q-0.515625 0.6875 -0.515625 1.75l0 3.515625l-0.578125 0l0 -6.375l0.5 0l0.0625 1.15625l0.03125 0q0.390625 -0.703125 0.828125 -0.984375q0.453125 -0.296875 1.09375 -0.296875zm4.732422 6.625q-1.390625 0 -2.171875 -0.859375q-0.765625 -0.859375 -0.765625 -2.40625q0 -1.515625 0.75 -2.4375q0.75 -0.921875 2.015625 -0.921875q1.125 0 1.765625 0.796875q0.65625 0.78125 0.65625 2.125l0 0.46875l-4.578125 0q0 1.3125 0.59375 2.015625q0.609375 0.6875 1.734375 0.6875q0.546875 0 0.953125 -0.078125q0.421875 -0.078125 1.046875 -0.328125l0 0.53125q-0.53125 0.234375 -1.0 0.3125q-0.453125 0.09375 -1.0 0.09375zm-0.171875 -6.109375q-0.921875 0 -1.484375 0.609375q-0.546875 0.609375 -0.640625 1.75l3.9375 0q0 -1.109375 -0.484375 -1.734375q-0.484375 -0.625 -1.328125 -0.625zm6.4453125 6.109375q-1.25 0 -1.9375 -0.828125q-0.6875 -0.84375 -0.6875 -2.421875q0 -1.609375 0.6875 -2.484375q0.6875 -0.890625 1.984375 -0.890625q1.375 0 2.0625 1.03125l0.03125 0l0.109375 -0.90625l0.5 0l0 9.265625l-0.578125 0l0 -2.4375q0 -0.71875 0.03125 -1.453125l-0.03125 0q-0.6875 1.125 -2.171875 1.125zm0.015625 -0.53125q1.15625 0 1.65625 -0.625q0.5 -0.640625 0.5 -2.15625l0 -0.0625q0 -1.4375 -0.5 -2.078125q-0.5 -0.640625 -1.59375 -0.640625q-1.03125 0 -1.5625 0.734375q-0.53125 0.71875 -0.53125 2.125q0 1.34375 0.515625 2.03125q0.53125 0.671875 1.515625 0.671875zm5.376953 -5.96875l0 4.125q0 0.96875 0.390625 1.40625q0.40625 0.4375 1.265625 0.4375q1.125 0 1.65625 -0.578125q0.546875 -0.578125 0.546875 -1.875l0 -3.515625l0.578125 0l0 6.375l-0.5 0l-0.09375 -0.875l-0.046875 0q-0.609375 1.0 -2.203125 1.0q-2.171875 0 -2.171875 -2.328125l0 -4.171875l0.578125 0zm7.140625 6.375l-0.578125 0l0 -6.375l0.578125 0l0 6.375zm-0.65625 -8.140625q0 -0.5625 0.375 -0.5625q0.171875 0 0.265625 0.15625q0.109375 0.140625 0.109375 0.40625q0 0.265625 -0.109375 0.421875q-0.09375 0.140625 -0.265625 0.140625q-0.375 0 -0.375 -0.5625zm5.3066406 1.640625q0.40625 0 0.859375 0.09375l-0.109375 0.546875q-0.390625 -0.09375 -0.828125 -0.09375q-0.8125 0 -1.34375 0.6875q-0.515625 0.6875 -0.515625 1.75l0 3.515625l-0.578125 0l0 -6.375l0.5 0l0.0625 1.15625l0.03125 0q0.390625 -0.703125 0.828125 -0.984375q0.453125 -0.296875 1.09375 -0.296875zm4.732422 6.625q-1.390625 0 -2.171875 -0.859375q-0.765625 -0.859375 -0.765625 -2.40625q0 -1.515625 0.75 -2.4375q0.75 -0.921875 2.015625 -0.921875q1.125 0 1.765625 0.796875q0.65625 0.78125 0.65625 2.125l0 0.46875l-4.578125 0q0 1.3125 0.59375 2.015625q0.609375 0.6875 1.734375 0.6875q0.546875 0 0.953125 -0.078125q0.421875 -0.078125 1.046875 -0.328125l0 0.53125q-0.53125 0.234375 -1.0 0.3125q-0.453125 0.09375 -1.0 0.09375zm-0.171875 -6.109375q-0.921875 0 -1.484375 0.609375q-0.546875 0.609375 -0.640625 1.75l3.9375 0q0 -1.109375 -0.484375 -1.734375q-0.484375 -0.625 -1.328125 -0.625zm7.875 5.984375l-0.578125 0l0 -6.375l0.578125 0l0 6.375zm-0.65625 -8.140625q0 -0.5625 0.375 -0.5625q0.171875 0 0.265625 0.15625q0.109375 0.140625 0.109375 0.40625q0 0.265625 -0.109375 0.421875q-0.09375 0.140625 -0.265625 0.140625q-0.375 0 -0.375 -0.5625zm6.7441406 6.484375q0 0.859375 -0.65625 1.328125q-0.640625 0.453125 -1.84375 0.453125q-1.265625 0 -2.015625 -0.40625l0 -0.625q0.953125 0.484375 2.015625 0.484375q0.953125 0 1.4375 -0.3125q0.484375 -0.3125 0.484375 -0.84375q0 -0.46875 -0.390625 -0.796875q-0.390625 -0.328125 -1.28125 -0.65625q-0.953125 -0.34375 -1.34375 -0.59375q-0.375 -0.25 -0.578125 -0.5625q-0.1875 -0.3125 -0.1875 -0.765625q0 -0.703125 0.59375 -1.125q0.609375 -0.421875 1.6875 -0.421875q1.03125 0 1.953125 0.390625l-0.21875 0.53125q-0.9375 -0.390625 -1.734375 -0.390625q-0.78125 0 -1.25 0.265625q-0.453125 0.25 -0.453125 0.703125q0 0.5 0.359375 0.8125q0.359375 0.296875 1.390625 0.65625q0.859375 0.3125 1.25 0.5625q0.390625 0.25 0.578125 0.5625q0.203125 0.3125 0.203125 0.75z" fill-rule="nonzero"/><path fill="#000000" d="m214.75984 140.43373q0.546875 0 0.953125 -0.09375l0 0.46875q-0.421875 0.15625 -0.96875 0.15625q-0.84375 0 -1.25 -0.453125q-0.390625 -0.453125 -0.390625 -1.421875l0 -4.109375l-0.953125 0l0 -0.34375l0.953125 -0.265625l0.296875 -1.4375l0.296875 0l0 1.53125l1.859375 0l0 0.515625l-1.859375 0l0 4.03125q0 0.71875 0.25 1.078125q0.265625 0.34375 0.8125 0.34375zm2.9101562 0.40625l-0.578125 0l0 -6.375l0.578125 0l0 6.375zm-0.65625 -8.140625q0 -0.5625 0.375 -0.5625q0.171875 0 0.265625 0.15625q0.109375 0.140625 0.109375 0.40625q0 0.265625 -0.109375 0.421875q-0.09375 0.140625 -0.265625 0.140625q-0.375 0 -0.375 -0.5625zm10.759766 8.140625l0 -4.171875q0 -0.9375 -0.375 -1.359375q-0.359375 -0.4375 -1.109375 -0.4375q-0.984375 0 -1.453125 0.546875q-0.46875 0.53125 -0.46875 1.6875l0 3.734375l-0.578125 0l0 -4.359375q0 -1.609375 -1.484375 -1.609375q-1.0 0 -1.46875 0.59375q-0.453125 0.578125 -0.453125 1.859375l0 3.515625l-0.578125 0l0 -6.375l0.484375 0l0.125 0.875l0.03125 0q0.265625 -0.46875 0.75 -0.734375q0.484375 -0.265625 1.078125 -0.265625q1.5 0 1.9375 1.140625l0.015625 0q0.3125 -0.546875 0.828125 -0.84375q0.53125 -0.296875 1.203125 -0.296875q1.046875 0 1.5625 0.5625q0.515625 0.5625 0.515625 1.765625l0 4.171875l-0.5625 0zm5.203125 0.125q-1.390625 0 -2.171875 -0.859375q-0.765625 -0.859375 -0.765625 -2.40625q0 -1.515625 0.75 -2.4375q0.75 -0.921875 2.015625 -0.921875q1.125 0 1.765625 0.796875q0.65625 0.78125 0.65625 2.125l0 0.46875l-4.578125 0q0 1.3125 0.59375 2.015625q0.609375 0.6875 1.734375 0.6875q0.546875 0 0.953125 -0.078125q0.421875 -0.078125 1.046875 -0.328125l0 0.53125q-0.53125 0.234375 -1.0 0.3125q-0.453125 0.09375 -1.0 0.09375zm-0.171875 -6.109375q-0.921875 0 -1.484375 0.609375q-0.546875 0.609375 -0.640625 1.75l3.9375 0q0 -1.109375 -0.484375 -1.734375q-0.484375 -0.625 -1.328125 -0.625zm4.7578125 5.984375l-0.578125 0l0 -9.125l0.578125 0l0 9.125zm4.7128906 0.125q-1.390625 0 -2.171875 -0.859375q-0.765625 -0.859375 -0.765625 -2.40625q0 -1.515625 0.75 -2.4375q0.75 -0.921875 2.015625 -0.921875q1.125 0 1.765625 0.796875q0.65625 0.78125 0.65625 2.125l0 0.46875l-4.578125 0q0 1.3125 0.59375 2.015625q0.609375 0.6875 1.734375 0.6875q0.546875 0 0.953125 -0.078125q0.421875 -0.078125 1.046875 -0.328125l0 0.53125q-0.53125 0.234375 -1.0 0.3125q-0.453125 0.09375 -1.0 0.09375zm-0.171875 -6.109375q-0.921875 0 -1.484375 0.609375q-0.546875 0.609375 -0.640625 1.75l3.9375 0q0 -1.109375 -0.484375 -1.734375q-0.484375 -0.625 -1.328125 -0.625zm8.1328125 4.328125q0 0.859375 -0.65625 1.328125q-0.640625 0.453125 -1.84375 0.453125q-1.265625 0 -2.015625 -0.40625l0 -0.625q0.953125 0.484375 2.015625 0.484375q0.953125 0 1.4375 -0.3125q0.484375 -0.3125 0.484375 -0.84375q0 -0.46875 -0.390625 -0.796875q-0.390625 -0.328125 -1.28125 -0.65625q-0.953125 -0.34375 -1.34375 -0.59375q-0.375 -0.25 -0.578125 -0.5625q-0.1875 -0.3125 -0.1875 -0.765625q0 -0.703125 0.59375 -1.125q0.609375 -0.421875 1.6875 -0.421875q1.03125 0 1.953125 0.390625l-0.21875 0.53125q-0.9375 -0.390625 -1.734375 -0.390625q-0.78125 0 -1.25 0.265625q-0.453125 0.25 -0.453125 0.703125q0 0.5 0.359375 0.8125q0.359375 0.296875 1.390625 0.65625q0.859375 0.3125 1.25 0.5625q0.390625 0.25 0.578125 0.5625q0.203125 0.3125 0.203125 0.75zm5.5898438 0q0 0.859375 -0.65625 1.328125q-0.640625 0.453125 -1.84375 0.453125q-1.265625 0 -2.015625 -0.40625l0 -0.625q0.953125 0.484375 2.015625 0.484375q0.953125 0 1.4375 -0.3125q0.484375 -0.3125 0.484375 -0.84375q0 -0.46875 -0.390625 -0.796875q-0.390625 -0.328125 -1.28125 -0.65625q-0.953125 -0.34375 -1.34375 -0.59375q-0.375 -0.25 -0.578125 -0.5625q-0.1875 -0.3125 -0.1875 -0.765625q0 -0.703125 0.59375 -1.125q0.609375 -0.421875 1.6875 -0.421875q1.03125 0 1.953125 0.390625l-0.21875 0.53125q-0.9375 -0.390625 -1.734375 -0.390625q-0.78125 0 -1.25 0.265625q-0.453125 0.25 -0.453125 0.703125q0 0.5 0.359375 0.8125q0.359375 0.296875 1.390625 0.65625q0.859375 0.3125 1.25 0.5625q0.390625 0.25 0.578125 0.5625q0.203125 0.3125 0.203125 0.75zm1.527359 1.203125q0 -0.578125 0.46875 -0.578125q0.484375 0 0.484375 0.578125q0 0.578125 -0.484375 0.578125q-0.46875 0 -0.46875 -0.578125z" fill-rule="nonzero"/><path fill="#fce5cd" d="m0 99.67628l0 0c0 -55.228474 44.771526 -100.0 100.0 -100.0l0 0c26.521652 0 51.957047 10.535685 70.71068 29.289322c18.753632 18.753637 29.289322 44.189034 29.289322 70.71068l0 0c0 55.228477 -44.77153 100.00001 -100.0 100.00001l0 0c-55.228474 0 -100.0 -44.77153 -100.0 -100.00001z" fill-rule="evenodd"/><g filter="url(#shadowFilter-p.2)"><use xlink:href="#p.2" transform=""/></g><defs><filter id="shadowFilter-p.2" filterUnits="userSpaceOnUse"><feGaussianBlur in="SourceAlpha" stdDeviation="2.0" result="blur"/><feComponentTransfer in="blur" color-interpolation-filters="sRGB"><feFuncR type="linear" slope="0" intercept="0.4"/><feFuncG type="linear" slope="0" intercept="0.4"/><feFuncB type="linear" slope="0" intercept="0.4"/><feFuncA type="linear" slope="0.5" intercept="0"/></feComponentTransfer></filter></defs><g id="p.2"><path fill="#000000" fill-opacity="0.0" d="m52.98402 88.86672l34.866146 0" fill-rule="evenodd"/><path stroke="#f2a14d" stroke-width="12.0" stroke-linejoin="round" stroke-linecap="butt" d="m52.98402 88.86672l34.866146 0" fill-rule="evenodd"/></g><g filter="url(#shadowFilter-p.3)"><use xlink:href="#p.3" transform="matrix(1.0 0.0 0.0 1.0 0.0 2.0)"/></g><defs><filter id="shadowFilter-p.3" filterUnits="userSpaceOnUse"><feGaussianBlur in="SourceAlpha" stdDeviation="2.0" result="blur"/><feComponentTransfer in="blur" color-interpolation-filters="sRGB"><feFuncR type="linear" slope="0" intercept="0.4"/><feFuncG type="linear" slope="0" intercept="0.4"/><feFuncB type="linear" slope="0" intercept="0.4"/><feFuncA type="linear" slope="0.5" intercept="0"/></feComponentTransfer></filter></defs><g id="p.3"><path fill="#000000" fill-opacity="0.0" d="m51.443535 69.51066l42.173225 0.15747833" fill-rule="evenodd"/><path stroke="#f2a14d" stroke-width="12.0" stroke-linejoin="round" stroke-linecap="butt" d="m51.443535 69.51066l42.173225 0.15747833" fill-rule="evenodd"/></g><g filter="url(#shadowFilter-p.4)"><use xlink:href="#p.4" transform="matrix(1.0 0.0 0.0 1.0 0.0 2.0)"/></g><defs><filter id="shadowFilter-p.4" filterUnits="userSpaceOnUse"><feGaussianBlur in="SourceAlpha" stdDeviation="2.0" result="blur"/><feComponentTransfer in="blur" color-interpolation-filters="sRGB"><feFuncR type="linear" slope="0" intercept="0.4"/><feFuncG type="linear" slope="0" intercept="0.4"/><feFuncB type="linear" slope="0" intercept="0.4"/><feFuncA type="linear" slope="0.5" intercept="0"/></feComponentTransfer></filter></defs><g id="p.4"><path fill="#000000" fill-opacity="0.0" d="m121.02763 121.93718l0 0c-21.597534 9.140991 -46.992294 3.1814194 -61.568134 -14.448662c-14.575836 -17.630081 -14.583237 -42.39547 -0.017944336 -60.042267c14.565289 -17.646793 39.95648 -23.635502 61.559475 -14.5192795l-20.982368 44.517143z" fill-rule="evenodd"/><path fill="#000000" fill-opacity="0.0" d="m121.02763 121.93718l0 0c-21.597534 9.140991 -46.992294 3.1814194 -61.568134 -14.448662c-14.575836 -17.630081 -14.583237 -42.39547 -0.017944336 -60.042267c14.565289 -17.646793 39.95648 -23.635502 61.559475 -14.5192795" fill-rule="evenodd"/><path stroke="#f2a14d" stroke-width="12.0" stroke-linejoin="round" stroke-linecap="butt" d="m121.02763 121.93718l0 0c-21.597534 9.140991 -46.992294 3.1814194 -61.568134 -14.448662c-14.575836 -17.630081 -14.583237 -42.39547 -0.017944336 -60.042267c14.565289 -17.646793 39.95648 -23.635502 61.559475 -14.5192795" fill-rule="evenodd"/></g><path fill="#000000" fill-opacity="0.0" d="m17.780502 147.48679l164.44095 0l0 19.181107l-164.44095 0z" fill-rule="evenodd"/><path fill="#666666" d="m70.550865 159.83366q0 1.1875 -0.875 1.890625q-0.875 0.6875 -2.328125 0.6875q-1.734375 0 -2.671875 -0.375l0 -0.671875q1.03125 0.4375 2.625 0.4375q1.171875 0 1.859375 -0.53125q0.6875 -0.546875 0.6875 -1.40625q0 -0.546875 -0.234375 -0.890625q-0.21875 -0.359375 -0.734375 -0.65625q-0.515625 -0.296875 -1.515625 -0.625q-1.453125 -0.515625 -2.015625 -1.09375q-0.546875 -0.578125 -0.546875 -1.546875q0 -1.0625 0.828125 -1.734375q0.84375 -0.6875 2.15625 -0.6875q1.34375 0 2.515625 0.515625l-0.234375 0.5625q-1.1875 -0.484375 -2.265625 -0.484375q-1.0625 0 -1.6875 0.484375q-0.625 0.484375 -0.625 1.328125q0 0.53125 0.1875 0.875q0.203125 0.328125 0.640625 0.609375q0.4375 0.265625 1.5 0.640625q1.109375 0.375 1.65625 0.75q0.5625 0.359375 0.8125 0.8125q0.265625 0.453125 0.265625 1.109375zm6.153412 2.453125l-0.171875 -1.125l-0.046875 0q-0.53125 0.6875 -1.09375 0.96875q-0.5625 0.28125 -1.328125 0.28125q-1.046875 0 -1.625 -0.53125q-0.578125 -0.53125 -0.578125 -1.46875q0 -1.046875 0.859375 -1.609375q0.859375 -0.578125 2.5 -0.609375l1.34375 -0.03125l0 -0.46875q0 -1.015625 -0.421875 -1.53125q-0.40625 -0.515625 -1.3125 -0.515625q-0.984375 0 -2.03125 0.546875l-0.25 -0.5625q1.171875 -0.546875 2.3125 -0.546875q1.15625 0 1.734375 0.609375q0.578125 0.609375 0.578125 1.890625l0 4.703125l-0.46875 0zm-2.609375 -0.453125q1.140625 0 1.78125 -0.640625q0.65625 -0.65625 0.65625 -1.8125l0 -0.6875l-1.234375 0.046875q-1.484375 0.078125 -2.125 0.46875q-0.625 0.390625 -0.625 1.21875q0 0.671875 0.40625 1.046875q0.40625 0.359375 1.140625 0.359375zm6.9204254 0.453125l-2.734375 -7.078125l0.65625 0l1.84375 4.8125q0.359375 0.921875 0.546875 1.609375l0.03125 0q0.265625 -0.875 0.546875 -1.625l1.828125 -4.796875l0.671875 0l-2.734375 7.078125l-0.65625 0zm7.429901 0.125q-1.546875 0 -2.40625 -0.9375q-0.859375 -0.953125 -0.859375 -2.671875q0 -1.6875 0.828125 -2.703125q0.828125 -1.015625 2.25 -1.015625q1.25 0 1.96875 0.875q0.71875 0.859375 0.71875 2.359375l0 0.515625l-5.09375 0q0.015625 1.46875 0.671875 2.234375q0.671875 0.765625 1.921875 0.765625q0.59375 0 1.046875 -0.078125q0.46875 -0.09375 1.171875 -0.375l0 0.59375q-0.59375 0.25 -1.109375 0.34375q-0.5 0.09375 -1.109375 0.09375zm-0.1875 -6.765625q-1.03125 0 -1.65625 0.671875q-0.609375 0.671875 -0.71875 1.953125l4.375 0q0 -1.234375 -0.53125 -1.921875q-0.53125 -0.703125 -1.46875 -0.703125zm16.933289 6.640625l0 -4.640625q0 -1.03125 -0.40625 -1.5q-0.390625 -0.484375 -1.234375 -0.484375q-1.078125 0 -1.609375 0.609375q-0.515625 0.59375 -0.515625 1.875l0 4.140625l-0.65625 0l0 -4.828125q0 -1.796875 -1.640625 -1.796875q-1.109375 0 -1.625 0.65625q-0.5 0.640625 -0.5 2.0625l0 3.90625l-0.640625 0l0 -7.078125l0.53125 0l0.140625 0.96875l0.03125 0q0.296875 -0.515625 0.828125 -0.796875q0.546875 -0.296875 1.203125 -0.296875q1.671875 0 2.140625 1.25l0.03125 0q0.34375 -0.609375 0.921875 -0.921875q0.578125 -0.328125 1.328125 -0.328125q1.15625 0 1.734375 0.625q0.578125 0.609375 0.578125 1.953125l0 4.625l-0.640625 0zm8.78186 -3.546875q0 1.734375 -0.84375 2.703125q-0.828125 0.96875 -2.3125 0.96875q-0.921875 0 -1.640625 -0.4375q-0.703125 -0.453125 -1.078125 -1.296875q-0.375 -0.84375 -0.375 -1.9375q0 -1.734375 0.828125 -2.6875q0.84375 -0.96875 2.3125 -0.96875q1.453125 0 2.28125 0.984375q0.828125 0.96875 0.828125 2.671875zm-5.578125 0q0 1.453125 0.640625 2.28125q0.640625 0.8125 1.8125 0.8125q1.171875 0 1.8125 -0.8125q0.640625 -0.828125 0.640625 -2.28125q0 -1.46875 -0.65625 -2.265625q-0.640625 -0.8125 -1.8125 -0.8125q-1.171875 0 -1.8125 0.8125q-0.625 0.796875 -0.625 2.265625zm12.481323 3.546875l0 -4.59375q0 -1.0625 -0.453125 -1.546875q-0.453125 -0.484375 -1.390625 -0.484375q-1.28125 0 -1.875 0.640625q-0.578125 0.640625 -0.578125 2.078125l0 3.90625l-0.640625 0l0 -7.078125l0.546875 0l0.125 0.96875l0.03125 0q0.6875 -1.09375 2.453125 -1.09375q2.40625 0 2.40625 2.578125l0 4.625l-0.625 0zm5.783386 0.125q-1.546875 0 -2.40625 -0.9375q-0.859375 -0.953125 -0.859375 -2.671875q0 -1.6875 0.828125 -2.703125q0.828125 -1.015625 2.25 -1.015625q1.25 0 1.9687424 0.875q0.71875 0.859375 0.71875 2.359375l0 0.515625l-5.0937424 0q0.015625 1.46875 0.671875 2.234375q0.671875 0.765625 1.921875 0.765625q0.59375 0 1.046875 -0.078125q0.46874237 -0.09375 1.1718674 -0.375l0 0.59375q-0.59375 0.25 -1.1093674 0.34375q-0.5 0.09375 -1.109375 0.09375zm-0.1875 -6.765625q-1.03125 0 -1.65625 0.671875q-0.609375 0.671875 -0.71875 1.953125l4.3749924 0q0 -1.234375 -0.5312424 -1.921875q-0.53125 -0.703125 -1.46875 -0.703125zm3.4554672 -0.4375l0.65625 0l1.5 3.96875q0.6875 1.828125 0.875 2.46875l0.03125 0q0.28125 -0.84375 0.890625 -2.5l1.5 -3.9375l0.671875 0l-3.171875 8.21875q-0.390625 1.0 -0.65625 1.34375q-0.25 0.359375 -0.609375 0.53125q-0.34375 0.1875 -0.828125 0.1875q-0.375 0 -0.828125 -0.140625l0 -0.5625q0.375 0.109375 0.8125 0.109375q0.328125 0 0.578125 -0.15625q0.25 -0.15625 0.453125 -0.484375q0.21875 -0.328125 0.484375 -1.046875q0.265625 -0.703125 0.34375 -0.921875l-2.703125 -7.078125z" fill-rule="nonzero"/></g></svg>