<svg version="1.1" viewBox="0.0 0.0 185.87926509186352 245.50656167979002" fill="none" stroke="none" stroke-linecap="square" stroke-miterlimit="10" xmlns:xlink="http://www.w3.org/1999/xlink" xmlns="http://www.w3.org/2000/svg"><clipPath id="p.0"><path d="m0 0l185.87927 0l0 245.50656l-185.87927 0l0 -245.50656z" clip-rule="nonzero"/></clipPath><g clip-path="url(#p.0)"><path fill="#000000" fill-opacity="0.0" d="m0 0l185.87927 0l0 245.50656l-185.87927 0z" fill-rule="evenodd"/><path fill="#000000" fill-opacity="0.0" d="m143.9206 210.74496l0 0c-34.686195 25.599884 -79.08073 16.19423 -105.075714 -22.261902c-25.994991 -38.45613 -26.009964 -94.74841 -0.035438538 -133.23605c25.97453 -38.48764 70.364044 -47.947136 105.06384 -22.38932l-41.93627 88.969086z" fill-rule="evenodd"/><path fill="#000000" fill-opacity="0.0" d="m143.9206 210.74496l0 0c-34.686195 25.599884 -79.08073 16.19423 -105.075714 -22.261902c-25.994991 -38.45613 -26.009964 -94.74841 -0.035438538 -133.23605c25.97453 -38.48764 70.364044 -47.947136 105.06384 -22.38932" fill-rule="evenodd"/><path stroke="#f9cb9c" stroke-width="24.0" stroke-linejoin="round" stroke-linecap="butt" d="m143.9206 210.74496l0 0c-34.686195 25.599884 -79.08073 16.19423 -105.075714 -22.261902c-25.994991 -38.45613 -26.009964 -94.74841 -0.035438538 -133.23605c25.97453 -38.48764 70.364044 -47.947136 105.06384 -22.38932" fill-rule="evenodd"/><path fill="#000000" fill-opacity="0.0" d="m26.497261 143.93175l55.90551 0" fill-rule="evenodd"/><path stroke="#f9cb9c" stroke-width="24.0" stroke-linejoin="round" stroke-linecap="butt" d="m26.497261 143.93175l55.90551 0" fill-rule="evenodd"/><path fill="#000000" fill-opacity="0.0" d="m24.025436 107.01304l67.71654 0.34645844" fill-rule="evenodd"/><path stroke="#f9cb9c" stroke-width="24.0" stroke-linejoin="round" stroke-linecap="butt" d="m24.025436 107.01304l67.71654 0.34645844" fill-rule="evenodd"/></g></svg>