<svg version="1.1" viewBox="0.0 0.0 133.55905511811022 176.1286089238845" fill="none" stroke="none" stroke-linecap="square" stroke-miterlimit="10" xmlns:xlink="http://www.w3.org/1999/xlink" xmlns="http://www.w3.org/2000/svg"><clipPath id="p.0"><path d="m0 0l133.55905 0l0 176.12862l-133.55905 0l0 -176.12862z" clip-rule="nonzero"/></clipPath><g clip-path="url(#p.0)"><path fill="#000000" fill-opacity="0.0" d="m0 0l133.55905 0l0 176.12862l-133.55905 0z" fill-rule="evenodd"/><g filter="url(#shadowFilter-p.1)"><use xlink:href="#p.1" transform=""/></g><defs><filter id="shadowFilter-p.1" filterUnits="userSpaceOnUse"><feGaussianBlur in="SourceAlpha" stdDeviation="2.0" result="blur"/><feComponentTransfer in="blur" color-interpolation-filters="sRGB"><feFuncR type="linear" slope="0" intercept="0.4"/><feFuncG type="linear" slope="0" intercept="0.4"/><feFuncB type="linear" slope="0" intercept="0.4"/><feFuncA type="linear" slope="0.5" intercept="0"/></feComponentTransfer></filter></defs><g id="p.1"><path fill="#000000" fill-opacity="0.0" d="m21.3447 104.80624l51.62205 0" fill-rule="evenodd"/><path stroke="#ffffff" stroke-width="24.0" stroke-linejoin="round" stroke-linecap="butt" d="m21.3447 104.80624l51.62205 0" fill-rule="evenodd"/></g><g filter="url(#shadowFilter-p.2)"><use xlink:href="#p.2" transform="matrix(1.0 0.0 0.0 1.0 0.0 2.0)"/></g><defs><filter id="shadowFilter-p.2" filterUnits="userSpaceOnUse"><feGaussianBlur in="SourceAlpha" stdDeviation="2.0" result="blur"/><feComponentTransfer in="blur" color-interpolation-filters="sRGB"><feFuncR type="linear" slope="0" intercept="0.4"/><feFuncG type="linear" slope="0" intercept="0.4"/><feFuncB type="linear" slope="0" intercept="0.4"/><feFuncA type="linear" slope="0.5" intercept="0"/></feComponentTransfer></filter></defs><g id="p.2"><path fill="#000000" fill-opacity="0.0" d="m19.063581 76.14417l62.456688 0.25196838" fill-rule="evenodd"/><path stroke="#ffffff" stroke-width="24.0" stroke-linejoin="round" stroke-linecap="butt" d="m19.063581 76.14417l62.456688 0.25196838" fill-rule="evenodd"/></g><g filter="url(#shadowFilter-p.3)"><use xlink:href="#p.3" transform="matrix(1.0 0.0 0.0 1.0 0.0 2.0)"/></g><defs><filter id="shadowFilter-p.3" filterUnits="userSpaceOnUse"><feGaussianBlur in="SourceAlpha" stdDeviation="2.0" result="blur"/><feComponentTransfer in="blur" color-interpolation-filters="sRGB"><feFuncR type="linear" slope="0" intercept="0.4"/><feFuncG type="linear" slope="0" intercept="0.4"/><feFuncB type="linear" slope="0" intercept="0.4"/><feFuncA type="linear" slope="0.5" intercept="0"/></feComponentTransfer></filter></defs><g id="p.3"><path fill="#000000" fill-opacity="0.0" d="m122.07724 153.78813c-31.973625 13.529877 -69.568924 4.7033844 -91.14753 -21.399307c-21.578606 -26.102676 -21.589565 -62.7668 -0.02656746 -88.88994c21.562996 -26.123144 59.153008 -34.985302 91.13471 -21.485765l-31.063309 65.902245z" fill-rule="evenodd"/><path fill="#000000" fill-opacity="0.0" d="m122.07724 153.78813c-31.973625 13.529877 -69.568924 4.7033844 -91.14753 -21.399307c-21.578606 -26.102676 -21.589565 -62.7668 -0.02656746 -88.88994c21.562996 -26.123144 59.153008 -34.985302 91.13471 -21.485765" fill-rule="evenodd"/><path stroke="#ffffff" stroke-width="24.0" stroke-linejoin="round" stroke-linecap="butt" d="m122.07724 153.78813c-31.973625 13.529877 -69.568924 4.7033844 -91.14753 -21.399307c-21.578606 -26.102676 -21.589565 -62.7668 -0.02656746 -88.88994c21.562996 -26.123144 59.153008 -34.985302 91.13471 -21.485765" fill-rule="evenodd"/></g></g></svg>