<svg version="1.1" viewBox="0.0 0.0 800.0 800.0" fill="none" stroke="none" stroke-linecap="square" stroke-miterlimit="10" xmlns:xlink="http://www.w3.org/1999/xlink" xmlns="http://www.w3.org/2000/svg"><clipPath id="p.0"><path d="m0 0l800.0 0l0 800.0l-800.0 0l0 -800.0z" clip-rule="nonzero"/></clipPath><g clip-path="url(#p.0)"><path fill="#000000" fill-opacity="0.0" d="m0 0l800.0 0l0 800.0l-800.0 0z" fill-rule="evenodd"/><path fill="#cfe2f3" fill-opacity="0.6078" d="m3.984252 399.3176l0 0c0 -219.40056 177.30229 -397.25986 396.01575 -397.25986l0 0c105.02991 0 205.75806 41.854042 280.0254 116.35472c74.267395 74.50067 115.99036 175.54527 115.99036 280.90515l0 0c0 219.40054 -177.3023 397.25986 -396.01575 397.25986l0 0c-218.71346 0 -396.01575 -177.85931 -396.01575 -397.25986z" fill-rule="evenodd"/><g filter="url(#shadowFilter-p.1)"><use xlink:href="#p.1" transform="matrix(1.0 0.0 0.0 1.0 0.0 2.0)"/></g><defs><filter id="shadowFilter-p.1" filterUnits="userSpaceOnUse"><feGaussianBlur in="SourceAlpha" stdDeviation="2.0" result="blur"/><feComponentTransfer in="blur" color-interpolation-filters="sRGB"><feFuncR type="linear" slope="0" intercept="0.0"/><feFuncG type="linear" slope="0" intercept="0.0"/><feFuncB type="linear" slope="0" intercept="0.0"/><feFuncA type="linear" slope="0.5" intercept="0"/></feComponentTransfer></filter></defs><g id="p.1"><path fill="#a4c2f4" d="m238.48225 208.80136l25.763779 -18.64566l32.59842 45.259842l-25.763794 18.64566z" fill-rule="evenodd"/></g><g filter="url(#shadowFilter-p.2)"><use xlink:href="#p.2" transform="matrix(1.0 0.0 0.0 1.0 0.0 2.0)"/></g><defs><filter id="shadowFilter-p.2" filterUnits="userSpaceOnUse"><feGaussianBlur in="SourceAlpha" stdDeviation="2.0" result="blur"/><feComponentTransfer in="blur" color-interpolation-filters="sRGB"><feFuncR type="linear" slope="0" intercept="0.0"/><feFuncG type="linear" slope="0" intercept="0.0"/><feFuncB type="linear" slope="0" intercept="0.0"/><feFuncA type="linear" slope="0.5" intercept="0"/></feComponentTransfer></filter></defs><g id="p.2"><path fill="#000000" fill-opacity="0.0" d="m350.25177 119.00721l0 0c0 -28.205658 22.787659 -51.07087 50.897644 -51.07087l0 0c13.498901 0 26.444916 5.3806686 35.99005 14.958313c9.545166 9.577644 14.907593 22.567719 14.907593 36.112556l0 0c0 28.205666 -22.787659 51.07087 -50.897644 51.07087l0 0c-28.109985 0 -50.897644 -22.865204 -50.897644 -51.07087z" fill-rule="evenodd"/><path stroke="#a4c2f4" stroke-width="16.0" stroke-linejoin="round" stroke-linecap="butt" d="m350.25177 119.00721l0 0c0 -28.205658 22.787659 -51.07087 50.897644 -51.07087l0 0c13.498901 0 26.444916 5.3806686 35.99005 14.958313c9.545166 9.577644 14.907593 22.567719 14.907593 36.112556l0 0c0 28.205666 -22.787659 51.07087 -50.897644 51.07087l0 0c-28.109985 0 -50.897644 -22.865204 -50.897644 -51.07087z" fill-rule="evenodd"/></g><g filter="url(#shadowFilter-p.3)"><use xlink:href="#p.3" transform="matrix(1.0 0.0 0.0 1.0 0.0 3.0)"/></g><defs><filter id="shadowFilter-p.3" filterUnits="userSpaceOnUse"><feGaussianBlur in="SourceAlpha" stdDeviation="2.0" result="blur"/><feComponentTransfer in="blur" color-interpolation-filters="sRGB"><feFuncR type="linear" slope="0" intercept="0.0"/><feFuncG type="linear" slope="0" intercept="0.0"/><feFuncB type="linear" slope="0" intercept="0.0"/><feFuncA type="linear" slope="0.5" intercept="0"/></feComponentTransfer></filter></defs><g id="p.3"><path fill="#a4c2f4" d="m224.54527 356.87088l0 0c0 -97.85443 79.07286 -177.1811 176.61418 -177.1811l0 0c46.841003 0 91.76349 18.667236 124.8851 51.89514c33.121582 33.22792 51.729065 78.2946 51.729065 125.285965l0 0c0 97.85443 -79.072845 177.18112 -176.61417 177.18112l0 0c-97.54132 0 -176.61418 -79.32669 -176.61418 -177.18112z" fill-rule="evenodd"/></g><path fill="#a4c2f4" d="m380.8389 135.5255l40.629944 0l0 71.37007l-40.629944 0z" fill-rule="evenodd"/><g filter="url(#shadowFilter-p.4)"><use xlink:href="#p.4" transform="matrix(1.0 0.0 0.0 1.0 0.0 2.0)"/></g><defs><filter id="shadowFilter-p.4" filterUnits="userSpaceOnUse"><feGaussianBlur in="SourceAlpha" stdDeviation="2.0" result="blur"/><feComponentTransfer in="blur" color-interpolation-filters="sRGB"><feFuncR type="linear" slope="0" intercept="0.0"/><feFuncG type="linear" slope="0" intercept="0.0"/><feFuncB type="linear" slope="0" intercept="0.0"/><feFuncA type="linear" slope="0.5" intercept="0"/></feComponentTransfer></filter></defs><g id="p.4"><path fill="#a4c2f4" d="m374.72617 113.48565l52.881897 0l0 28.25196l-52.881897 0z" fill-rule="evenodd"/></g><path fill="#ffffff" d="m384.88455 356.87463l0 0c0 -9.027924 7.297394 -16.346466 16.299225 -16.346466l0 0c4.322815 0 8.468567 1.7221985 11.525269 4.7877502c3.0567017 3.0655518 4.773926 7.223358 4.773926 11.558716l0 0c0 9.027893 -7.297394 16.346436 -16.299194 16.346436l0 0c-9.001831 0 -16.299225 -7.3185425 -16.299225 -16.346436z" fill-rule="evenodd"/><path fill="#000000" fill-opacity="0.0" d="m417.42715 356.87088l160.34647 0" fill-rule="evenodd"/><path stroke="#ffffff" stroke-width="12.0" stroke-linejoin="round" stroke-linecap="butt" d="m417.42715 356.87088l160.34647 0" fill-rule="evenodd"/><g filter="url(#shadowFilter-p.5)"><use xlink:href="#p.5" transform="matrix(1.0 0.0 0.0 1.0 0.0 2.0)"/></g><defs><filter id="shadowFilter-p.5" filterUnits="userSpaceOnUse"><feGaussianBlur in="SourceAlpha" stdDeviation="2.0" result="blur"/><feComponentTransfer in="blur" color-interpolation-filters="sRGB"><feFuncR type="linear" slope="0" intercept="0.0"/><feFuncG type="linear" slope="0" intercept="0.0"/><feFuncB type="linear" slope="0" intercept="0.0"/><feFuncA type="linear" slope="0.5" intercept="0"/></feComponentTransfer></filter></defs><g id="p.5"><path fill="#a4c2f4" d="m222.2303 200.80302l38.173233 -27.59056l12.913391 17.921265l-38.173233 27.590546z" fill-rule="evenodd"/></g><path fill="#000000" fill-opacity="0.0" d="m577.16516 359.3101l-49.35437 0" fill-rule="evenodd"/><path stroke="#ffffff" stroke-width="3.0" stroke-linejoin="round" stroke-linecap="butt" d="m577.16516 359.3101l-49.35437 0" fill-rule="evenodd"/><path fill="#000000" fill-opacity="0.0" d="m224.54527 356.87088l21.70079 0" fill-rule="evenodd"/><path stroke="#ffffff" stroke-width="4.0" stroke-linejoin="round" stroke-linecap="butt" d="m224.54527 356.87088l21.70079 0" fill-rule="evenodd"/><path fill="#000000" fill-opacity="0.0" d="m224.47253 356.14703l21.480316 -0.22045898" fill-rule="evenodd"/><path stroke="#ffffff" stroke-width="4.0" stroke-linejoin="round" stroke-linecap="butt" d="m224.47253 356.14703l21.480316 -0.22045898" fill-rule="evenodd"/><path fill="#000000" fill-opacity="0.0" d="m275.39642 481.6968l15.118103 -15.370087" fill-rule="evenodd"/><path stroke="#ffffff" stroke-width="4.0" stroke-linejoin="round" stroke-linecap="butt" d="m275.39642 481.6968l15.118103 -15.370087" fill-rule="evenodd"/><path fill="#000000" fill-opacity="0.0" d="m401.28812 533.9954l-0.18899536 -21.606323" fill-rule="evenodd"/><path stroke="#ffffff" stroke-width="4.0" stroke-linejoin="round" stroke-linecap="butt" d="m401.28812 533.9954l-0.18899536 -21.606323" fill-rule="evenodd"/><path fill="#000000" fill-opacity="0.0" d="m526.47174 482.24454l-15.338593 -15.181122" fill-rule="evenodd"/><path stroke="#ffffff" stroke-width="4.0" stroke-linejoin="round" stroke-linecap="butt" d="m526.47174 482.24454l-15.338593 -15.181122" fill-rule="evenodd"/><path fill="#000000" fill-opacity="0.0" d="m575.94604 356.63016l-21.51184 0.15750122" fill-rule="evenodd"/><path stroke="#ffffff" stroke-width="4.0" stroke-linejoin="round" stroke-linecap="butt" d="m575.94604 356.63016l-21.51184 0.15750122" fill-rule="evenodd"/><path fill="#000000" fill-opacity="0.0" d="m525.0412 230.38152l-15.149628 15.338577" fill-rule="evenodd"/><path stroke="#ffffff" stroke-width="4.0" stroke-linejoin="round" stroke-linecap="butt" d="m525.0412 230.38152l-15.149628 15.338577" fill-rule="evenodd"/><path fill="#000000" fill-opacity="0.0" d="m400.49686 179.4044l0.1574707 21.606293" fill-rule="evenodd"/><path stroke="#ffffff" stroke-width="4.0" stroke-linejoin="round" stroke-linecap="butt" d="m400.49686 179.4044l0.1574707 21.606293" fill-rule="evenodd"/><path fill="#000000" fill-opacity="0.0" d="m275.9912 230.4637l15.307068 15.181107" fill-rule="evenodd"/><path stroke="#ffffff" stroke-width="4.0" stroke-linejoin="round" stroke-linecap="butt" d="m275.9912 230.4637l15.307068 15.181107" fill-rule="evenodd"/><path fill="#000000" fill-opacity="0.0" d="m230.31796 401.79132l20.724411 -5.795288" fill-rule="evenodd"/><path stroke="#ffffff" stroke-width="4.0" stroke-linejoin="round" stroke-linecap="butt" d="m230.31796 401.79132l20.724411 -5.795288" fill-rule="evenodd"/><path fill="#000000" fill-opacity="0.0" d="m311.90063 509.84204l10.64566 -18.771667" fill-rule="evenodd"/><path stroke="#ffffff" stroke-width="4.0" stroke-linejoin="round" stroke-linecap="butt" d="m311.90063 509.84204l10.64566 -18.771667" fill-rule="evenodd"/><path fill="#000000" fill-opacity="0.0" d="m446.99658 527.67413l-5.7323 -20.818909" fill-rule="evenodd"/><path stroke="#ffffff" stroke-width="4.0" stroke-linejoin="round" stroke-linecap="butt" d="m446.99658 527.67413l-5.7323 -20.818909" fill-rule="evenodd"/><path fill="#000000" fill-opacity="0.0" d="m554.5621 445.18597l-18.70868 -10.7716675" fill-rule="evenodd"/><path stroke="#ffffff" stroke-width="4.0" stroke-linejoin="round" stroke-linecap="butt" d="m554.5621 445.18597l-18.70868 -10.7716675" fill-rule="evenodd"/><path fill="#000000" fill-opacity="0.0" d="m569.93994 311.0071l-20.75586 5.7322693" fill-rule="evenodd"/><path stroke="#ffffff" stroke-width="4.0" stroke-linejoin="round" stroke-linecap="butt" d="m569.93994 311.0071l-20.75586 5.7322693" fill-rule="evenodd"/><path fill="#000000" fill-opacity="0.0" d="m488.19537 202.27638l-10.740173 18.740158" fill-rule="evenodd"/><path stroke="#ffffff" stroke-width="4.0" stroke-linejoin="round" stroke-linecap="butt" d="m488.19537 202.27638l-10.740173 18.740158" fill-rule="evenodd"/><path fill="#000000" fill-opacity="0.0" d="m354.74182 185.37094l5.7008057 20.7874" fill-rule="evenodd"/><path stroke="#ffffff" stroke-width="4.0" stroke-linejoin="round" stroke-linecap="butt" d="m354.74182 185.37094l5.7008057 20.7874" fill-rule="evenodd"/><path fill="#000000" fill-opacity="0.0" d="m247.65276 267.01508l18.67717 10.740143" fill-rule="evenodd"/><path stroke="#ffffff" stroke-width="4.0" stroke-linejoin="round" stroke-linecap="butt" d="m247.65276 267.01508l18.67717 10.740143" fill-rule="evenodd"/><path fill="#000000" fill-opacity="0.0" d="m247.78389 444.33304l18.551163 -10.929138" fill-rule="evenodd"/><path stroke="#ffffff" stroke-width="4.0" stroke-linejoin="round" stroke-linecap="butt" d="m247.78389 444.33304l18.551163 -10.929138" fill-rule="evenodd"/><path fill="#000000" fill-opacity="0.0" d="m354.46558 527.52124l5.3228455 -20.881897" fill-rule="evenodd"/><path stroke="#ffffff" stroke-width="4.0" stroke-linejoin="round" stroke-linecap="butt" d="m354.46558 527.52124l5.3228455 -20.881897" fill-rule="evenodd"/><path fill="#000000" fill-opacity="0.0" d="m489.55923 509.67157l-10.86615 -18.64566" fill-rule="evenodd"/><path stroke="#ffffff" stroke-width="4.0" stroke-linejoin="round" stroke-linecap="butt" d="m489.55923 509.67157l-10.86615 -18.64566" fill-rule="evenodd"/><path fill="#000000" fill-opacity="0.0" d="m572.1762 402.0676l-20.818909 -5.5433044" fill-rule="evenodd"/><path stroke="#ffffff" stroke-width="4.0" stroke-linejoin="round" stroke-linecap="butt" d="m572.1762 402.0676l-20.818909 -5.5433044" fill-rule="evenodd"/><path fill="#000000" fill-opacity="0.0" d="m552.40967 268.4683l-18.582642 10.86615" fill-rule="evenodd"/><path stroke="#ffffff" stroke-width="4.0" stroke-linejoin="round" stroke-linecap="butt" d="m552.40967 268.4683l-18.582642 10.86615" fill-rule="evenodd"/><path fill="#000000" fill-opacity="0.0" d="m445.39612 184.66531l-5.5433044 20.881897" fill-rule="evenodd"/><path stroke="#ffffff" stroke-width="4.0" stroke-linejoin="round" stroke-linecap="butt" d="m445.39612 184.66531l-5.5433044 20.881897" fill-rule="evenodd"/><path fill="#000000" fill-opacity="0.0" d="m312.12802 202.98361l10.803131 18.614182" fill-rule="evenodd"/><path stroke="#ffffff" stroke-width="4.0" stroke-linejoin="round" stroke-linecap="butt" d="m312.12802 202.98361l10.803131 18.614182" fill-rule="evenodd"/><path fill="#000000" fill-opacity="0.0" d="m229.75346 309.64865l20.787415 5.480316" fill-rule="evenodd"/><path stroke="#ffffff" stroke-width="4.0" stroke-linejoin="round" stroke-linecap="butt" d="m229.75346 309.64865l20.787415 5.480316" fill-rule="evenodd"/><path fill="#000000" fill-opacity="0.0" d="m50.043545 612.5229l702.33075 0l0 82.20471l-702.33075 0z" fill-rule="evenodd"/><path fill="#666666" d="m312.02747 663.9104q0 4.765625 -3.5 7.546875q-3.5 2.78125 -9.3125 2.78125q-6.984375 0 -10.703125 -1.53125l0 -2.65625q4.109375 1.75 10.5 1.75q4.6875 0 7.421875 -2.140625q2.75 -2.15625 2.75 -5.65625q0 -2.15625 -0.90625 -3.578125q-0.90625 -1.421875 -2.96875 -2.59375q-2.0625 -1.171875 -6.046875 -2.515625q-5.828125 -2.015625 -8.0625 -4.34375q-2.21875 -2.328125 -2.21875 -6.203125q0 -4.265625 3.34375 -6.953125q3.34375 -2.703125 8.609375 -2.703125q5.359375 0 10.078125 2.03125l-0.96875 2.28125q-4.734375 -1.96875 -9.0625 -1.96875q-4.21875 0 -6.71875 1.953125q-2.5 1.953125 -2.5 5.3125q0 2.109375 0.765625 3.46875q0.78125 1.34375 2.515625 2.421875q1.75 1.078125 6.0 2.59375q4.453125 1.53125 6.6875 2.984375q2.234375 1.4375 3.265625 3.28125q1.03125 1.828125 1.03125 4.4375zm24.575287 9.8125l-0.640625 -4.484375l-0.21875 0q-2.125 2.734375 -4.390625 3.875q-2.25 1.125 -5.3125 1.125q-4.171875 0 -6.5 -2.125q-2.3125 -2.140625 -2.3125 -5.921875q0 -4.140625 3.453125 -6.421875q3.453125 -2.296875 9.984375 -2.421875l5.390625 -0.15625l0 -1.875q0 -4.046875 -1.640625 -6.09375q-1.640625 -2.0625 -5.28125 -2.0625q-3.9375 0 -8.15625 2.1875l-0.953125 -2.234375q4.65625 -2.1875 9.21875 -2.1875q4.65625 0 6.953125 2.421875q2.3125 2.421875 2.3125 7.546875l0 18.828125l-1.90625 0zm-10.40625 -1.828125q4.53125 0 7.140625 -2.578125q2.625 -2.59375 2.625 -7.203125l0 -2.796875l-4.953125 0.21875q-5.96875 0.28125 -8.515625 1.859375q-2.53125 1.578125 -2.53125 4.90625q0 2.65625 1.625 4.125q1.640625 1.46875 4.609375 1.46875zm27.674316 1.828125l-10.9375 -28.296875l2.65625 0l7.3125 19.234375q1.46875 3.703125 2.1875 6.453125l0.15625 0q1.078125 -3.53125 2.1875 -6.5l7.328125 -19.1875l2.65625 0l-10.9375 28.296875l-2.609375 0zm29.711182 0.515625q-6.171875 0 -9.625 -3.796875q-3.453125 -3.796875 -3.453125 -10.65625q0 -6.765625 3.328125 -10.828125q3.34375 -4.078125 9.0 -4.078125q5.0 0 7.890625 3.484375q2.890625 3.484375 2.890625 9.46875l0 2.09375l-20.390625 0q0.046875 5.828125 2.71875 8.90625q2.671875 3.0625 7.640625 3.0625q2.421875 0 4.25 -0.328125q1.84375 -0.34375 4.65625 -1.46875l0 2.34375q-2.390625 1.046875 -4.421875 1.421875q-2.03125 0.375 -4.484375 0.375zm-0.75 -27.078125q-4.09375 0 -6.578125 2.703125q-2.46875 2.6875 -2.875 7.765625l17.5 0q0 -4.921875 -2.140625 -7.6875q-2.140625 -2.78125 -5.90625 -2.78125zm39.917664 24.796875q2.4375 0 4.265625 -0.421875l0 2.078125q-1.875 0.625 -4.328125 0.625q-3.75 0 -5.53125 -2.0q-1.78125 -2.0 -1.78125 -6.296875l0 -18.28125l-4.1875 0l0 -1.515625l4.1875 -1.171875l1.296875 -6.40625l1.328125 0l0 6.859375l8.3125 0l0 2.234375l-8.3125 0l0 17.90625q0 3.265625 1.140625 4.828125q1.15625 1.5625 3.609375 1.5625zm12.9565735 1.765625l-2.578125 0l0 -28.296875l2.578125 0l0 28.296875zm-2.9375 -36.171875q0 -2.5 1.640625 -2.5q0.8125 0 1.265625 0.65625q0.453125 0.65625 0.453125 1.84375q0 1.171875 -0.453125 1.859375q-0.453125 0.671875 -1.265625 0.671875q-1.640625 0 -1.640625 -2.53125zm47.77487 36.171875l0 -18.5625q0 -4.140625 -1.609375 -6.046875q-1.609375 -1.90625 -4.953125 -1.90625q-4.34375 0 -6.421875 2.40625q-2.078125 2.390625 -2.078125 7.515625l0 16.59375l-2.640625 0l0 -19.34375q0 -7.171875 -6.5625 -7.171875q-4.453125 0 -6.484375 2.59375q-2.03125 2.59375 -2.03125 8.296875l0 15.625l-2.578125 0l0 -28.296875l2.140625 0l0.546875 3.875l0.15625 0q1.171875 -2.109375 3.328125 -3.265625q2.171875 -1.15625 4.765625 -1.15625q6.703125 0 8.59375 5.015625l0.109375 0q1.375 -2.421875 3.703125 -3.71875q2.328125 -1.296875 5.296875 -1.296875q4.640625 0 6.953125 2.46875q2.328125 2.46875 2.328125 7.859375l0 18.515625l-2.5625 0zm23.15686 0.515625q-6.171875 0 -9.625 -3.796875q-3.453125 -3.796875 -3.453125 -10.65625q0 -6.765625 3.328125 -10.828125q3.34375 -4.078125 9.0 -4.078125q5.0 0 7.890625 3.484375q2.8905945 3.484375 2.8905945 9.46875l0 2.09375l-20.390594 0q0.046875 5.828125 2.71875 8.90625q2.671875 3.0625 7.640625 3.0625q2.421875 0 4.25 -0.328125q1.84375 -0.34375 4.6562195 -1.46875l0 2.34375q-2.3905945 1.046875 -4.4218445 1.421875q-2.03125 0.375 -4.484375 0.375zm-0.75 -27.078125q-4.09375 0 -6.578125 2.703125q-2.46875 2.6875 -2.875 7.765625l17.5 0q0 -4.921875 -2.140625 -7.6875q-2.140625 -2.78125 -5.90625 -2.78125z" fill-rule="nonzero"/></g></svg>