<svg version="1.1" viewBox="0.0 0.0 723.4750656167979 721.2283464566929" fill="none" stroke="none" stroke-linecap="square" stroke-miterlimit="10" xmlns:xlink="http://www.w3.org/1999/xlink" xmlns="http://www.w3.org/2000/svg"><clipPath id="p.0"><path d="m0 0l723.47504 0l0 721.22833l-723.47504 0l0 -721.22833z" clip-rule="nonzero"/></clipPath><g clip-path="url(#p.0)"><path fill="#000000" fill-opacity="0.0" d="m0 0l723.47504 0l0 721.22833l-723.47504 0z" fill-rule="evenodd"/><path fill="#000000" fill-opacity="0.0" d="m285.97375 95.14949l0 0c0 -41.84318 33.920593 -75.76378 75.76376 -75.76378l0 0c20.093811 0 39.364624 7.982233 53.57309 22.190699c14.208466 14.208466 22.190704 33.47928 22.190704 53.573082l0 0c0 41.843185 -33.920593 75.76378 -75.763794 75.76378l0 0c-41.84317 0 -75.76376 -33.920593 -75.76376 -75.76378z" fill-rule="evenodd"/><path stroke="#d0e0e3" stroke-width="16.0" stroke-linejoin="round" stroke-linecap="butt" d="m285.97375 95.14949l0 0c0 -41.84318 33.920593 -75.76378 75.76376 -75.76378l0 0c20.093811 0 39.364624 7.982233 53.57309 22.190699c14.208466 14.208466 22.190704 33.47928 22.190704 53.573082l0 0c0 41.843185 -33.920593 75.76378 -75.763794 75.76378l0 0c-41.84317 0 -75.76376 -33.920593 -75.76376 -75.76378z" fill-rule="evenodd"/><path fill="#d0e0e3" d="m98.88714 448.0411l0 0c0 -145.16824 117.68214 -262.8504 262.85037 -262.8504l0 0c69.71228 0 136.5693 27.693085 185.86331 76.98711c49.294006 49.294006 76.98712 116.15103 76.98712 185.86328l0 0c0 145.16824 -117.68216 262.85043 -262.85043 262.85043l0 0c-145.16824 0 -262.85037 -117.68219 -262.85037 -262.85043z" fill-rule="evenodd"/><path fill="#d0e0e3" d="m331.496 119.66558l60.472443 0l0 105.88976l-60.472443 0z" fill-rule="evenodd"/><path fill="#d0e0e3" d="m322.39853 86.96576l78.677185 0l0 41.88977l-78.677185 0z" fill-rule="evenodd"/><path fill="#ffffff" d="m337.51706 448.042l0 0c0 -13.376587 10.843872 -24.220459 24.220459 -24.220459l0 0c6.4236755 0 12.584259 2.5517883 17.126465 7.093994c4.5422363 4.5422363 7.0940247 10.702789 7.0940247 17.126465l0 0c0 13.376587 -10.843872 24.22049 -24.22049 24.22049l0 0c-13.376587 0 -24.220459 -10.843903 -24.220459 -24.22049z" fill-rule="evenodd"/><path fill="#000000" fill-opacity="0.0" d="m385.94226 448.0411l238.64569 0" fill-rule="evenodd"/><path stroke="#ffffff" stroke-width="12.0" stroke-linejoin="round" stroke-linecap="butt" d="m385.94226 448.0411l238.64569 0" fill-rule="evenodd"/><path fill="#d0e0e3" d="m119.629265 228.38266l38.362206 -27.685043l48.472443 67.14961l-38.362198 27.685028z" fill-rule="evenodd"/><path fill="#d0e0e3" d="m95.44181 216.51578l56.787407 -41.007874l19.181091 26.551178l-56.7874 41.007874z" fill-rule="evenodd"/><path fill="#000000" fill-opacity="0.0" d="m623.68463 451.68765l-73.44879 0" fill-rule="evenodd"/><path stroke="#ffffff" stroke-width="3.0" stroke-linejoin="round" stroke-linecap="butt" d="m623.68463 451.68765l-73.44879 0" fill-rule="evenodd"/><path fill="#000000" fill-opacity="0.0" d="m98.88714 448.0411l32.28347 0" fill-rule="evenodd"/><path stroke="#ffffff" stroke-width="4.0" stroke-linejoin="round" stroke-linecap="butt" d="m98.88714 448.0411l32.28347 0" fill-rule="evenodd"/><path fill="#000000" fill-opacity="0.0" d="m98.77887 446.99475l32.0 -0.28347778" fill-rule="evenodd"/><path stroke="#ffffff" stroke-width="4.0" stroke-linejoin="round" stroke-linecap="butt" d="m98.77887 446.99475l32.0 -0.28347778" fill-rule="evenodd"/><path fill="#000000" fill-opacity="0.0" d="m-161.9685 302.5853l96.0 96.0" fill-rule="evenodd"/><path stroke="#ffffff" stroke-width="4.0" stroke-linejoin="round" stroke-linecap="butt" d="m-161.9685 302.5853l96.0 96.0" fill-rule="evenodd"/><path fill="#000000" fill-opacity="0.0" d="m174.56793 633.269l22.456696 -22.834656" fill-rule="evenodd"/><path stroke="#ffffff" stroke-width="4.0" stroke-linejoin="round" stroke-linecap="butt" d="m174.56793 633.269l22.456696 -22.834656" fill-rule="evenodd"/><path fill="#000000" fill-opacity="0.0" d="m361.93018 710.86273l-0.25198364 -32.06299" fill-rule="evenodd"/><path stroke="#ffffff" stroke-width="4.0" stroke-linejoin="round" stroke-linecap="butt" d="m361.93018 710.86273l-0.25198364 -32.06299" fill-rule="evenodd"/><path fill="#000000" fill-opacity="0.0" d="m548.2386 634.0816l-22.834656 -22.551208" fill-rule="evenodd"/><path stroke="#ffffff" stroke-width="4.0" stroke-linejoin="round" stroke-linecap="butt" d="m548.2386 634.0816l-22.834656 -22.551208" fill-rule="evenodd"/><path fill="#000000" fill-opacity="0.0" d="m621.8703 447.71155l-32.06299 0.18899536" fill-rule="evenodd"/><path stroke="#ffffff" stroke-width="4.0" stroke-linejoin="round" stroke-linecap="butt" d="m621.8703 447.71155l-32.06299 0.18899536" fill-rule="evenodd"/><path fill="#000000" fill-opacity="0.0" d="m546.1095 260.40045l-22.551147 22.803131" fill-rule="evenodd"/><path stroke="#ffffff" stroke-width="4.0" stroke-linejoin="round" stroke-linecap="butt" d="m546.1095 260.40045l-22.551147 22.803131" fill-rule="evenodd"/><path fill="#000000" fill-opacity="0.0" d="m360.75256 184.76732l0.18896484 32.031494" fill-rule="evenodd"/><path stroke="#ffffff" stroke-width="4.0" stroke-linejoin="round" stroke-linecap="butt" d="m360.75256 184.76732l0.18896484 32.031494" fill-rule="evenodd"/><path fill="#000000" fill-opacity="0.0" d="m175.45312 260.5224l22.771667 22.519684" fill-rule="evenodd"/><path stroke="#ffffff" stroke-width="4.0" stroke-linejoin="round" stroke-linecap="butt" d="m175.45312 260.5224l22.771667 22.519684" fill-rule="evenodd"/><path fill="#000000" fill-opacity="0.0" d="m107.47852 514.7157l30.834648 -8.566925" fill-rule="evenodd"/><path stroke="#ffffff" stroke-width="4.0" stroke-linejoin="round" stroke-linecap="butt" d="m107.47852 514.7157l30.834648 -8.566925" fill-rule="evenodd"/><path fill="#000000" fill-opacity="0.0" d="m228.89645 675.0271l15.779526 -27.873962" fill-rule="evenodd"/><path stroke="#ffffff" stroke-width="4.0" stroke-linejoin="round" stroke-linecap="butt" d="m228.89645 675.0271l15.779526 -27.873962" fill-rule="evenodd"/><path fill="#000000" fill-opacity="0.0" d="m429.9572 701.484l-8.535431 -30.929138" fill-rule="evenodd"/><path stroke="#ffffff" stroke-width="4.0" stroke-linejoin="round" stroke-linecap="butt" d="m429.9572 701.484l-8.535431 -30.929138" fill-rule="evenodd"/><path fill="#000000" fill-opacity="0.0" d="m590.0449 579.099l-27.874023 -15.874023" fill-rule="evenodd"/><path stroke="#ffffff" stroke-width="4.0" stroke-linejoin="round" stroke-linecap="butt" d="m590.0449 579.099l-27.874023 -15.874023" fill-rule="evenodd"/><path fill="#000000" fill-opacity="0.0" d="m612.9315 380.02206l-30.929138 8.472443" fill-rule="evenodd"/><path stroke="#ffffff" stroke-width="4.0" stroke-linejoin="round" stroke-linecap="butt" d="m612.9315 380.02206l-30.929138 8.472443" fill-rule="evenodd"/><path fill="#000000" fill-opacity="0.0" d="m491.27258 218.70177l-15.873993 27.842514" fill-rule="evenodd"/><path stroke="#ffffff" stroke-width="4.0" stroke-linejoin="round" stroke-linecap="butt" d="m491.27258 218.70177l-15.873993 27.842514" fill-rule="evenodd"/><path fill="#000000" fill-opacity="0.0" d="m292.65622 193.61969l8.472443 30.897629" fill-rule="evenodd"/><path stroke="#ffffff" stroke-width="4.0" stroke-linejoin="round" stroke-linecap="butt" d="m292.65622 193.61969l8.472443 30.897629" fill-rule="evenodd"/><path fill="#000000" fill-opacity="0.0" d="m133.27757 314.75247l27.81102 15.842529" fill-rule="evenodd"/><path stroke="#ffffff" stroke-width="4.0" stroke-linejoin="round" stroke-linecap="butt" d="m133.27757 314.75247l27.81102 15.842529" fill-rule="evenodd"/><path fill="#000000" fill-opacity="0.0" d="m133.47272 577.8335l27.590546 -16.251953" fill-rule="evenodd"/><path stroke="#ffffff" stroke-width="4.0" stroke-linejoin="round" stroke-linecap="butt" d="m133.47272 577.8335l27.590546 -16.251953" fill-rule="evenodd"/><path fill="#000000" fill-opacity="0.0" d="m292.2451 701.2572l8.031494 -31.02362" fill-rule="evenodd"/><path stroke="#ffffff" stroke-width="4.0" stroke-linejoin="round" stroke-linecap="butt" d="m292.2451 701.2572l8.031494 -31.02362" fill-rule="evenodd"/><path fill="#000000" fill-opacity="0.0" d="m493.3024 674.77423l-16.220459 -27.685059" fill-rule="evenodd"/><path stroke="#ffffff" stroke-width="4.0" stroke-linejoin="round" stroke-linecap="butt" d="m493.3024 674.77423l-16.220459 -27.685059" fill-rule="evenodd"/><path fill="#000000" fill-opacity="0.0" d="m616.25964 515.1256l-31.02362 -8.125977" fill-rule="evenodd"/><path stroke="#ffffff" stroke-width="4.0" stroke-linejoin="round" stroke-linecap="butt" d="m616.25964 515.1256l-31.02362 -8.125977" fill-rule="evenodd"/><path fill="#000000" fill-opacity="0.0" d="m586.84155 316.9086l-27.684998 16.188965" fill-rule="evenodd"/><path stroke="#ffffff" stroke-width="4.0" stroke-linejoin="round" stroke-linecap="butt" d="m586.84155 316.9086l-27.684998 16.188965" fill-rule="evenodd"/><path fill="#000000" fill-opacity="0.0" d="m427.5753 192.57278l-8.126007 30.992126" fill-rule="evenodd"/><path stroke="#ffffff" stroke-width="4.0" stroke-linejoin="round" stroke-linecap="butt" d="m427.5753 192.57278l-8.126007 30.992126" fill-rule="evenodd"/><path fill="#000000" fill-opacity="0.0" d="m229.23486 219.75105l16.157486 27.65355" fill-rule="evenodd"/><path stroke="#ffffff" stroke-width="4.0" stroke-linejoin="round" stroke-linecap="butt" d="m229.23486 219.75105l16.157486 27.65355" fill-rule="evenodd"/><path fill="#000000" fill-opacity="0.0" d="m106.6384 378.0066l30.960632 8.094482" fill-rule="evenodd"/><path stroke="#ffffff" stroke-width="4.0" stroke-linejoin="round" stroke-linecap="butt" d="m106.6384 378.0066l30.960632 8.094482" fill-rule="evenodd"/></g></svg>