<svg version="1.1" viewBox="0.0 0.0 373.32020997375326 479.7217847769029" fill="none" stroke="none" stroke-linecap="square" stroke-miterlimit="10" xmlns:xlink="http://www.w3.org/1999/xlink" xmlns="http://www.w3.org/2000/svg"><clipPath id="p.0"><path d="m0 0l373.32022 0l0 479.72177l-373.32022 0l0 -479.72177z" clip-rule="nonzero"/></clipPath><g clip-path="url(#p.0)"><path fill="#000000" fill-opacity="0.0" d="m0 0l373.32022 0l0 479.72177l-373.32022 0z" fill-rule="evenodd"/><g filter="url(#shadowFilter-p.1)"><use xlink:href="#p.1" transform="matrix(1.0 0.0 0.0 1.0 0.0 2.0)"/></g><defs><filter id="shadowFilter-p.1" filterUnits="userSpaceOnUse"><feGaussianBlur in="SourceAlpha" stdDeviation="2.0" result="blur"/><feComponentTransfer in="blur" color-interpolation-filters="sRGB"><feFuncR type="linear" slope="0" intercept="0.0"/><feFuncG type="linear" slope="0" intercept="0.0"/><feFuncB type="linear" slope="0" intercept="0.0"/><feFuncA type="linear" slope="0.5" intercept="0"/></feComponentTransfer></filter></defs><g id="p.1"><path fill="#666666" d="m49.916943 143.00807l24.31496 -17.6063l30.771652 42.740166l-24.314964 17.606293z" fill-rule="evenodd"/></g><g filter="url(#shadowFilter-p.2)"><use xlink:href="#p.2" transform="matrix(1.0 0.0 0.0 1.0 0.0 2.0)"/></g><defs><filter id="shadowFilter-p.2" filterUnits="userSpaceOnUse"><feGaussianBlur in="SourceAlpha" stdDeviation="2.0" result="blur"/><feComponentTransfer in="blur" color-interpolation-filters="sRGB"><feFuncR type="linear" slope="0" intercept="0.0"/><feFuncG type="linear" slope="0" intercept="0.0"/><feFuncB type="linear" slope="0" intercept="0.0"/><feFuncA type="linear" slope="0.5" intercept="0"/></feComponentTransfer></filter></defs><g id="p.2"><path fill="#000000" fill-opacity="0.0" d="m137.56386 60.240158l0 0c0 -26.622734 21.511475 -48.204727 48.04724 -48.204727l0 0c12.74292 0 24.963928 5.078697 33.974533 14.118837c9.010605 9.040138 14.072708 21.3012 14.072708 34.085888l0 0c0 26.622734 -21.51149 48.204727 -48.04724 48.204727l0 0c-26.535767 0 -48.04724 -21.581993 -48.04724 -48.204727z" fill-rule="evenodd"/><path stroke="#666666" stroke-width="16.0" stroke-linejoin="round" stroke-linecap="butt" d="m137.56386 60.240158l0 0c0 -26.622734 21.511475 -48.204727 48.04724 -48.204727l0 0c12.74292 0 24.963928 5.078697 33.974533 14.118837c9.010605 9.040138 14.072708 21.3012 14.072708 34.085888l0 0c0 26.622734 -21.51149 48.204727 -48.04724 48.204727l0 0c-26.535767 0 -48.04724 -21.581993 -48.04724 -48.204727z" fill-rule="evenodd"/></g><g filter="url(#shadowFilter-p.3)"><use xlink:href="#p.3" transform="matrix(1.0 0.0 0.0 1.0 0.0 3.0)"/></g><defs><filter id="shadowFilter-p.3" filterUnits="userSpaceOnUse"><feGaussianBlur in="SourceAlpha" stdDeviation="2.0" result="blur"/><feComponentTransfer in="blur" color-interpolation-filters="sRGB"><feFuncR type="linear" slope="0" intercept="0.0"/><feFuncG type="linear" slope="0" intercept="0.0"/><feFuncB type="linear" slope="0" intercept="0.0"/><feFuncA type="linear" slope="0.5" intercept="0"/></feComponentTransfer></filter></defs><g id="p.3"><path fill="#666666" d="m20.102045 299.72363l0 0c0 -92.35768 74.638016 -167.22836 166.70865 -167.22836l0 0c44.213898 0 86.61688 17.618652 117.88083 48.980057c31.263947 31.36139 48.82785 73.896576 48.82785 118.24831l0 0c0 92.357666 -74.63803 167.22833 -166.70868 167.22833l0 0c-92.07064 0 -166.70865 -74.87067 -166.70865 -167.22833z" fill-rule="evenodd"/></g><path fill="#666666" d="m166.43443 75.828804l38.362198 0l0 67.37008l-38.362198 0z" fill-rule="evenodd"/><g filter="url(#shadowFilter-p.4)"><use xlink:href="#p.4" transform="matrix(1.0 0.0 0.0 1.0 0.0 2.0)"/></g><defs><filter id="shadowFilter-p.4" filterUnits="userSpaceOnUse"><feGaussianBlur in="SourceAlpha" stdDeviation="2.0" result="blur"/><feComponentTransfer in="blur" color-interpolation-filters="sRGB"><feFuncR type="linear" slope="0" intercept="0.0"/><feFuncG type="linear" slope="0" intercept="0.0"/><feFuncB type="linear" slope="0" intercept="0.0"/><feFuncA type="linear" slope="0.5" intercept="0"/></feComponentTransfer></filter></defs><g id="p.4"><path fill="#666666" d="m160.66475 55.02671l49.921265 0l0 26.645668l-49.921265 0z" fill-rule="evenodd"/></g><path fill="#d9ead3" d="m171.21155 300.5172l0 0c0 -8.523468 6.8884735 -15.433075 15.385834 -15.433075l0 0c4.0805664 0 7.9940186 1.6259766 10.87941 4.520233c2.8854065 2.8942566 4.5064087 6.8197327 4.5064087 10.912842l0 0c0 8.5234375 -6.8884735 15.433075 -15.3858185 15.433075l0 0c-8.49736 0 -15.385834 -6.9096375 -15.385834 -15.433075z" fill-rule="evenodd"/><path fill="#000000" fill-opacity="0.0" d="m202.18079 299.72363l151.3386 0" fill-rule="evenodd"/><path stroke="#d9ead3" stroke-width="12.0" stroke-linejoin="round" stroke-linecap="butt" d="m202.18079 299.72363l151.3386 0" fill-rule="evenodd"/><g filter="url(#shadowFilter-p.5)"><use xlink:href="#p.5" transform="matrix(1.0 0.0 0.0 1.0 0.0 2.0)"/></g><defs><filter id="shadowFilter-p.5" filterUnits="userSpaceOnUse"><feGaussianBlur in="SourceAlpha" stdDeviation="2.0" result="blur"/><feComponentTransfer in="blur" color-interpolation-filters="sRGB"><feFuncR type="linear" slope="0" intercept="0.0"/><feFuncG type="linear" slope="0" intercept="0.0"/><feFuncB type="linear" slope="0" intercept="0.0"/><feFuncA type="linear" slope="0.5" intercept="0"/></feComponentTransfer></filter></defs><g id="p.5"><path fill="#666666" d="m34.577057 135.45891l36.031494 -26.047241l12.18898 16.913383l-36.031498 26.047249z" fill-rule="evenodd"/></g><path fill="#000000" fill-opacity="0.0" d="m20.102045 299.72363l20.47244 0" fill-rule="evenodd"/><path stroke="#ffffff" stroke-width="4.0" stroke-linejoin="round" stroke-linecap="butt" d="m20.102045 299.72363l20.47244 0" fill-rule="evenodd"/><path fill="#000000" fill-opacity="0.0" d="m19.801838 299.82587l20.283463 -0.2204895" fill-rule="evenodd"/><path stroke="#d9ead3" stroke-width="8.0" stroke-linejoin="round" stroke-linecap="butt" d="m19.801838 299.82587l20.283463 -0.2204895" fill-rule="evenodd"/><path fill="#000000" fill-opacity="0.0" d="m67.86788 418.32483l14.236221 -14.48819" fill-rule="evenodd"/><path stroke="#d9ead3" stroke-width="8.0" stroke-linejoin="round" stroke-linecap="butt" d="m67.86788 418.32483l14.236221 -14.48819" fill-rule="evenodd"/><path fill="#000000" fill-opacity="0.0" d="m186.69453 467.68634l-0.1889801 -20.37793" fill-rule="evenodd"/><path stroke="#d9ead3" stroke-width="8.0" stroke-linejoin="round" stroke-linecap="butt" d="m186.69453 467.68634l-0.1889801 -20.37793" fill-rule="evenodd"/><path fill="#000000" fill-opacity="0.0" d="m304.85287 418.84177l-14.456696 -14.299194" fill-rule="evenodd"/><path stroke="#d9ead3" stroke-width="8.0" stroke-linejoin="round" stroke-linecap="butt" d="m304.85287 418.84177l-14.456696 -14.299194" fill-rule="evenodd"/><path fill="#000000" fill-opacity="0.0" d="m351.5507 300.28186l-20.314972 0.1574707" fill-rule="evenodd"/><path stroke="#d9ead3" stroke-width="4.0" stroke-linejoin="round" stroke-linecap="butt" d="m351.5507 300.28186l-20.314972 0.1574707" fill-rule="evenodd"/><path fill="#000000" fill-opacity="0.0" d="m303.5026 181.12328l-14.267731 14.456696" fill-rule="evenodd"/><path stroke="#d9ead3" stroke-width="8.0" stroke-linejoin="round" stroke-linecap="butt" d="m303.5026 181.12328l-14.267731 14.456696" fill-rule="evenodd"/><path fill="#000000" fill-opacity="0.0" d="m185.9477 133.00902l0.1574707 20.377945" fill-rule="evenodd"/><path stroke="#d9ead3" stroke-width="8.0" stroke-linejoin="round" stroke-linecap="butt" d="m185.9477 133.00902l0.1574707 20.377945" fill-rule="evenodd"/><path fill="#000000" fill-opacity="0.0" d="m68.42928 181.20085l14.456688 14.29921" fill-rule="evenodd"/><path stroke="#d9ead3" stroke-width="8.0" stroke-linejoin="round" stroke-linecap="butt" d="m68.42928 181.20085l14.456688 14.29921" fill-rule="evenodd"/><path fill="#000000" fill-opacity="0.0" d="m25.319227 342.90677l19.559053 -5.448822" fill-rule="evenodd"/><path stroke="#d9ead3" stroke-width="8.0" stroke-linejoin="round" stroke-linecap="butt" d="m25.319227 342.90677l19.559053 -5.448822" fill-rule="evenodd"/><path fill="#000000" fill-opacity="0.0" d="m102.32347 444.8894l10.047241 -17.73227" fill-rule="evenodd"/><path stroke="#d9ead3" stroke-width="8.0" stroke-linejoin="round" stroke-linecap="butt" d="m102.32347 444.8894l10.047241 -17.73227" fill-rule="evenodd"/><path fill="#000000" fill-opacity="0.0" d="m229.83784 461.72006l-5.417328 -19.653534" fill-rule="evenodd"/><path stroke="#d9ead3" stroke-width="8.0" stroke-linejoin="round" stroke-linecap="butt" d="m229.83784 461.72006l-5.417328 -19.653534" fill-rule="evenodd"/><path fill="#000000" fill-opacity="0.0" d="m331.36676 383.8644l-17.637787 -10.173218" fill-rule="evenodd"/><path stroke="#d9ead3" stroke-width="8.0" stroke-linejoin="round" stroke-linecap="butt" d="m331.36676 383.8644l-17.637787 -10.173218" fill-rule="evenodd"/><path fill="#000000" fill-opacity="0.0" d="m345.88165 257.22098l-19.590546 5.417328" fill-rule="evenodd"/><path stroke="#d9ead3" stroke-width="8.0" stroke-linejoin="round" stroke-linecap="butt" d="m345.88165 257.22098l-19.590546 5.417328" fill-rule="evenodd"/><path fill="#000000" fill-opacity="0.0" d="m268.72458 154.59651l-10.141754 17.70079" fill-rule="evenodd"/><path stroke="#d9ead3" stroke-width="8.0" stroke-linejoin="round" stroke-linecap="butt" d="m268.72458 154.59651l-10.141754 17.70079" fill-rule="evenodd"/><path fill="#000000" fill-opacity="0.0" d="m142.76044 138.64047l5.4173126 19.65355" fill-rule="evenodd"/><path stroke="#d9ead3" stroke-width="8.0" stroke-linejoin="round" stroke-linecap="butt" d="m142.76044 138.64047l5.4173126 19.65355" fill-rule="evenodd"/><path fill="#000000" fill-opacity="0.0" d="m41.681194 215.69951l17.6063 10.141724" fill-rule="evenodd"/><path stroke="#d9ead3" stroke-width="8.0" stroke-linejoin="round" stroke-linecap="butt" d="m41.681194 215.69951l17.6063 10.141724" fill-rule="evenodd"/><path fill="#000000" fill-opacity="0.0" d="m41.80496 383.0594l17.480312 -10.330719" fill-rule="evenodd"/><path stroke="#d9ead3" stroke-width="8.0" stroke-linejoin="round" stroke-linecap="butt" d="m41.80496 383.0594l17.480312 -10.330719" fill-rule="evenodd"/><path fill="#000000" fill-opacity="0.0" d="m142.4997 461.57574l5.0078735 -19.748016" fill-rule="evenodd"/><path stroke="#d9ead3" stroke-width="8.0" stroke-linejoin="round" stroke-linecap="butt" d="m142.4997 461.57574l5.0078735 -19.748016" fill-rule="evenodd"/><path fill="#000000" fill-opacity="0.0" d="m270.0119 444.72855l-10.267731 -17.606293" fill-rule="evenodd"/><path stroke="#d9ead3" stroke-width="8.0" stroke-linejoin="round" stroke-linecap="butt" d="m270.0119 444.72855l-10.267731 -17.606293" fill-rule="evenodd"/><path fill="#000000" fill-opacity="0.0" d="m347.9924 343.16754l-19.653564 -5.196869" fill-rule="evenodd"/><path stroke="#d9ead3" stroke-width="8.0" stroke-linejoin="round" stroke-linecap="butt" d="m347.9924 343.16754l-19.653564 -5.196869" fill-rule="evenodd"/><path fill="#000000" fill-opacity="0.0" d="m329.33517 217.07112l-17.51181 10.267715" fill-rule="evenodd"/><path stroke="#d9ead3" stroke-width="8.0" stroke-linejoin="round" stroke-linecap="butt" d="m329.33517 217.07112l-17.51181 10.267715" fill-rule="evenodd"/><path fill="#000000" fill-opacity="0.0" d="m228.32721 137.97449l-5.228348 19.748032" fill-rule="evenodd"/><path stroke="#d9ead3" stroke-width="8.0" stroke-linejoin="round" stroke-linecap="butt" d="m228.32721 137.97449l-5.228348 19.748032" fill-rule="evenodd"/><path fill="#000000" fill-opacity="0.0" d="m102.53809 155.26404l10.204727 17.574799" fill-rule="evenodd"/><path stroke="#d9ead3" stroke-width="8.0" stroke-linejoin="round" stroke-linecap="butt" d="m102.53809 155.26404l10.204727 17.574799" fill-rule="evenodd"/><path fill="#000000" fill-opacity="0.0" d="m24.78641 255.93881l19.62205 5.13385" fill-rule="evenodd"/><path stroke="#d9ead3" stroke-width="8.0" stroke-linejoin="round" stroke-linecap="butt" d="m24.78641 255.93881l19.62205 5.13385" fill-rule="evenodd"/></g></svg>